<?xml version="1.0" encoding="utf-8"?>
<!-- Generator: Adobe Illustrator 16.0.0, SVG Export Plug-In . SVG Version: 6.00 Build 0)  -->
<!DOCTYPE svg PUBLIC "-//W3C//DTD SVG 1.1//EN" "http://www.w3.org/Graphics/SVG/1.1/DTD/svg11.dtd">
<svg version="1.1" id="Layer_1" xmlns="http://www.w3.org/2000/svg" xmlns:xlink="http://www.w3.org/1999/xlink" x="0px" y="0px"
	 width="2500px" height="1799px" viewBox="0 0 2500 1799" enable-background="new 0 0 2500 1799" xml:space="preserve">
<path fill="#5DC1FF" d="M523.542,1743.17c0,0-160.11-141.143-372.276-609.635C-60.901,665.044,19.852,113.41,401.157,60.368
	C782.461,7.327,1078.54,233.177,1078.54,233.177s425.289-135.871,764.757-42.952c339.467,92.919,306.061,548.251,306.061,548.251
	s214.068,126.435,301.427,413.706c87.358,287.271-213.174,589.766-213.174,589.766L523.542,1743.17z"/>
<path fill="#07359F" d="M2333.696,1742.335H339.292c-11.035,0-19.979-8.943-19.979-19.978v-0.558
	c0-11.033,8.944-19.979,19.979-19.979h1994.404c11.034,0,19.98,8.945,19.98,19.979v0.558
	C2353.677,1733.392,2344.73,1742.335,2333.696,1742.335z"/>
<path fill="#EAE9F3" d="M1933.679,1449.463H571.104c-23.606,0-42.742-17.852-42.742-39.875l-25.921-932.835
	c0-22.022,19.136-39.875,42.742-39.875h1427.377c23.604,0,42.742,17.853,42.742,39.875l-38.882,932.835
	C1976.421,1431.611,1957.283,1449.463,1933.679,1449.463z"/>
<path fill="#676E9C" d="M1998.702,445.203c4.536,6.332,7.183,13.943,7.183,22.131l-38.882,932.836
	c0,22.021-19.137,39.875-42.741,39.875H561.686c-9.846,0-18.915-3.106-26.141-8.327c7.666,10.699,20.73,17.744,35.559,17.744
	h1362.575c23.604,0,42.742-17.852,42.742-39.876l38.882-932.835C2015.303,463.916,2008.8,452.496,1998.702,445.203z"/>
<path fill="#6CBDE1" d="M587.618,1340.262l-25.92-836.169c0-22.023,19.136-39.875,42.742-39.875h1323.758
	c23.606,0,42.742,17.853,42.742,39.875l-38.881,836.169c0,22.021-19.137,39.874-42.742,39.874H630.36
	C606.754,1380.136,587.618,1362.282,587.618,1340.262z"/>
<linearGradient id="SVGID_1_" gradientUnits="userSpaceOnUse" x1="1318.6055" y1="1577.7412" x2="1248.6665" y2="501.4702">
	<stop  offset="0" style="stop-color:#0082C1"/>
	<stop  offset="1" style="stop-color:#8DDCFF"/>
</linearGradient>
<path fill="url(#SVGID_1_)" d="M585.675,1360.768L559.754,524.6c0-22.022,19.136-39.874,42.742-39.874h1323.758
	c23.606,0,42.743,17.852,42.743,39.874l-38.882,836.168c0,22.023-19.137,39.875-42.741,39.875H628.417
	C604.812,1400.643,585.675,1382.791,585.675,1360.768z"/>
<linearGradient id="SVGID_2_" gradientUnits="userSpaceOnUse" x1="1300.415" y1="1524.1328" x2="1257.8392" y2="868.9455">
	<stop  offset="0" style="stop-color:#0082C1"/>
	<stop  offset="1" style="stop-color:#8DDCFF"/>
</linearGradient>
<path opacity="0.32" fill="url(#SVGID_2_)" d="M1701.834,983.306c-160.607,282.481-440.376,157.894-820.942,99.667
	c-127.844-19.561-226.507,22.03-301.166,85.896l5.949,191.899c0,22.023,19.136,39.875,42.742,39.875h1258.958
	c23.604,0,42.741-17.852,42.741-39.875l26.647-573.055C1839.307,843.688,1744.063,909.03,1701.834,983.306z"/>
<g>
	<path fill="#AFD6FF" d="M1880.043,1350.131h-23.854c-0.715,0-1.295-0.579-1.295-1.295c0-0.715,0.58-1.296,1.295-1.296h21.379
		l0.337-7.225c0.031-0.713,0.658-1.329,1.354-1.231c0.713,0.032,1.268,0.638,1.231,1.354L1880.043,1350.131z M1825.104,1350.131
		h-31.085c-0.714,0-1.296-0.579-1.296-1.295c0-0.715,0.582-1.296,1.296-1.296h31.085c0.717,0,1.296,0.581,1.296,1.296
		C1826.399,1349.552,1825.82,1350.131,1825.104,1350.131z M1762.934,1350.131h-31.086c-0.715,0-1.295-0.579-1.295-1.295
		c0-0.715,0.58-1.296,1.295-1.296h31.086c0.717,0,1.295,0.581,1.295,1.296C1764.229,1349.552,1763.65,1350.131,1762.934,1350.131z
		 M1700.763,1350.131h-31.085c-0.716,0-1.296-0.579-1.296-1.295c0-0.715,0.58-1.296,1.296-1.296h31.085
		c0.717,0,1.296,0.581,1.296,1.296C1702.059,1349.552,1701.479,1350.131,1700.763,1350.131z M1638.592,1350.131h-31.085
		c-0.716,0-1.296-0.579-1.296-1.295c0-0.715,0.58-1.296,1.296-1.296h31.085c0.717,0,1.296,0.581,1.296,1.296
		C1639.888,1349.552,1639.309,1350.131,1638.592,1350.131z M1576.421,1350.131h-31.085c-0.715,0-1.295-0.579-1.295-1.295
		c0-0.715,0.58-1.296,1.295-1.296h31.085c0.716,0,1.296,0.581,1.296,1.296C1577.717,1349.552,1577.137,1350.131,1576.421,1350.131z
		 M1514.251,1350.131h-31.086c-0.715,0-1.295-0.579-1.295-1.295c0-0.715,0.58-1.296,1.295-1.296h31.086
		c0.716,0,1.295,0.581,1.295,1.296C1515.546,1349.552,1514.967,1350.131,1514.251,1350.131z M1452.08,1350.131h-31.086
		c-0.716,0-1.295-0.579-1.295-1.295c0-0.715,0.579-1.296,1.295-1.296h31.086c0.716,0,1.295,0.581,1.295,1.296
		C1453.375,1349.552,1452.796,1350.131,1452.08,1350.131z M1389.909,1350.131h-31.086c-0.716,0-1.294-0.579-1.294-1.295
		c0-0.715,0.578-1.296,1.294-1.296h31.086c0.716,0,1.295,0.581,1.295,1.296C1391.204,1349.552,1390.625,1350.131,1389.909,1350.131z
		 M1327.739,1350.131h-31.086c-0.716,0-1.295-0.579-1.295-1.295c0-0.715,0.579-1.296,1.295-1.296h31.086
		c0.716,0,1.294,0.581,1.294,1.296C1329.033,1349.552,1328.455,1350.131,1327.739,1350.131z M1265.568,1350.131h-31.086
		c-0.716,0-1.295-0.579-1.295-1.295c0-0.715,0.579-1.296,1.295-1.296h31.086c0.716,0,1.295,0.581,1.295,1.296
		C1266.863,1349.552,1266.284,1350.131,1265.568,1350.131z M1203.396,1350.131h-31.085c-0.717,0-1.295-0.579-1.295-1.295
		c0-0.715,0.579-1.296,1.295-1.296h31.085c0.716,0,1.295,0.581,1.295,1.296C1204.692,1349.552,1204.112,1350.131,1203.396,1350.131z
		 M1141.226,1350.131h-31.085c-0.716,0-1.294-0.579-1.294-1.295c0-0.715,0.579-1.296,1.294-1.296h31.085
		c0.715,0,1.295,0.581,1.295,1.296C1142.521,1349.552,1141.941,1350.131,1141.226,1350.131z M1079.057,1350.131h-31.086
		c-0.716,0-1.294-0.579-1.294-1.295c0-0.715,0.579-1.296,1.294-1.296h31.086c0.715,0,1.295,0.581,1.295,1.296
		C1080.352,1349.552,1079.772,1350.131,1079.057,1350.131z M1016.886,1350.131h-31.085c-0.716,0-1.295-0.579-1.295-1.295
		c0-0.715,0.579-1.296,1.295-1.296h31.085c0.715,0,1.294,0.581,1.294,1.296C1018.181,1349.552,1017.601,1350.131,1016.886,1350.131z
		 M954.715,1350.131H923.63c-0.717,0-1.295-0.579-1.295-1.295c0-0.715,0.579-1.296,1.295-1.296h31.085
		c0.716,0,1.295,0.581,1.295,1.296C956.01,1349.552,955.431,1350.131,954.715,1350.131z M892.544,1350.131h-31.085
		c-0.716,0-1.295-0.579-1.295-1.295c0-0.715,0.579-1.296,1.295-1.296h31.085c0.716,0,1.295,0.581,1.295,1.296
		C893.84,1349.552,893.26,1350.131,892.544,1350.131z M830.374,1350.131h-31.085c-0.716,0-1.295-0.579-1.295-1.295
		c0-0.715,0.579-1.296,1.295-1.296h31.085c0.715,0,1.295,0.581,1.295,1.296C831.669,1349.552,831.089,1350.131,830.374,1350.131z
		 M768.203,1350.131h-31.085c-0.716,0-1.295-0.579-1.295-1.295c0-0.715,0.579-1.296,1.295-1.296h31.085
		c0.716,0,1.295,0.581,1.295,1.296C769.499,1349.552,768.919,1350.131,768.203,1350.131z M706.033,1350.131h-31.085
		c-0.716,0-1.295-0.579-1.295-1.295c0-0.715,0.579-1.296,1.295-1.296h31.085c0.715,0,1.295,0.581,1.295,1.296
		C707.328,1349.552,706.748,1350.131,706.033,1350.131z M643.861,1350.131h-7.979l-1.001-32.324
		c-0.022-0.718,0.54-1.313,1.254-1.336c0.735,0.027,1.313,0.538,1.336,1.254l0.922,29.815h5.467c0.716,0,1.295,0.581,1.295,1.296
		C645.157,1349.552,644.577,1350.131,643.861,1350.131z M1880.644,1310.618c-0.021,0-0.042,0-0.063-0.002
		c-0.712-0.033-1.268-0.637-1.23-1.353l1.442-31.053c0.034-0.713,0.692-1.333,1.355-1.232c0.712,0.033,1.267,0.638,1.23,1.353
		l-1.443,31.054C1881.904,1310.078,1881.33,1310.618,1880.644,1310.618z M635.211,1287.991c-0.696,0-1.271-0.554-1.294-1.255
		l-0.961-31.072c-0.022-0.714,0.539-1.312,1.253-1.334c0.742,0.016,1.313,0.541,1.335,1.254l0.964,31.07
		c0.021,0.717-0.54,1.313-1.255,1.337C635.239,1287.991,635.225,1287.991,635.211,1287.991z M1883.531,1248.518
		c-0.021,0-0.04,0-0.061-0.004c-0.714-0.032-1.269-0.637-1.232-1.354l1.444-31.051c0.03-0.714,0.636-1.299,1.354-1.233
		c0.714,0.033,1.268,0.638,1.231,1.354l-1.443,31.053C1884.793,1247.976,1884.219,1248.518,1883.531,1248.518z M633.287,1225.851
		c-0.698,0-1.273-0.555-1.294-1.255l-0.964-31.07c-0.021-0.716,0.54-1.313,1.255-1.336c0.717,0,1.312,0.541,1.335,1.255l0.961,31.07
		c0.023,0.715-0.539,1.313-1.254,1.336C633.313,1225.851,633.298,1225.851,633.287,1225.851z M1886.418,1186.411
		c-0.021,0-0.041,0-0.061-0.002c-0.713-0.034-1.268-0.637-1.233-1.354l1.446-31.05c0.032-0.713,0.669-1.309,1.353-1.232
		c0.713,0.032,1.267,0.638,1.232,1.354l-1.445,31.05C1887.68,1185.871,1887.105,1186.411,1886.418,1186.411z M631.358,1163.706
		c-0.695,0-1.271-0.552-1.294-1.254l-0.962-31.069c-0.022-0.717,0.54-1.313,1.254-1.336c0.722,0.043,1.313,0.539,1.334,1.255
		l0.964,31.069c0.021,0.717-0.54,1.313-1.255,1.335C631.386,1163.706,631.373,1163.706,631.358,1163.706z M1889.308,1124.309
		c-0.021,0-0.041,0-0.062-0.003c-0.714-0.032-1.267-0.637-1.232-1.353l1.445-31.052c0.03-0.714,0.613-1.313,1.354-1.232
		c0.713,0.032,1.268,0.638,1.231,1.354l-1.444,31.054C1890.569,1123.768,1889.994,1124.309,1889.308,1124.309z M629.433,1101.567
		c-0.697,0-1.272-0.555-1.293-1.256l-0.963-31.068c-0.022-0.718,0.539-1.314,1.253-1.336c0.773-0.042,1.313,0.542,1.336,1.254
		l0.962,31.069c0.022,0.718-0.539,1.313-1.253,1.337C629.459,1101.567,629.446,1101.567,629.433,1101.567z M1892.193,1062.204
		c-0.021,0-0.041,0-0.062-0.003c-0.712-0.032-1.267-0.637-1.231-1.354l1.443-31.049c0.031-0.713,0.65-1.323,1.355-1.233
		c0.712,0.034,1.266,0.639,1.231,1.355l-1.443,31.048C1893.456,1061.662,1892.881,1062.204,1892.193,1062.204z M627.505,1039.428
		c-0.696,0-1.271-0.555-1.293-1.255l-0.963-31.071c-0.021-0.715,0.54-1.313,1.255-1.336c0.763-0.01,1.313,0.539,1.334,1.255
		l0.964,31.07c0.022,0.716-0.54,1.313-1.255,1.337C627.534,1039.428,627.519,1039.428,627.505,1039.428z M1895.082,1000.102
		c-0.021,0-0.041,0-0.061-0.002c-0.713-0.033-1.269-0.637-1.231-1.354l1.444-31.053c0.031-0.713,0.682-1.328,1.354-1.231
		c0.713,0.033,1.266,0.638,1.231,1.353l-1.444,31.054C1896.344,999.561,1895.771,1000.102,1895.082,1000.102z M625.579,977.287
		c-0.695,0-1.271-0.555-1.294-1.255l-0.961-31.07c-0.023-0.716,0.539-1.313,1.254-1.337c0.794-0.01,1.312,0.542,1.335,1.255
		l0.961,31.071c0.023,0.715-0.539,1.312-1.253,1.336C625.606,977.287,625.593,977.287,625.579,977.287z M1897.968,937.997
		c-0.02,0-0.04,0-0.06-0.002c-0.714-0.033-1.268-0.637-1.232-1.354l1.444-31.05c0.03-0.714,0.63-1.294,1.353-1.233
		c0.715,0.033,1.269,0.64,1.233,1.354l-1.446,31.053C1899.231,937.455,1898.657,937.997,1897.968,937.997z M623.653,915.146
		c-0.697,0-1.271-0.554-1.293-1.254l-0.964-31.071c-0.021-0.716,0.541-1.313,1.255-1.336c0.739,0.001,1.313,0.542,1.336,1.255
		l0.962,31.07c0.021,0.717-0.541,1.314-1.255,1.336C623.681,915.146,623.667,915.146,623.653,915.146z M1900.857,875.896
		c-0.021,0-0.04,0-0.062-0.002c-0.713-0.033-1.266-0.641-1.23-1.354l1.443-31.053c0.034-0.716,0.738-1.265,1.354-1.233
		c0.714,0.033,1.269,0.641,1.232,1.355l-1.445,31.053C1902.121,875.354,1901.546,875.896,1900.857,875.896z M621.726,853.005
		c-0.695,0-1.271-0.554-1.293-1.255l-0.962-31.07c-0.022-0.716,0.539-1.313,1.254-1.334c0.729-0.077,1.313,0.538,1.335,1.252
		l0.962,31.071c0.023,0.717-0.539,1.313-1.253,1.335C621.754,853.005,621.74,853.005,621.726,853.005z M1903.747,813.791
		c-0.021,0-0.041,0-0.063-0.001c-0.712-0.033-1.266-0.641-1.231-1.354l1.442-31.052c0.033-0.715,0.609-1.265,1.354-1.234
		c0.712,0.032,1.267,0.639,1.232,1.354l-1.444,31.054C1905.008,813.249,1904.434,813.791,1903.747,813.791z M619.8,790.863
		c-0.697,0-1.271-0.555-1.293-1.255l-0.963-31.07c-0.021-0.716,0.54-1.313,1.255-1.336c0.719,0.01,1.312,0.54,1.335,1.255
		l0.962,31.07c0.022,0.716-0.54,1.313-1.254,1.336C619.829,790.863,619.814,790.863,619.8,790.863z M1906.634,751.688
		c-0.021,0-0.042,0-0.062-0.002c-0.714-0.032-1.269-0.639-1.231-1.354l1.444-31.052c0.029-0.714,0.642-1.272,1.354-1.234
		c0.713,0.033,1.267,0.64,1.231,1.355l-1.444,31.052C1907.895,751.146,1907.32,751.688,1906.634,751.688z M617.874,728.723
		c-0.696,0-1.271-0.554-1.294-1.255l-0.962-31.07c-0.022-0.716,0.54-1.313,1.254-1.335c0.701-0.015,1.313,0.539,1.335,1.253
		l0.964,31.07c0.021,0.715-0.541,1.313-1.255,1.334C617.901,728.723,617.887,728.723,617.874,728.723z M1909.521,689.584
		c-0.019,0-0.04,0-0.06-0.001c-0.715-0.033-1.269-0.64-1.233-1.354l1.443-31.052c0.032-0.714,0.678-1.28,1.353-1.234
		c0.713,0.033,1.267,0.64,1.233,1.353l-1.443,31.053C1910.784,689.042,1910.211,689.584,1909.521,689.584z M615.947,666.582
		c-0.695,0-1.271-0.554-1.292-1.254l-0.963-31.072c-0.022-0.716,0.539-1.313,1.253-1.335c0.776-0.033,1.312,0.542,1.336,1.255
		l0.961,31.071c0.023,0.716-0.539,1.313-1.253,1.335C615.975,666.582,615.961,666.582,615.947,666.582z M1912.409,627.48
		c-0.021,0-0.041,0-0.062-0.001c-0.713-0.033-1.268-0.64-1.232-1.355l1.445-31.052c0.031-0.713,0.62-1.287,1.354-1.233
		c0.713,0.033,1.268,0.64,1.23,1.355l-1.443,31.051C1913.671,626.939,1913.096,627.48,1912.409,627.48z M614.021,604.441
		c-0.695,0-1.271-0.554-1.293-1.255l-0.964-31.07c-0.021-0.716,0.54-1.313,1.255-1.335c0.693-0.063,1.313,0.539,1.333,1.254
		l0.965,31.07c0.022,0.714-0.54,1.313-1.255,1.335C614.05,604.441,614.036,604.441,614.021,604.441z M1915.3,565.376
		c-0.022,0-0.043,0-0.063-0.001c-0.712-0.033-1.268-0.64-1.232-1.354l1.217-26.192h-2.152c-0.716,0-1.296-0.579-1.296-1.295
		s0.58-1.295,1.296-1.295h4.864l-1.342,28.902C1916.56,564.835,1915.984,565.376,1915.3,565.376z M612.097,542.3
		c-0.697,0-1.272-0.554-1.294-1.254l-0.181-5.807h27.949c0.715,0,1.295,0.579,1.295,1.295s-0.58,1.295-1.295,1.295h-25.277
		l0.097,3.136c0.023,0.714-0.539,1.312-1.254,1.335C612.124,542.3,612.11,542.3,612.097,542.3z M1881.982,537.83h-31.086
		c-0.715,0-1.295-0.579-1.295-1.295s0.58-1.295,1.295-1.295h31.086c0.716,0,1.295,0.579,1.295,1.295
		S1882.698,537.83,1881.982,537.83z M1819.812,537.83h-31.085c-0.716,0-1.295-0.579-1.295-1.295s0.579-1.295,1.295-1.295h31.085
		c0.718,0,1.295,0.579,1.295,1.295S1820.529,537.83,1819.812,537.83z M1757.641,537.83h-31.085c-0.715,0-1.295-0.579-1.295-1.295
		s0.58-1.295,1.295-1.295h31.085c0.717,0,1.295,0.579,1.295,1.295S1758.357,537.83,1757.641,537.83z M1695.471,537.83h-31.086
		c-0.715,0-1.295-0.579-1.295-1.295s0.58-1.295,1.295-1.295h31.086c0.717,0,1.295,0.579,1.295,1.295
		S1696.188,537.83,1695.471,537.83z M1633.3,537.83h-31.086c-0.714,0-1.294-0.579-1.294-1.295s0.58-1.295,1.294-1.295h31.086
		c0.716,0,1.295,0.579,1.295,1.295S1634.016,537.83,1633.3,537.83z M1571.13,537.83h-31.086c-0.715,0-1.295-0.579-1.295-1.295
		s0.58-1.295,1.295-1.295h31.086c0.717,0,1.294,0.579,1.294,1.295S1571.847,537.83,1571.13,537.83z M1508.959,537.83h-31.086
		c-0.716,0-1.295-0.579-1.295-1.295s0.579-1.295,1.295-1.295h31.086c0.716,0,1.295,0.579,1.295,1.295
		S1509.675,537.83,1508.959,537.83z M1446.787,537.83h-31.085c-0.717,0-1.296-0.579-1.296-1.295s0.579-1.295,1.296-1.295h31.085
		c0.717,0,1.296,0.579,1.296,1.295S1447.504,537.83,1446.787,537.83z M1384.616,537.83h-31.084c-0.717,0-1.296-0.579-1.296-1.295
		s0.579-1.295,1.296-1.295h31.084c0.718,0,1.296,0.579,1.296,1.295S1385.334,537.83,1384.616,537.83z M1322.446,537.83h-31.085
		c-0.717,0-1.296-0.579-1.296-1.295s0.579-1.295,1.296-1.295h31.085c0.717,0,1.296,0.579,1.296,1.295
		S1323.163,537.83,1322.446,537.83z M1260.275,537.83h-31.083c-0.716,0-1.294-0.579-1.294-1.295s0.579-1.295,1.294-1.295h31.083
		c0.717,0,1.296,0.579,1.296,1.295S1260.992,537.83,1260.275,537.83z M1198.107,537.83h-31.085c-0.716,0-1.295-0.579-1.295-1.295
		s0.58-1.295,1.295-1.295h31.085c0.716,0,1.295,0.579,1.295,1.295S1198.823,537.83,1198.107,537.83z M1135.936,537.83h-31.085
		c-0.717,0-1.295-0.579-1.295-1.295s0.579-1.295,1.295-1.295h31.085c0.716,0,1.295,0.579,1.295,1.295
		S1136.652,537.83,1135.936,537.83z M1073.766,537.83h-31.085c-0.716,0-1.295-0.579-1.295-1.295s0.579-1.295,1.295-1.295h31.085
		c0.716,0,1.295,0.579,1.295,1.295S1074.481,537.83,1073.766,537.83z M1011.595,537.83H980.51c-0.716,0-1.295-0.579-1.295-1.295
		s0.579-1.295,1.295-1.295h31.085c0.715,0,1.295,0.579,1.295,1.295S1012.31,537.83,1011.595,537.83z M949.424,537.83h-31.086
		c-0.716,0-1.294-0.579-1.294-1.295s0.579-1.295,1.294-1.295h31.086c0.715,0,1.295,0.579,1.295,1.295S950.14,537.83,949.424,537.83z
		 M887.253,537.83h-31.085c-0.716,0-1.295-0.579-1.295-1.295s0.58-1.295,1.295-1.295h31.085c0.716,0,1.295,0.579,1.295,1.295
		S887.969,537.83,887.253,537.83z M825.083,537.83h-31.085c-0.716,0-1.295-0.579-1.295-1.295s0.579-1.295,1.295-1.295h31.085
		c0.716,0,1.295,0.579,1.295,1.295S825.798,537.83,825.083,537.83z M762.912,537.83h-31.085c-0.716,0-1.295-0.579-1.295-1.295
		s0.579-1.295,1.295-1.295h31.085c0.716,0,1.295,0.579,1.295,1.295S763.628,537.83,762.912,537.83z M700.742,537.83h-31.085
		c-0.716,0-1.295-0.579-1.295-1.295s0.579-1.295,1.295-1.295h31.085c0.716,0,1.295,0.579,1.295,1.295S701.458,537.83,700.742,537.83
		z"/>
</g>
<linearGradient id="SVGID_3_" gradientUnits="userSpaceOnUse" x1="1383.9375" y1="1393.8184" x2="1399.4802" y2="658.132">
	<stop  offset="0" style="stop-color:#6EA7E8"/>
	<stop  offset="1" style="stop-color:#9AD2FF"/>
</linearGradient>
<path fill="url(#SVGID_3_)" d="M1222.601,665.853c0,0,18.414,186.511,10.502,249.978l-45.473,481.822h392.453
	c0,0-22.02-410.585-22.02-441.671c0-31.085-6.476-290.129-6.476-290.129l-61.523-31.085l-154.778-1.942L1222.601,665.853z"/>
<g>
	<path fill="#87A2C2" d="M1328.811,635.739l-77.46,21.688c0,0,31.012,154.846,49.516,173.351
		c18.505,18.506-3.142,32.381,12.4,47.923c15.544,15.544,101.676,132.329,101.676,132.329L1328.811,635.739z"/>
	<path fill="#87A2C2" d="M1493.951,640.813l-79.009,370.217c0,0,84.004-148.458,91.189-155.643c7.185-7.186,0-37.561,0-51.809
		s44.68-138.116,44.68-138.116S1510.019,640.813,1493.951,640.813z"/>
</g>
<g>
	<path fill="#BADCFF" d="M1335.286,632.825l-82.895,8.418c0,0,29.971,152.465,48.475,170.97c18.505,18.504-3.142,32.38,12.4,47.923
		c15.544,15.542,101.676,150.893,101.676,150.893L1335.286,632.825z"/>
	<path fill="#BADCFF" d="M1490.064,634.768l-75.122,376.262c0,0,84.004-167.021,91.189-174.207c7.185-7.186,0-37.561,0-51.809
		c0-14.247,45.456-132.112,45.456-132.112S1506.132,634.768,1490.064,634.768z"/>
</g>
<polygon fill="#7696B5" points="1403.933,1397.653 1414.942,1011.029 1412.676,1397.653 "/>
<rect x="1150.068" y="1449.463" fill="#8088C2" width="295.312" height="31.086"/>
<polygon fill="#8792CE" points="1420.117,1624.106 1175.33,1624.106 1167.554,1480.549 1427.895,1480.549 "/>
<path opacity="0.28" fill="#370C62" d="M1427.895,1480.549h-260.34l7.776,143.558h32.192c3.166-22.341,9.478-46.141,21.555-65.237
	c21.828-34.515,129.56-48.081,197.458-53.258L1427.895,1480.549z"/>
<path fill="#676E9C" d="M1640.959,1701.821H975.213l0,0c0-42.92,34.793-77.715,77.713-77.715h510.318
	C1606.164,1624.106,1640.959,1658.901,1640.959,1701.821L1640.959,1701.821z"/>
<path fill="#FD5E5A" d="M922.978,685.234l-22.618-80.976l-99.402,25.49c0,0,14.173,44.104,24.069,50.159
	c7.282,4.455,29.211,17.873,40.298,24.656l0,0l88.865,176.281l63.94-78.989L922.978,685.234z"/>
<path fill="#26004A" d="M1392.905,231.761c0,0,75.771-9.267,108.151,6.179c32.38,15.446,95.846,77.845,79.009,198.938
	c0,0,13.599,4.325,17.485,22.859c3.885,18.535,4.209,51.588-27.848,82.17c-32.057,30.582-86.133,27.184-113.98,27.184
	c-27.847,0-106.207-23.477-126.283-66.725S1392.905,231.761,1392.905,231.761z"/>
<path fill="#130025" d="M1429.604,249.369c-20.32-1.915-37.251,7.421-50.854,22.745c-17.194,50.599-44.7,137.168-51.075,190.587
	c2.813,21.492,9.905,42.804,20.131,59.671c1.781,2.937,3.647,5.74,5.597,8.41c26.854,21.12,66.373,33.887,90.637,37.348
	c75.532-10.151,96.78-79.901,94.901-156.785c-0.51-20.714,14.301-85.211-17.76-126.888
	C1499.641,256.458,1462.531,246.125,1429.604,249.369z"/>
<path fill="#FC7575" d="M1354.066,514.312c0,0,3.887,52.457,0,76.418c-3.886,23.961-18.78,42.095-18.78,42.095l79.656,378.204
	l75.122-376.262c0,0-18.648-11.432-23.961-44.038c-5.314-32.606-5.182-116.57-5.182-116.57L1354.066,514.312z"/>
<path fill="#00158E" d="M1414.942,1011.029l58.477-292.895c-44.59,4.854-88.821-0.756-121.751-7.525L1414.942,1011.029z"/>
<path fill="#000F6B" d="M1473.419,718.135c-0.415,0.045-0.829,0.088-1.245,0.132c-14.643,59.836-48.088,192.499-59.498,203.909
	c-10.955,10.956-44.377-135.208-60.935-211.551c-0.024-0.005-0.049-0.01-0.073-0.015l63.274,300.419L1473.419,718.135z"/>
<path opacity="0.53" fill="#FD5E5A" d="M1370.884,507.993c11.438,44.581,39.169,86.432,91.954,72.555
	c0.638-0.168,1.252-0.362,1.878-0.545c-3.902-37.269-3.794-105.842-3.794-105.842L1370.884,507.993z"/>
<path fill="#FC7575" d="M1444.066,259.801c0,0,45.98-7.124,71.237,29.79c25.257,36.914,13.6,99.084,13.6,114.627
	c0,15.542,7.448,128.227-66.065,145.712c-73.514,17.486-98.428-62.818-98.428-111.389S1382.46,265.876,1444.066,259.801z"/>
<path opacity="0.53" fill="#FD5E5A" d="M1393.263,303.146c-2.581,5.613-4.986,11.565-7.21,17.752
	c25.446-7.669,51.313-13.623,77.128-17.699c10.387,35.917,32.311,60.572,68.331,60.572c0.341-14.347-0.385-30.475-4.056-45.603
	C1485.3,300.914,1437.476,276.24,1393.263,303.146z"/>
<path fill="#FC7575" d="M908.155,609.264c-0.884-1.088-74.449-71.11-89-66.728c-24.207,6.311,29.593,46.456,35.417,53.984
	c2.91,3.762,5.516,8.49,7.761,12.969c-1.906,0.546-3.69,1.04-5.294,1.426c-13.851,3.335-50.823,10.24-56.082,18.833
	c0,0-0.995,48.423,11.726,48.69c12.72,0.268,25.588-4.386,39.242-3.01c6.827,0.688,13.846-2.668,19.158-6.196
	c0.853-0.566,1.657-1.136,2.414-1.696c-1.763,2.97-2.22,6.31-0.425,9.958c6.522,13.253,51.643-9.604,53.602-18.068
	C928.632,650.96,918.568,622.077,908.155,609.264z M897.828,653.049c-4.148,1-12.121,3.863-18.132,8.167
	c-1.741-4.568-10.371-27.856-8.951-37.146c0.002-0.002,0.006-0.003,0.009-0.006c6.282-6.641,20.001-6.836,26.715-3.961l0,0
	c0.892,0.822,1.54,1.896,1.873,3.273C901.464,632.19,906.013,651.079,897.828,653.049z"/>
<path fill="#BADCFF" d="M902.681,791.49c0,0,104.913,269.406,145.065,290.129c40.152,20.724,187.309-203.369,187.309-203.369
	s5.68-212.397-12.453-212.397s-92.682,88.672-114.129,142.01c-21.819,54.259-21.051,81.68-50.364,28.959
	c-29.947-53.86-82.57-126.212-82.57-126.212C945.315,740.832,902.681,791.49,902.681,791.49z"/>
<path fill="#320063" d="M1501.057,238.43c0,0-25.905-3.238-41.447,9.066c-15.543,12.305-49.866,18.133-69.942,113.332
	s-3.886,106.208-3.886,106.208s21.338,44.038-6.169,77.714c-27.507,33.676-81.48,20.951-111.696,3.238
	c-43.947-25.762-36.126-115.115-17.629-173.574c2.583-8.161,3.859-13.007,6.874-19.829c5.807-13.144,7.731-28.264,16.133-42.086
	c27.202-44.748,76.723-85.643,164.297-83.435C1437.59,229.063,1477.095,226.772,1501.057,238.43z"/>
<g>
	<path fill="#130025" d="M1259.103,347.367c-5.465,16.403-4.688,13.998-8.816,27.047c-0.878,2.776-1.733,5.624-2.558,8.529
		c17.229-9.944,20.616-12.679,40.286-22.741c36.129-18.42,74.758-33.242,114.152-43.917c0.789-2.122,1.587-4.165,2.393-6.138
		C1354.002,314.893,1303.807,324.03,1259.103,347.367z"/>
</g>
<path fill="#00B3BF" d="M1270.103,314.156c96.087-50.247,160.664-54.773,270.796-47.597v26.527
	c-92.466,0.342-183.827,25.467-260.626,64.626c-20.652,10.565-31.72,17.782-31.821,17.839L1270.103,314.156z"/>
<ellipse fill="#8792CE" cx="1537.484" cy="283.122" rx="72.769" ry="77.81"/>
<ellipse fill="#EAE9F3" cx="1539.702" cy="283.122" rx="70.551" ry="77.81"/>
<g>
	<ellipse fill="#7881B6" cx="1537.484" cy="283.122" rx="72.769" ry="77.81"/>
	<ellipse fill="#6CBDE1" cx="1539.702" cy="283.122" rx="70.551" ry="77.81"/>
	<path fill="#EAE9F3" d="M1512.771,268.269c0-25.861,11.441-48.771,29.045-62.919c-0.703-0.022-1.407-0.038-2.115-0.038
		c-38.963,0-70.55,34.837-70.55,77.81c0,42.974,31.587,77.81,70.55,77.81c15.518,0,29.859-5.528,41.507-14.89
		C1543.223,344.808,1512.771,310.462,1512.771,268.269z"/>
</g>
<ellipse fill="#8792CE" cx="1540.898" cy="279.822" rx="10.476" ry="11.552"/>
<g>
	<path fill="#2C46E6" d="M725.017,636.065c-0.953,0-1.915-0.279-2.758-0.86c-2.21-1.526-2.766-4.555-1.24-6.765l184.552-267.433
		c1.526-2.212,4.554-2.767,6.765-1.241c2.211,1.525,2.766,4.554,1.241,6.765L729.024,633.965
		C728.08,635.332,726.561,636.065,725.017,636.065z"/>
</g>
<g>
	<path fill="#2C46E6" d="M408.373,973.15c-1.19,0-2.383-0.435-3.321-1.312c-1.962-1.835-2.065-4.913-0.229-6.874L711.136,637.49
		c1.833-1.962,4.911-2.064,6.874-0.229c1.961,1.834,2.064,4.911,0.229,6.874L411.926,971.609
		C410.968,972.633,409.672,973.15,408.373,973.15z"/>
</g>
<g>
	<path fill="#2C46E6" d="M714.684,645.676c-0.981,0-1.972-0.295-2.83-0.91L465.477,468.17c-2.183-1.565-2.684-4.604-1.12-6.786
		c1.565-2.183,4.603-2.684,6.786-1.119l246.377,176.594c2.183,1.565,2.684,4.604,1.12,6.786
		C717.69,644.971,716.198,645.676,714.684,645.676z"/>
</g>
<g>
	<path fill="#2C46E6" d="M846.095,1209.205c-2.209,0-4.208-1.516-4.731-3.759L709.951,641.917c-0.61-2.616,1.017-5.232,3.632-5.841
		c2.615-0.606,5.231,1.017,5.841,3.631l131.411,563.529c0.61,2.617-1.016,5.23-3.632,5.842
		C846.832,1209.164,846.461,1209.205,846.095,1209.205z"/>
</g>
<circle fill="#2C46E6" cx="714.688" cy="640.813" r="54.708"/>
<circle fill="#BADCFF" cx="714.688" cy="638.112" r="34.865"/>
<g>
	<path fill="#BADCFF" d="M457.377,587.601H224.116c-13.983,0-25.32-11.335-25.32-25.32V366.154c0-13.984,11.336-25.32,25.32-25.32
		h233.261c13.983,0,25.32,11.336,25.32,25.32V562.28C482.697,576.265,471.361,587.601,457.377,587.601z"/>
	<path fill="#2C46E6" d="M468.597,343.455c1.676,3.383,2.622,7.19,2.622,11.22v196.127c0,13.983-11.335,25.32-25.32,25.32H212.637
		c-4.03,0-7.837-0.946-11.22-2.621c4.138,8.354,12.746,14.1,22.699,14.1h233.261c13.983,0,25.32-11.335,25.32-25.32V366.154
		C482.697,356.201,476.951,347.592,468.597,343.455z"/>
</g>
<g>
	<path fill="#BADCFF" d="M457.377,1073.473H224.116c-13.983,0-25.32-11.338-25.32-25.321V852.025
		c0-13.984,11.336-25.321,25.32-25.321h233.261c13.983,0,25.32,11.337,25.32,25.321v196.126
		C482.697,1062.135,471.361,1073.473,457.377,1073.473z"/>
	<path fill="#2C46E6" d="M468.597,829.325c1.676,3.384,2.622,7.19,2.622,11.222v196.127c0,13.983-11.335,25.318-25.32,25.318
		H212.637c-4.03,0-7.837-0.945-11.22-2.62c4.138,8.354,12.746,14.101,22.699,14.101h233.261c13.983,0,25.32-11.338,25.32-25.321
		V852.025C482.697,842.071,476.951,833.464,468.597,829.325z"/>
</g>
<g>
	<path fill="#BADCFF" d="M763.048,406.505h269.831c14.936,0,27.045-12.108,27.045-27.045V186.785
		c0-14.938-12.109-27.046-27.045-27.046H763.048c-14.937,0-27.046,12.109-27.046,27.046V379.46
		C736.002,394.397,748.111,406.505,763.048,406.505z"/>
	<path fill="#2C46E6" d="M752.09,162.359c-1.912,3.383-2.991,7.19-2.991,11.221v196.127c0,13.983,12.935,25.32,28.889,25.32h266.144
		c4.598,0,8.943-0.946,12.801-2.621c-4.72,8.354-14.541,14.1-25.898,14.1H764.891c-15.955,0-28.889-11.335-28.889-25.319V185.058
		C736.002,175.104,742.559,166.497,752.09,162.359z"/>
</g>
<g>
	<path fill="#BADCFF" d="M729.014,1119.355h269.832c14.937,0,27.045,12.108,27.045,27.046v192.676
		c0,14.937-12.108,27.046-27.045,27.046H729.014c-14.937,0-27.046-12.109-27.046-27.046v-192.676
		C701.968,1131.464,714.078,1119.355,729.014,1119.355z"/>
	<path fill="#2C46E6" d="M718.057,1363.501c-1.912-3.382-2.991-7.189-2.991-11.22v-196.127c0-13.984,12.934-25.32,28.889-25.32
		h266.144c4.598,0,8.943,0.945,12.801,2.621c-4.72-8.354-14.541-14.1-25.898-14.1H730.858c-15.956,0-28.89,11.336-28.89,25.319
		v196.128C701.968,1350.756,708.525,1359.365,718.057,1363.501z"/>
</g>
<g>
	<circle fill="#7686E6" cx="293.187" cy="414.813" r="8.374"/>
	<circle fill="#7686E6" cx="390.241" cy="391.272" r="5.262"/>
	<path fill="#7686E6" d="M335.256,542.423c-40.261,0-73.016-32.753-73.016-73.014c0-18.136,6.656-35.49,18.739-48.863l1.839-2.033
		l1.354,2.384c0.812,1.43,1.966,2.663,3.338,3.564l1.917,1.26l-1.524,1.714c-10.261,11.529-15.912,26.434-15.912,41.974
		c0,34.885,28.38,63.264,63.264,63.264c33.131,0,60.498-25.449,63.068-58.257c-12.162-2.39-21.114-13.122-21.114-25.693v-46.476
		l5.653-8.618l1.706,2.143c0.964,1.214,2.314,2.101,3.8,2.499l2.646,0.71l-4.055,6.179v43.563c0,9.062,7.373,16.434,16.435,16.434
		s16.435-7.372,16.435-16.434v-43.41l-4.668-6.301l2.601-0.86c1.461-0.483,2.759-1.445,3.654-2.709l1.58-2.236l6.584,8.888v46.629
		c0,12.729-9.125,23.522-21.486,25.761C405.471,512.711,373.786,542.423,335.256,542.423z"/>
	<circle fill="#7686E6" cx="415.497" cy="391.272" r="5.262"/>
	<polygon fill="#7686E6" points="365.419,454.599 345.616,454.599 345.616,434.794 323.757,434.794 323.757,454.599 
		303.953,454.599 303.953,476.457 323.757,476.457 323.757,496.261 345.616,496.261 345.616,476.457 365.419,476.457 	"/>
</g>
<g>
	<g>
		<path fill="#7686E6" d="M946.856,286.8h-6.32l-13.099-18.064l-9.898,40.763l-7.623-70.733l-20.485,46.085l-8.985-16.336
			l-11.472,20.582l-15.624-19.104l-7.038,34.784l-6.604-59.797l-22.478,40.591h-54.057c-1.359,0-2.46,1.102-2.46,2.461l0,0
			c0,1.358,1.102,2.459,2.46,2.459h59.323l12.261-22.143l9.358,84.735l13.618-67.311l12.542,15.338l10.123-18.165l9.792,17.799
			l15.193-34.178l9.276,86.101l16.391-67.483l4.74,6.537h14.362C948.891,290.042,947.799,288.399,946.856,286.8z"/>
		<path fill="#FD6100" d="M994.684,253.728c0,0,8.395-11.637,24.983-11.637c14.79,0,24.983,11.947,24.983,25.86
			c0,16.104-13.895,35.158-49.966,51.72c-36.07-16.562-49.964-35.615-49.964-51.72c0-13.913,10.193-25.86,24.982-25.86
			C986.29,242.091,994.684,253.728,994.684,253.728z"/>
	</g>
</g>
<g>
	<path opacity="0.66" fill="#FFFFFF" d="M923.441,1283.076l-128.554-16.455c-8.17-1.045-13.944-8.516-12.898-16.686l8.699-67.967
		c1.046-8.168,8.517-13.943,16.685-12.897l128.555,16.456c8.168,1.045,13.944,8.517,12.897,16.685l-8.7,67.967
		C939.081,1278.348,931.61,1284.124,923.441,1283.076z"/>
	<path fill="#7686E6" d="M844.998,1195.188l-3.508-7.908c-1.016-2.291-3.284-3.767-5.789-3.767h-59.327
		c-3.497,0-6.332,2.834-6.332,6.333v40.283h0.104v75.926c0,3.498,2.835,6.333,6.333,6.333h175.006c3.498,0,6.333-2.835,6.333-6.333
		v-100.767c0-3.499-2.835-6.334-6.333-6.334H850.786C848.282,1198.955,846.013,1197.479,844.998,1195.188z"/>
	<circle fill="#EAE9F3" cx="867.208" cy="1256.934" r="34.962"/>
	<polygon fill="#FD6100" points="894.449,1247.392 876.895,1247.392 876.895,1229.838 857.52,1229.838 857.52,1247.392 
		839.966,1247.392 839.966,1266.768 857.52,1266.768 857.52,1284.322 876.895,1284.322 876.895,1266.768 894.449,1266.768 	"/>
</g>
<g>
	<circle fill="#00B3BF" cx="326.928" cy="911.786" r="17.378"/>
	<rect x="353.394" y="934.735" fill="#7686E6" width="25.176" height="24.228"/>
	<rect x="357.117" y="960.372" fill="#7686E6" width="17.73" height="6.811"/>
	<path fill="#7686E6" d="M350.603,914.623c0-5.476-1.668-10.568-4.524-14.797V883.11c4.021,0,7.281-3.26,7.281-7.28v-13.269h25.245
		v13.269c0,4.021,3.259,7.28,7.28,7.28v43.006c0,3.751-3.04,6.792-6.791,6.792h-26.223c-2.852,0-5.292-1.757-6.298-4.248
		C349.125,924.587,350.603,919.774,350.603,914.623z"/>
	<rect x="347.312" y="853.638" fill="#7686E6" width="37.34" height="8.924"/>
	<path fill="#7686E6" d="M297.701,912.096c-0.079,0.831-0.12,1.675-0.12,2.527c0,12.709,8.992,23.358,20.949,25.923
		c-3.7,2.638-6.589,6.219-8.276,10.703c-2.92,7.761-1.53,16.493,2.011,23.802c4.233,8.736,11.51,15.702,19.83,20.554l-3.14,11.069
		C285.463,994.32,266.985,946.078,297.701,912.096z"/>
	<rect x="308.728" y="995.245" fill="#7686E6" width="36.4" height="24.422"/>
	<path fill="#8088C2" d="M278.356,1032.702h135.11v-4.033c0-4.971-4.029-9.002-9.001-9.002H287.356c-4.971,0-9,4.031-9,9.002
		V1032.702z"/>
	<rect x="331.429" y="975.596" fill="#FFFFFF" width="69.512" height="12.214"/>
</g>
<path fill="#BADCFF" d="M1550.812,665.462c0,0-13.341,148.046,6.821,260.792c5.065,28.327,83.274,40.9,126.009,73.073
	c71.226,53.623,120.874,125.997,133.534,154.757c28.872-13.026,28.697-143.055,12.892-194.699
	C1812.881,925.058,1550.812,665.462,1550.812,665.462z"/>
<polygon fill="#00158E" points="1966.774,851.999 1691.256,818.685 1518.673,1147.501 1742.122,1147.501 "/>
<path opacity="0.44" fill="#000F6B" d="M1742.122,1147.501l224.652-295.502l-275.519-33.314l-4.92,9.375
	c43.074,11.277,126.408,37.71,138.778,75.978c13.214,40.872-82.966,184.15-124.634,243.464H1742.122z"/>
<polygon fill="#0021DB" points="1681.122,803.726 1505.512,1141.624 1518.673,1147.501 1691.256,818.685 1966.774,851.999 
	1949.988,838.848 "/>
<g>
	<polygon fill="#FC7575" points="2170.615,796.441 2186.046,855.36 2235.646,836.148 2226.732,783.966 	"/>
	<g>
		<path fill="#FC7575" d="M1949.049,662.909c-4.265-6.093-33.32-43.349-38.271-39.886c-4.95,3.463,12.929,28.531,15.592,32.34
			c0,0-10.203-0.803-15.23,10.656c-3.371,7.68,17.814,44.245,26.693,58.776c7.752-2.425,19.199-11.702,18.807-19.7
			C1956.66,690.034,1952.316,667.58,1949.049,662.909z"/>
		<path opacity="0.53" fill="#FD5E5A" d="M2213.948,786.808l-43.333,9.633l5.623,21.472c10.847-1.907,22.192-7.798,28.978-19.472
			C2206.922,795.502,2210.318,791.439,2213.948,786.808z"/>
		<polygon fill="#FC7575" points="2156.108,1679.647 2150.146,1713.408 2123.577,1715.304 2128.105,1656.125 		"/>
		<path fill="#00123F" d="M2154.77,1708.21c0,0-24.568,0.44-29.945-3.808c-5.378-4.248-11.07,3.96-19.761,14.961
			c-8.688,11-41.112,9.666-45.069,18.337c-2.996,6.567,93.233,4.635,98.099,4.498C2161.518,1742.1,2154.77,1708.21,2154.77,1708.21z
			"/>
		<polygon fill="#FC7575" points="2228.243,1674.366 2222.282,1708.128 2195.714,1710.025 2200.24,1650.845 		"/>
		<path fill="#00123F" d="M2226.905,1702.928c0,0-24.567,0.443-29.945-3.807c-5.378-4.247-11.069,3.96-19.761,14.96
			c-8.69,11.003-39.332,12.601-43.658,21.095c-4.328,8.491,92.438,7.118,94.562,4.43
			C2230.229,1736.916,2226.905,1702.928,2226.905,1702.928z"/>
		<path fill="#03257D" d="M2171.979,1215.034l2.786,241.627l18.8,234.959l35.247,6.017c0,0,29.354-415.083,59.732-460.941
			c30.346-45.81-4.037-121.453-4.188-121.591c-0.003-0.002-0.003,0.002-0.004,0.003L2171.979,1215.034z"/>
		<path fill="#001B5E" d="M2271.912,1228.446c13.067-19.726,22.717-45.883,20.293-75.65c-0.784-9.644-16.264-20.333-18.208-28.479
			l-102.018,90.718l2.786,241.627l10.471,130.863c18.807-112.722,53.761-274.602,60.772-320.961
			C2248.999,1262.41,2258.983,1247.965,2271.912,1228.446z"/>
		<path fill="#0021DB" d="M2131.44,1102.127c0,0-17.91,220.485-19.354,294.173c-1.476,75.3,7.982,301.151,7.982,301.151
			l41.502,0.186c0,0,61.631-367.391,71.917-436.086c0,0-5.872,9.893,24.507-35.966c30.345-45.811,8.122-110.343,7.971-110.48
			c-0.002-0.002-53.964,20.144-53.967,20.145L2131.44,1102.127z"/>
		<path fill="#BE4800" d="M2318.547,995.133l-38.304,64.288l16.687,38.281c0,0,101.649-79.97,92.912-101.886
			c-7.356-18.453-108.94-127.514-136.384-157.472c-4.973-5.427-12.667-7.351-19.624-4.941l-47.119,16.329
			C2186.715,849.732,2322.705,980.979,2318.547,995.133z"/>
		<g>
			<path fill="#FD7B2A" d="M2145.443,832.667c0,0-12.08,310.182-43.031,373.065c0,0,140.428-20.696,204.882-20.681
				c0,0-1.523-262.734-32.678-321.017C2243.46,805.752,2175.751,816.467,2145.443,832.667z"/>
		</g>
		<path fill="#AB3400" d="M2216.435,947.007c30.061-15.973,39.716-38.044,40.288-66.136c0.417-20.431-68.142-9.754-113.217-6.933
			c-0.83,15.94-1.935,35.61-3.336,57.4C2157.474,950.314,2194.695,958.558,2216.435,947.007z"/>
		<path fill="#FD7B2A" d="M1986.877,845.738c0,0,97.225,83.332,174.734,80.2c77.511-3.131,87.655-21.762,94.31-42.43
			c6.654-20.666-37.524-48.994-81.83-57.493c-44.305-8.499-123.31-7.646-135.455-18.849
			c-12.146-11.201-74.479-95.319-79.739-109.958l-37.592,15.994L1986.877,845.738z"/>
		<path fill="#FC7575" d="M2190.782,700.434c0,0-13.161,6.506-24.351,23.124c-11.187,16.617-23.224,25.528-23.224,25.528
			l5.266,8.484c0,0-11.981,8.646-10.834,21.796c2.53,28.974,47.324,34.057,69.625,17.239c6.062-4.573,24.854-10.306,31-20.617
			C2254.725,748.365,2249.883,705.854,2190.782,700.434z"/>
		<path fill="#320063" d="M2212.726,762.409c0,0-14.901-27.595-7.868-47.01c0,0-16.307-0.317-29.387-7.711
			c-23.602-13.341,5.086-62.987,40.534-27.595c0,0-3.048-24.006,22.062-19.724c25.108,4.282,34.282,14.299,29.752,38.145
			c-4.527,23.845,5.875,13.285,13.515,27.21s-32.608,63.961-51.442,65.807c-18.833,1.846-18.833,1.846-18.833,1.846
			s26.887-15.062,19.343-26.464C2222.858,755.509,2212.726,762.409,2212.726,762.409z"/>
	</g>
</g>
<path fill="#FC7575" d="M1631.446,1033.988c5.012-4.001,46.965,22.064,71.061,37.644c0.049-0.329,0.096-0.65,0.145-0.973
	c-22.677-16.822-62.376-36.899-53.294-42.675c4.654-2.961,104.302,37.188,104.314,37.198c10.492,4.753,10.975,5.203,21.801,9.987
	c-2.57-6.248-28.642-48.697-11.048-46.615l58.201,76.108c9.871,16.185,9.528,25.998,7.076,34.439
	c-3.018,10.388-17.613,38.252-41.397,43.852c-22.908,5.39-85.003-29.679-94.726-38.761c-10.442-8.984-81.638-71.217-70.267-88.56
	c0,0,59.357,57.945,65.658,50.76c0.369-1.658-58.688-40.874-63.312-56.195c-3.312-10.97,48.331,22.466,70.957,39.228
	C1676.332,1072.778,1627.989,1036.747,1631.446,1033.988z"/>
<g>
	<path fill="#2C46E6" d="M550.231,1741.23H367.492c-39.939,0-72.317-32.377-72.317-72.317v-464.284
		c0-39.94,32.377-72.318,72.317-72.318h182.739c39.939,0,72.317,32.378,72.317,72.318v464.284
		C622.548,1708.854,590.17,1741.23,550.231,1741.23z"/>
	<path fill="#2134AD" d="M550.231,1132.311h-9.293c39.939,0,72.317,32.378,72.317,72.318v464.284
		c0,39.94-32.377,72.317-72.317,72.317h9.293c39.939,0,72.317-32.377,72.317-72.317v-464.284
		C622.548,1164.688,590.17,1132.311,550.231,1132.311z"/>
	<path fill="#CBD4FF" d="M367.492,1731.937c-34.751,0-63.023-28.271-63.023-63.023v-464.286c0-34.751,28.272-63.023,63.023-63.023
		h182.739c34.751,0,63.023,28.272,63.023,63.023v464.286c0,34.753-28.272,63.023-63.023,63.023H367.492z"/>
	<g>
		<path fill="#8088C2" d="M492.266,1173.983h-61.531c-1.875,0-3.396-1.52-3.396-3.396c0-1.875,1.521-3.394,3.396-3.394h61.531
			c1.875,0,3.396,1.519,3.396,3.394C495.662,1172.464,494.142,1173.983,492.266,1173.983z"/>
	</g>
	<g>
		<path fill="#8088C2" d="M498.512,1196.574h-74.021c-2.057,0-3.725-1.667-3.725-3.724s1.667-3.724,3.725-3.724h74.021
			c2.057,0,3.724,1.667,3.724,3.724S500.568,1196.574,498.512,1196.574z"/>
	</g>
	<circle fill="#8088C2" cx="398.824" cy="1192.851" r="5.111"/>
	<circle fill="#727586" cx="458.861" cy="1692.229" r="27.881"/>
	<circle fill="#DFE5FF" cx="454.276" cy="1692.229" r="27.881"/>
	<path fill="#676E9C" d="M580.082,1648.318H336.523c-8.194,0-14.837-6.643-14.837-14.837v-375.688
		c0-8.194,6.644-14.837,14.837-14.837h243.559c8.195,0,14.837,6.643,14.837,14.837v375.688
		C594.919,1641.676,588.277,1648.318,580.082,1648.318z"/>
	<path fill="#FFFFFF" d="M327.883,1632.924v-374.575c0-4.489,3.639-8.129,8.127-8.129h244.586c4.489,0,8.128,3.64,8.128,8.129
		v374.575c0,4.491-3.639,8.13-8.128,8.13H336.01C331.521,1641.054,327.883,1637.415,327.883,1632.924z"/>
	<path fill="#BADCFF" d="M581.217,1250.22H335.388c-4.138,0-7.505,3.949-7.505,8.803v56.579h260.841v-56.579
		C588.724,1254.169,585.356,1250.22,581.217,1250.22z"/>
	<g>
		<rect x="388.807" y="1327.631" fill="#6B9ECE" width="148.285" height="9.969"/>
	</g>
	<polygon fill="#6B9ECE" points="353.857,1332.616 367.869,1342.101 367.869,1323.131 	"/>
	<polygon fill="#6B9ECE" points="561.795,1332.616 547.785,1342.101 547.785,1323.131 	"/>
	<path fill="#00B3BF" d="M412.414,1297.439h-64.401c-6.669,0-12.076-5.406-12.076-12.075v-6.359c0-6.669,5.407-12.075,12.076-12.075
		h64.401c6.67,0,12.077,5.406,12.077,12.075v6.359C424.491,1292.033,419.083,1297.439,412.414,1297.439z"/>
	<path fill="#6B9ECE" d="M569.633,1297.439h-15.676c-3.427,0-6.205-2.778-6.205-6.205v-18.1c0-3.427,2.778-6.205,6.205-6.205h15.676
		c3.427,0,6.206,2.778,6.206,6.205v18.1C575.839,1294.661,573.061,1297.439,569.633,1297.439z"/>
	<rect x="559.549" y="1271.924" fill="#FFFFFF" width="4.493" height="19.795"/>
	<rect x="553.354" y="1279.188" fill="#FFFFFF" width="16.883" height="5.267"/>
	<rect x="340.894" y="1377.855" opacity="0.18" fill="#6B9ECE" width="28.848" height="249.477"/>
	<rect x="375.516" y="1377.855" opacity="0.18" fill="#6B9ECE" width="28.848" height="249.477"/>
	<rect x="410.405" y="1377.855" opacity="0.18" fill="#6B9ECE" width="28.848" height="249.477"/>
	<rect x="445.294" y="1377.855" opacity="0.18" fill="#6B9ECE" width="28.849" height="249.477"/>
	<rect x="480.184" y="1377.855" opacity="0.18" fill="#6B9ECE" width="28.848" height="249.477"/>
	<rect x="515.074" y="1377.855" opacity="0.18" fill="#6B9ECE" width="28.848" height="249.477"/>
	<rect x="549.962" y="1377.855" opacity="0.18" fill="#6B9ECE" width="28.848" height="249.477"/>
	<rect x="340.894" y="1349.244" fill="#6B9ECE" width="28.848" height="18.946"/>
	<rect x="375.516" y="1349.244" fill="#6B9ECE" width="28.848" height="18.946"/>
	<rect x="410.405" y="1349.244" fill="#6B9ECE" width="28.848" height="18.946"/>
	<rect x="445.294" y="1349.244" fill="#6B9ECE" width="28.849" height="18.946"/>
	<rect x="480.184" y="1349.244" fill="#6B9ECE" width="28.848" height="18.946"/>
	<rect x="515.074" y="1349.244" fill="#FD6100" width="28.848" height="18.946"/>
	<rect x="549.962" y="1349.244" fill="#FD6100" width="28.848" height="18.946"/>
	<rect x="335.937" y="1406.604" fill="#FFFFFF" width="245.806" height="6.195"/>
	<rect x="335.937" y="1443.834" fill="#FFFFFF" width="245.806" height="6.194"/>
	<rect x="335.937" y="1481.063" fill="#FFFFFF" width="245.806" height="6.196"/>
	<rect x="335.937" y="1518.292" fill="#FFFFFF" width="245.806" height="6.196"/>
	<rect x="335.937" y="1555.522" fill="#FFFFFF" width="245.806" height="6.195"/>
	<rect x="335.4" y="1592.752" fill="#FFFFFF" width="245.806" height="6.195"/>
	<path fill="#FF1F20" d="M455.016,1452.316l-23.668-10.193c0.844,1.033,30.482,37.314,29.66,36.308
		c5.974-13.405,19.188-43.058,25.323-56.824L455.016,1452.316z"/>
</g>
</svg>
