<?xml version="1.0" encoding="utf-8"?>
<!-- Generator: Adobe Illustrator 16.0.0, SVG Export Plug-In . SVG Version: 6.00 Build 0)  -->
<!DOCTYPE svg PUBLIC "-//W3C//DTD SVG 1.1//EN" "http://www.w3.org/Graphics/SVG/1.1/DTD/svg11.dtd">
<svg version="1.1" id="Layer_1" xmlns="http://www.w3.org/2000/svg" xmlns:xlink="http://www.w3.org/1999/xlink" x="0px" y="0px"
	 width="512px" height="374px" viewBox="0 0 512 374" enable-background="new 0 0 512 374" xml:space="preserve">
<g>
	<g>
		<path fill="#F7F6F1" d="M330.49,305.754h-45.527V169.382c14.94-18.529,33.543-35.369,54.293-47.896
			C368.748,169.751,371.558,276.646,330.49,305.754z"/>
		<path fill="#2E6C9E" d="M340.166,120.932c-0.306-0.502-0.959-0.662-1.462-0.359c-20.295,12.254-38.696,28.685-53.741,47.104
			c0,1.779,0,136.422,0,138.077h14.624c-1.635-40.471,22.998-122.277,39.267-182.776c0.014-0.008,0.027-0.015,0.04-0.023
			c29.021,48.918,31.269,155.544-10.241,182.799h3.634C372.779,274.996,369.524,169.111,340.166,120.932z"/>
		<g>
			<path fill="#F7F6F1" d="M326.763,154.481c0.277,0.521,0.924,0.717,1.443,0.44c0.521-0.277,0.717-0.923,0.439-1.443l-8.313-15.618
				c-0.277-0.52-0.923-0.718-1.444-0.44c-0.52,0.277-0.717,0.923-0.439,1.443L326.763,154.481z"/>
			<path fill="#F7F6F1" d="M314.653,201.122c0.916,0,1.411-1.089,0.797-1.778l-26.545-29.729c-0.392-0.44-1.066-0.478-1.506-0.085
				c-0.439,0.393-0.479,1.067-0.085,1.507C315.69,202.819,313.946,201.122,314.653,201.122z"/>
			<path fill="#F7F6F1" d="M300.755,262.123c1.054,0,1.473-1.378,0.589-1.957l-16.381-10.786v2.554
				C301.38,262.744,300.298,262.123,300.755,262.123z"/>
			<path fill="#F7F6F1" d="M340.705,122.343c-0.563-0.194-1.168,0.116-1.354,0.667c-13.735,40.069-43.158,140.346-40.989,182.744
				h2.14c-2.208-41.972,27.095-141.714,40.87-182.058C341.561,123.139,341.264,122.532,340.705,122.343z"/>
		</g>
		<g>
			<path fill="#2E6C9E" d="M326.774,177.285l25.968-15.973c0.503-0.309,0.658-0.966,0.35-1.468c-0.309-0.502-0.966-0.659-1.468-0.35
				l-25.969,15.973c-0.502,0.309-0.659,0.966-0.35,1.467C325.615,177.437,326.271,177.593,326.774,177.285z"/>
			<path fill="#2E6C9E" d="M312.228,234.236c0.324,0-2.53,1.163,46.908-19.764c0.543-0.23,0.796-0.856,0.567-1.398
				c-0.23-0.543-0.857-0.796-1.399-0.567l-46.493,19.68C310.742,232.639,311.071,234.236,312.228,234.236z"/>
			<path fill="#2E6C9E" d="M349.313,276.773c-0.142-0.574-0.721-0.921-1.293-0.779l-46.022,11.466
				c-1.353,0.337-0.872,2.417,0.516,2.072l46.022-11.466C349.106,277.924,349.455,277.345,349.313,276.773z"/>
			<path fill="#2E6C9E" d="M340.166,120.932c-0.306-0.502-0.959-0.662-1.462-0.359c-20.295,12.254-38.696,28.685-53.741,47.104
				v3.445c15.254-19.11,34.035-35.982,53.89-48.142c0.013-0.009,0.027-0.017,0.041-0.025
				c29.021,48.918,31.269,155.544-10.241,182.799h3.634C372.779,274.996,369.524,169.111,340.166,120.932z"/>
		</g>
	</g>
	<g>
		<path fill="#97C4DE" d="M174.01,344.259c-6.098,7.688-12.81,11.304-19.667,14.903H125.13
			c-33.333-16.902-53.455-89.067-43.859-128.638C146.209,245.827,202.986,308.136,174.01,344.259z"/>
		<path fill="#97C4DE" d="M81.531,229.682c-0.435-0.101-0.871,0.165-0.976,0.597c-9.492,38.973,9.651,110.37,42.781,128.875
			l3.556,0.004c-33.784-15.364-54.15-88.139-44.947-127.714c0.011,0.003,0.022,0.006,0.034,0.009
			c27.106,41.925,66.316,98.653,71.759,127.094c-0.125,0.057-0.745,0.354-1.408,0.641c1.372,0,2.374,0.002,3.77,0.004
			C220.436,326.762,156.102,247.353,81.531,229.682z"/>
		<g>
			<path fill="#F7F6F1" d="M97.223,252.043c0.384,0,0.726-0.274,0.797-0.665l2.395-13.184c0.08-0.439-0.212-0.86-0.653-0.939
				c-0.44-0.079-0.862,0.211-0.942,0.651l-2.396,13.185C96.335,251.587,96.718,252.043,97.223,252.043z"/>
			<path fill="#F7F6F1" d="M117.003,282.188c0.106,0.046,0.218,0.069,0.328,0.069c0.311,0,0.607-0.178,0.742-0.479l12.308-27.573
				c0.182-0.407-0.001-0.885-0.411-1.066c-0.409-0.182-0.888,0.002-1.069,0.409l-12.308,27.573
				C116.411,281.529,116.594,282.007,117.003,282.188z"/>
			<path fill="#F7F6F1" d="M168.442,288.919c-0.349-0.28-0.859-0.227-1.14,0.121l-26.422,32.688
				c-0.281,0.347-0.226,0.855,0.122,1.136c0.15,0.121,0.329,0.18,0.508,0.18c0.236,0,0.471-0.103,0.632-0.301l26.423-32.688
				C168.845,289.708,168.791,289.199,168.442,288.919z"/>
			<path fill="#F7F6F1" d="M125.765,297.342c-18.39-30.395-39.898-60.14-40.34-60.582c-1.201-1.653-2.54-3.479-3.797-5.17
				c-0.269-0.36-0.776-0.433-1.133-0.167c-0.363,0.268-0.433,0.775-0.168,1.129c0.093,0.125,0.903,1.218,1.08,1.458
				c11.339,15.368,28.243,39.822,42.972,64.167c8.434,13.94,26.422,44.776,28.667,61.011l1.636,0.002
				C152.276,342.221,134.627,311.988,125.765,297.342z"/>
		</g>
		<g>
			<path fill="#F7F6F1" d="M104.244,267.266c0.106-0.434-0.16-0.87-0.595-0.978l-22.485-5.495c-0.435-0.107-0.873,0.158-0.979,0.592
				s0.159,0.872,0.594,0.979l22.485,5.494C103.7,267.965,104.138,267.696,104.244,267.266z"/>
			<path fill="#F7F6F1" d="M88.514,302.172l38.182,3.408c0.025,0.002,0.049,0.004,0.073,0.004c0.415,0,0.769-0.315,0.806-0.736
				c0.04-0.443-0.289-0.837-0.735-0.877l-38.182-3.411c-0.445-0.039-0.84,0.289-0.88,0.735
				C87.739,301.738,88.068,302.132,88.514,302.172z"/>
			<path fill="#F7F6F1" d="M146.783,341.544l-35.934,2.402c-0.446,0.032-0.784,0.417-0.754,0.86
				c0.029,0.427,0.385,0.756,0.808,0.756c0.018,0,0.037-0.002,0.055-0.002l35.934-2.402c0.446-0.029,0.784-0.415,0.754-0.862
				C147.616,341.852,147.227,341.515,146.783,341.544z"/>
			<path fill="#97C4DE" d="M81.458,229.737c-0.435-0.102-0.87,0.166-0.975,0.599c-9.449,38.983,9.774,110.357,42.926,128.827h3.556
				c-33.801-15.326-54.25-88.077-45.091-127.663c0.012,0.002,0.022,0.004,0.034,0.008c72.971,17.682,137.212,95.842,71.902,127.012
				c-0.125,0.059-0.722,0.348-1.407,0.643h3.77C220.472,326.661,156.049,247.323,81.458,229.737z"/>
		</g>
	</g>
	<g>
		<path fill="#2E6C9E" d="M158.339,224.767l45.715,116.051l-48.717,19.191c-39.02-14.192-42.483-92.493-12.744-146.27
			C148.062,216.707,153.496,220.656,158.339,224.767z"/>
		<path fill="#F7F6F1" d="M164.45,240.282l-0.843-2.139l-9.065,16.797c-11.447-42.714-10.809-40.452-10.952-40.646
			c-0.567-0.785-1.812-0.198-1.56,0.742l6.622,24.714l-14.001-8.722c-0.412-0.256-0.953-0.13-1.21,0.281s-0.131,0.954,0.281,1.21
			l15.596,9.715c0.003,0.008,8.96,33.438,8.96,33.438l-33.047-10.859c-0.461-0.152-0.958,0.099-1.108,0.56
			c-0.152,0.46,0.099,0.958,0.56,1.108l34.14,11.22c0.054,0.201,11.683,43.6,11.734,43.79l-43.48-2.52
			c-0.484-0.026-0.9,0.344-0.928,0.827c-0.028,0.485,0.342,0.899,0.827,0.927l44.061,2.553c1.451,5.416,6.001,22.396,7.404,27.632
			l1.645-0.646l-1.353-5.052l19.592-18.945l-0.698-1.77l-19.415,18.771c-7.223-26.949-4.067-15.172-11.145-41.591l14.167-18.792
			l-0.755-1.919l-13.989,18.56l-11.283-42.111L164.45,240.282z"/>
	</g>
	<g>
		<path fill="#6DA6C7" d="M102.62,338.939c1.817-0.155,3.995-0.875,5.702-1.607c4.034-1.647,8.395-5.524,10.966-11.127
			c3.93-8.511,2.253-18.316-0.635-21.564c-1.981,6.171-17.949,25.993-19.637,27.81c-1.633,1.813-3.22,3.216-3.926,4.126
			c-0.63-1.469-5.046-12.068-11.546-26.146c4.83,0.505,15.661-4.47,17.613-17.444c1.224-8.115-1.574-13.334,0.073-18.438
			c-7.46,1.249-12.987,17.498-15.232,24.739c-1.59,5.179-2.799,7.973-3.23,9.471c-3.484-7.502-7.063-14.903-10.611-21.901
			c3.009-0.59,13.295-6.092,13.898-19.282c0.256-5.95-1.688-11.236-3.558-13.331c-3.695,6.893-11.772,13.418-11.969,27.017
			c-0.01,0.46-0.011,1.483,0.064,2.534c-0.489-0.95-6.877-13.245-7.327-13.536c0.818-2.209,1.15-10.185-2.998-16.827
			c-3.81-6.233-11.309-11.028-16.73-12.664c0.13,2.113,1.056,8.413,2.629,12.89c3.833,11.714,13.29,16.815,16.075,17.21
			c0.008,0.092,0.037,0.187,0.089,0.282c4.084,7.47,8.071,15.183,11.898,22.924c-2.837-2.263-8.89-5.943-15.411-8.49
			c-9.608-3.895-9.566-4.788-13.959-7.136c-0.311,3.767-0.103,6.776,1.462,10.316c2.62,5.891,8.964,10.61,17.198,10.951
			c5.941,0.24,10.524-1.842,11.94-3.139c4.277,8.736,8.339,17.476,12.089,25.898c-2.046-0.979-6.555-2.302-9.114-2.895
			c-6.636-1.536-11.588-1.136-25.422,0.527c3.408,6.293,14.256,13.059,25.48,10.191c5.375-1.375,8.819-4.403,9.822-6.098
			c3.96,8.952,7.558,17.52,10.671,25.318c-3.08-1.9-11.889-4.474-21.084,0.467c-4.097,2.313-7.333,5.345-9.666,8.738h19.378
			c5.676-2.628,10.685-5.731,12.118-7.334c1.004,2.536,1.955,4.986,2.847,7.334H104c-2.405-6.334-5.193-13.288-8.238-20.554
			C97.013,338.726,99.35,339.255,102.62,338.939z"/>
		<path fill="#6DA6C7" d="M130.342,337.943c-13.381,2.04-22.377,11.811-24.53,20.783h12.426c7.325-6.376,7.767-7.219,20.554-20.977
			C137.302,337.475,133.969,337.357,130.342,337.943z"/>
	</g>
	<g>
		<path fill="#F7A26D" d="M103.745,348.507c10.158-14.174,1.308-33.062-6.294-33.999c0.757,3.582,0.238,9.388-0.208,21.407
			c-0.084,6.477-0.076,8.379-0.298,11.21c-0.182,2.856-0.49,4.652-0.466,5.615c-1.705-0.854-10.899-5.2-22.9-12.328
			c1.684-1.04,5.28-4.792,6.675-11.313c2.528-11.805-4.485-19.133-6.272-22.939c-0.788-1.664-0.834-2.668-0.881-3.459
			c-5.341,4.775-4.656,17.877-3.34,24.974c0.492,2.72,0.866,4.105,1.455,7.349c0.34,1.829,0.622,3.484,0.932,4.533
			c-10.637-6.394-17.977-11.709-18.544-12.087c1.866-1.602,6.046-8.118,6.082-15.721c0.067-8.154-4.243-14.634-7.083-15.923
			c-1.716,6.619-5.941,14.063-3.994,23.314c0.529,2.467,1.467,4.819,2.371,6.454c-3.716-2.686-7.345-5.441-10.867-8.262
			c-0.079-0.063-0.179-0.12-0.278-0.139c0.005-1.057-0.458-3.087-1.159-4.935c-2.429-6.378-5.954-9.774-11.16-12.671
			c-3.522-1.941-8.891-3.763-11.595-4.313c0.438,5.788,3.345,13.152,8.159,17.657c5.502,5.059,12.813,5.914,15.036,5.24
			c0.146,0.245,8.665,7.075,19.381,14.271c-3.856-0.456-12.174-0.276-17.051,0.166c-8.846,0.671-9.543-0.13-15.685-1.001
			c5.37,17.005,24.969,17.074,33.631,4.309c0.248-0.383,0.866-1.387,1.106-2.141c7.244,4.688,13.088,8.388,22.419,13.471
			c-2.443,0.634-7.576,2.879-8.608,3.354c-4.542,2.084-7.528,4.212-12.286,8.123h18.519c3.049-4.155,4.152-8.632,3.973-10.615
			c7.178,3.858,14.475,7.414,21.792,10.615h3.342c-3.933-1.67-7.862-3.444-11.774-5.314
			C100.221,352.491,102.292,350.455,103.745,348.507z"/>
		<path fill="#F7A26D" d="M116.854,358.727h7.908c0.006-0.11,0.01-0.222,0.015-0.334c1.595-28.115,0.545-20.057,1.47-36.103
			C119.624,328.349,110.108,345.65,116.854,358.727z"/>
	</g>
	<path fill="#232B59" d="M493.913,358.979H55.299c-0.452,0-0.818-0.498-0.818-1.113l0,0c0-0.613,0.366-1.111,0.818-1.111h438.614
		c0.452,0,0.818,0.498,0.818,1.111l0,0C494.731,358.48,494.365,358.979,493.913,358.979z"/>
	<g>
		<g>
			<path fill="#232B59" d="M305.706,357.139H170.692c-5.723,0-10.363-4.64-10.363-10.362V76.922c0-5.723,4.64-10.363,10.363-10.363
				h135.014c5.724,0,10.363,4.64,10.363,10.363v269.854C316.069,352.499,311.43,357.139,305.706,357.139z"/>
			<path fill="#232B59" d="M259.476,87.156h-42.552c-6.491,0-11.752-5.107-11.752-11.407l0,0h66.058l0,0
				C271.229,82.049,265.966,87.156,259.476,87.156z"/>
			<g>
				<defs>
					<path id="SVGID_1_" d="M307.918,342.853H168.48c-2.46,0-4.455-1.994-4.455-4.453V82.863c0-2.46,1.994-4.454,4.455-4.454
						h139.438c2.461,0,4.455,1.994,4.455,4.454v255.536C312.373,340.858,310.379,342.853,307.918,342.853z"/>
				</defs>
				<clipPath id="SVGID_2_">
					<use xlink:href="#SVGID_1_"  overflow="visible"/>
				</clipPath>
				<path clip-path="url(#SVGID_2_)" fill="#97C4DE" d="M307.918,342.853H168.48c-2.46,0-4.455-1.994-4.455-4.453V82.863
					c0-2.46,1.994-4.454,4.455-4.454h139.438c2.461,0,4.455,1.994,4.455,4.454v255.536
					C312.373,340.858,310.379,342.853,307.918,342.853z"/>
			</g>
		</g>
	</g>
	<g>
		<path fill="#FFFFFF" d="M253.182,132.858c-1.1-4.276-2.881-7.514-3.977-7.231l-5.235-0.184c-0.136-0.041-0.267-0.045-0.39-0.014
			l-2.997-0.311c-1.303-0.47-3.265-4.581-4.477-9.29c-1.212-4.708-1.478-9.256-0.564-10.297l2.475-1.719
			c0.123-0.032,0.235-0.099,0.334-0.2l4.496-2.688c1.096-0.282,1.093-3.977-0.008-8.253s-2.881-7.514-3.977-7.232l-5.235-0.184
			c-0.136-0.04-0.267-0.046-0.39-0.014h0c-0.002,0.001-0.616,0.159-1.368,0.352c-0.752,0.194-2.755,1.572-4.451,3.064
			c-1.695,1.492-3.64,4.291-4.32,6.222c-0.681,1.93-1.073,5.255-0.873,7.39l0.15,1.594c0.201,2.134,0.556,4.617,0.627,4.896
			l2.521,9.793l2.52,9.793c0.072,0.279,0.96,2.623,1.814,4.59l0.638,1.469c0.854,1.967,2.802,4.69,4.331,6.051
			c1.528,1.362,4.583,2.875,6.787,3.363c2.206,0.487,4.625,0.729,5.377,0.535S248.36,144,248.36,144
			c0.123-0.032,0.234-0.1,0.334-0.2l4.496-2.688C254.286,140.829,254.282,137.134,253.182,132.858z"/>
		<path fill="#F7A26D" d="M246.203,144.793c-1.215,0-3.123-0.269-4.669-0.61c-2.263-0.501-5.383-2.048-6.956-3.449
			c-1.565-1.396-3.551-4.168-4.425-6.181l-0.638-1.469c-0.824-1.896-1.747-4.31-1.833-4.646l-5.04-19.587
			c-0.087-0.333-0.443-2.892-0.638-4.954l-0.15-1.594c-0.206-2.185,0.194-5.572,0.892-7.549c0.7-1.985,2.686-4.847,4.427-6.378
			c1.548-1.362,3.694-2.912,4.605-3.146c0.752-0.193,1.367-0.352,1.37-0.353c0.17-0.044,0.352-0.043,0.538,0.004l5.145,0.181
			c1.528-0.28,3.351,3.539,4.374,7.514c1.022,3.976,1.272,8.202-0.203,8.691l-4.418,2.643c-0.121,0.112-0.255,0.193-0.4,0.242
			l-2.384,1.656c-0.688,0.887-0.587,5.04,0.67,9.925s3.173,8.572,4.204,9.016l2.888,0.299c0.151-0.027,0.307-0.021,0.467,0.02
			l5.145,0.181c0.715-0.138,1.506,0.569,2.348,2.102c0.767,1.392,1.486,3.314,2.025,5.412c1.023,3.975,1.273,8.201-0.203,8.691
			l-4.418,2.642c-0.141,0.131-0.299,0.22-0.472,0.264l-1.367,0.352C246.874,144.769,246.57,144.793,246.203,144.793z
			 M233.401,85.594c-0.024,0-0.048,0.002-0.071,0.008l-1.368,0.353c-0.619,0.159-2.494,1.396-4.298,2.982
			c-1.66,1.46-3.551,4.181-4.215,6.065c-0.667,1.892-1.05,5.135-0.853,7.23l0.15,1.595c0.208,2.21,0.558,4.606,0.617,4.837
			l5.041,19.587c0.059,0.231,0.911,2.5,1.794,4.534l0.639,1.469c0.838,1.93,2.738,4.586,4.237,5.921
			c1.492,1.33,4.46,2.799,6.619,3.277c2.346,0.519,4.584,0.698,5.203,0.538l1.368-0.352c0.056-0.014,0.109-0.047,0.163-0.102
			l0.074-0.058l4.595-2.729c0.566-0.146,0.97-2.953-0.277-7.798l0,0c-0.525-2.038-1.219-3.899-1.956-5.238
			c-0.81-1.473-1.377-1.773-1.566-1.725l-0.052,0.014l-5.381-0.201c-0.073-0.021-0.136-0.025-0.192-0.011l-0.065,0.017l-3.152-0.338
			c-1.632-0.588-3.605-5.249-4.712-9.548s-1.627-9.333-0.483-10.637l0.068-0.061l2.53-1.757l0.065-0.017
			c0.056-0.015,0.109-0.048,0.163-0.102l0.073-0.058l4.594-2.729c0.566-0.146,0.97-2.952-0.276-7.798
			c-1.247-4.845-2.944-7.105-3.522-6.963l-0.052,0.014l-5.381-0.201C233.479,85.6,233.439,85.594,233.401,85.594z"/>
	</g>
	<g>
		<path fill="#FFFFFF" d="M357.199,109.771c-4.136,0-8.022-1.608-10.949-4.529c-4.064-4.055-5.531-9.909-3.895-15.395
			c-4.525-2.881-9.288-5.458-9.337-5.484l-1.098-0.593l1.08-0.624c4.356-2.515,9.373-2.945,14.917-1.282
			c6.138-4.606,14.771-4.017,20.231,1.432l0,0c2.931,2.925,4.548,6.816,4.553,10.957c0.004,4.141-1.604,8.035-4.529,10.966
			s-6.815,4.548-10.957,4.552C357.212,109.771,357.205,109.771,357.199,109.771z M334.819,83.764
			c1.78,0.991,5.371,3.031,8.739,5.198l0.456,0.293l-0.173,0.514c-1.724,5.128-0.423,10.679,3.392,14.486
			c2.664,2.658,6.203,4.122,9.966,4.122c0.005,0,0.01,0,0.016,0c3.769-0.004,7.31-1.476,9.973-4.143
			c2.66-2.668,4.125-6.212,4.121-9.981c-0.004-3.768-1.476-7.31-4.143-9.972l0,0c-5.05-5.038-13.078-5.509-18.678-1.1l-0.289,0.228
			l-0.352-0.111C343.031,81.784,338.654,81.941,334.819,83.764z"/>
		<polygon fill="#FFFFFF" points="359.112,100.107 355.797,100.107 354.169,85.453 360.741,85.453 		"/>
		<circle fill="#FFFFFF" cx="357.568" cy="105.043" r="1.567"/>
	</g>
	<g>
		<g>
			<path fill="#FFFFFF" d="M198.532,18.664h-4.881c0.018,0.166,0.039,1.161,0.001,1.485h4.879c2.321,0,4.209,1.888,4.209,4.209
				v13.73c0,2.321-1.889,4.209-4.209,4.209h-16.056c-0.274,0-0.526,0.15-0.655,0.393l-3.56,6.664v-6.332
				c0-0.39-0.302-0.714-0.69-0.742c-2.197-0.154-3.916-1.996-3.916-4.193v-13.73c0-2.321,1.889-4.209,4.209-4.209h1.086
				c-0.055-0.324-0.11-1.32-0.104-1.485h-0.982c-3.141,0-5.695,2.554-5.695,5.695v13.73c0,2.739,1.974,5.07,4.606,5.584v8.649
				c0,0.341,0.232,0.638,0.563,0.721c0.06,0.015,0.12,0.022,0.18,0.022c0.269,0,0.524-0.147,0.655-0.393l4.748-8.889h15.61
				c3.14,0,5.695-2.555,5.695-5.695v-13.73C204.228,21.218,201.672,18.664,198.532,18.664z"/>
		</g>
		<g>
			<g>
				<path fill="#FFFFFF" d="M186.106,30.444c-0.429-0.005-0.835-0.256-1.017-0.674c-0.681-1.568-0.451-3.46,0.587-4.818
					c0.521-0.682,1.161-1.152,1.779-1.607c0.461-0.339,0.896-0.66,1.219-1.029c0.863-0.989,0.969-2.619,0.241-3.71
					c-0.729-1.092-2.273-1.621-3.518-1.204c-1.245,0.417-2.16,1.771-2.083,3.081c0.035,0.618-0.436,1.147-1.054,1.183
					c-0.619,0.037-1.148-0.435-1.184-1.053c-0.134-2.308,1.417-4.602,3.609-5.335c2.192-0.734,4.812,0.163,6.094,2.086
					c1.283,1.923,1.104,4.687-0.417,6.428c-0.484,0.555-1.041,0.964-1.58,1.36c-0.515,0.378-1,0.735-1.326,1.162
					c-0.544,0.712-0.669,1.743-0.313,2.565c0.247,0.567-0.014,1.227-0.582,1.474C186.415,30.416,186.259,30.445,186.106,30.444z"/>
			</g>
			<circle fill="#FFFFFF" cx="186.417" cy="32.911" r="1.121"/>
		</g>
	</g>
	<g>
		<path fill="#FFFFFF" d="M210.358,115.275h-19.686h-0.982h-0.271c0,0.002,0,0.01,0,0.013c-3.014,0.143-5.425,2.632-5.425,5.682
			v13.73c0,2.739,1.974,5.07,4.606,5.584v8.65c0,0.341,0.231,0.638,0.562,0.721c0.061,0.015,0.121,0.022,0.181,0.022
			c0.269,0,0.523-0.147,0.655-0.394l4.748-8.889h15.61c3.14,0,5.695-2.554,5.695-5.695v-13.73
			C216.054,117.829,213.499,115.275,210.358,115.275z M214.568,134.7c0,2.321-1.889,4.209-4.209,4.209h-16.056
			c-0.275,0-0.526,0.151-0.656,0.393l-3.56,6.664v-6.332c0-0.39-0.302-0.713-0.69-0.741c-2.196-0.154-3.916-1.996-3.916-4.193
			v-13.73c0-2.321,1.888-4.21,4.209-4.21h1.086h19.582c2.321,0,4.209,1.889,4.209,4.21V134.7z"/>
		<g>
			<circle fill="#FFFFFF" cx="194.157" cy="131.337" r="1.338"/>
			<circle fill="#FFFFFF" cx="200.848" cy="131.337" r="1.338"/>
			<circle fill="#FFFFFF" cx="207.538" cy="131.337" r="1.338"/>
		</g>
	</g>
	<g>
		<g>
			<g>
				<g>
					<path fill="#FFFFFF" d="M267.435,126.664c-0.056,0-0.112-0.007-0.167-0.021c-6.578-1.687-11.171-7.613-11.171-14.413
						c0-7.312,5.226-13.484,12.429-14.677c0.362-0.059,0.707,0.186,0.769,0.55c0.061,0.364-0.187,0.708-0.55,0.768
						c-6.555,1.085-11.312,6.704-11.312,13.359c0,6.189,4.18,11.583,10.167,13.119c0.356,0.092,0.572,0.455,0.481,0.813
						C268.003,126.463,267.731,126.664,267.435,126.664z"/>
				</g>
				<g>
					<path fill="#FFFFFF" d="M274.437,126.683c-0.3,0-0.571-0.202-0.648-0.505c-0.09-0.358,0.129-0.72,0.487-0.81
						c6.029-1.51,10.24-6.912,10.24-13.137c0-5.614-3.376-10.563-8.601-12.612c-0.343-0.135-0.513-0.523-0.378-0.866
						c0.135-0.344,0.522-0.512,0.866-0.378c5.74,2.25,9.448,7.69,9.448,13.856c0,6.839-4.627,12.774-11.252,14.433
						C274.545,126.677,274.489,126.683,274.437,126.683z"/>
				</g>
				<g>
					<g>
						<path fill="#FFFFFF" d="M267.378,126.211c-6.381-1.637-10.837-7.386-10.837-13.981c0-7.366,5.513-13.533,12.824-14.344
							l0.049,0.443c-7.085,0.786-12.427,6.762-12.427,13.901c0,6.392,4.318,11.963,10.501,13.55L267.378,126.211z"/>
					</g>
					<g>
						<path fill="#FFFFFF" d="M269.214,98.141c-0.497-0.432-0.779-1.335-0.842-1.971c0.694,0.812,1.572,1.501,2.602,1.851
							c-0.973,0.469-1.709,1.313-2.326,2.187C268.656,99.522,268.767,98.683,269.214,98.141z"/>
					</g>
				</g>
				<g>
					<g>
						<path fill="#FFFFFF" d="M274.679,126.183l-0.114-0.431c6.122-1.622,10.396-7.183,10.396-13.522
							c0-5.798-3.487-10.911-8.883-13.027l0.163-0.414c5.567,2.183,9.166,7.459,9.166,13.441
							C285.407,118.772,280.995,124.509,274.679,126.183z"/>
					</g>
					<g>
						<path fill="#FFFFFF" d="M274.792,125.908c0.555,0.354,0.968,1.206,1.124,1.824c-0.809-0.699-1.778-1.251-2.848-1.445
							c0.893-0.608,1.496-1.553,1.977-2.507C275.14,124.459,275.154,125.305,274.792,125.908z"/>
					</g>
				</g>
			</g>
			<g>
				<path fill="#FFFFFF" d="M264.593,115.044c2.092-1.976,3.564-3.384,3.564-4.547c0-0.8-0.452-1.239-1.162-1.239
					c-0.595,0-1.047,0.4-1.46,0.839l-1.033-1.021c0.813-0.865,1.576-1.305,2.751-1.305c1.614,0,2.713,1.033,2.713,2.609
					c0,1.382-1.293,2.855-2.623,4.25c0.414-0.052,0.981-0.103,1.37-0.103h1.653v1.601h-5.773V115.044z"/>
				<path fill="#FFFFFF" d="M274.733,114.166h-3.553v-1.304l2.997-4.934h2.326v4.792h0.941v1.446h-0.941v1.963h-1.771V114.166z
					 M274.733,112.72v-1.331c0-0.53,0.052-1.317,0.077-1.834h-0.051c-0.206,0.452-0.439,0.917-0.672,1.382l-1.085,1.783H274.733z"/>
			</g>
		</g>
	</g>
	<path fill="#F7A26D" d="M371.369,282.269c5.612-2.932,9.444-7.536,10.375-10.372c-8.428,0.272-20.368-4.146-33.531,4.778
		c0.427-0.666,8.518-13.361,8.55-13.949c2.468-0.422,9.988-4.364,13.892-11.72c3.707-6.826,4.128-16.28,2.745-22.14
		c-1.875,1.245-7.179,5.451-10.461,9.284c-8.739,9.765-8.399,21.183-7.273,23.972c-0.116,0.426-5.911,9.777-14.964,23.284
		c0.561-3.845,0.712-11.313-0.406-18.612c-1.533-10.915-0.688-11.354-0.868-16.646c-3.63,1.719-6.29,3.513-8.714,6.84
		c-4.025,5.549-4.99,13.898-0.92,21.658c2.918,5.55,7.227,8.653,9.198,9.302c-5.025,7.446-10.93,15.984-17.353,24.895
		c-0.196-2.417-1.373-7.234-2.187-9.89c-2.12-6.925-5.125-11.27-14.021-23.115c-3.978,6.487-4.427,20.072,4.19,28.874
		c4.109,4.2,8.712,5.761,10.817,5.792c-5.578,7.703-11.521,15.649-17.598,23.379c0.236-6.345-3.76-12.898-8.416-16.875
		c-6.616-5.649-11.988-3.557-19.715-4.721c3.584,10.741,15.756,21.052,26.855,23.214c-5.035,6.357-10.148,12.55-15.213,18.314h1.883
		c0.793-0.912,1.606-1.862,2.438-2.84c1.597,0.925,6.175,2.646,6.688,2.84h30.445c-10.192-10.313-24.82-11.953-33.313-7.397
		c5.259-6.357,11.068-13.717,17.075-21.625c0.156,1.446,0.915,3.88,2.947,6.724c1.111,1.588,2.933,3.21,4.515,4.391
		c3.664,2.835,9.556,4.783,16.079,4.166c9.925-0.914,18.059-7.68,19.509-12.068c-6.831,1.483-33.674-2.721-36.049-3.263
		c-2.541-0.535-4.677-1.249-5.891-1.414c5.917-7.826,12.001-16.149,17.914-24.547c2.111,4.713,12.456,12.028,25.433,6.918
		c8.121-3.195,11.435-8.55,17.01-9.751c-5.123-6.201-23.021-2.635-30.88-0.844c-5.607,1.291-8.824,1.668-10.433,2.069
		c5.045-7.198,9.951-14.431,14.503-21.426C348.374,282.203,358.913,288.736,371.369,282.269z"/>
	<path fill="#6DA6C7" d="M406.411,318.308c-3.946-2.555-10.121-4.29-15.385-3.392c-5.957,1.069-10.093,5.363-10.747,7.127
		c-0.221-0.027-8.789,2.116-18.705,5.506c2.186-2.262,6.146-7.718,8.253-11.078c3.902-6.033,4.761-6.092,8.333-9.624
		c-13.598-4.872-23.247,7.732-19.261,19.574c0.124,0.348,0.469,1.239,0.838,1.762c-6.588,2.313-13.181,4.941-19.673,7.854
		c0.788-1.885,1.855-6.294,2.054-7.192c1.297-5.807,0.887-9.489,0.383-20.57c-1.896,0.864-5.537,3.729-7.609,8.049
		c-4.804,9.808,1.252,18.703,3.83,20.321c-6.174,2.814-12.25,5.887-18.135,9.19c0.493-1.203,1.005-3.481,0.868-6.859
		c-0.639-11.256-10.673-18.783-18.698-18.858c6.534,12.88,7.611,15.261,10.342,19.051c0.59,0.86,4.437,6.136,6.183,7.406
		c-6.149,3.505-12.08,7.261-17.684,11.241h1.864c1.687-1.18,3.41-2.342,5.165-3.486c0.656,0.734,2.328,2.043,4.021,3.486h13.385
		c-3.735-3.743-8.858-6.275-14.025-5.647c5.338-3.34,10.948-6.521,16.752-9.503c-0.559,1.967-0.255,4.307,0.286,6.188
		c1.151,3.735,3.25,6.709,5.774,8.963h13.989c-2.118-1.71-4.816-3.997-8.46-6.985c-4.134-3.229-5.365-4.153-7.081-5.686
		c-1.753-1.515-2.758-2.595-3.391-3.051c6.208-3.151,12.631-6.075,19.171-8.725c-0.153,1.595,0.504,5.753,4.023,9.846
		c6.373,7.417,14.536,6.485,17.866,7.199c1.459,0.308,2.13,0.77,2.661,1.128c-0.461-5.786-9.244-11.765-14.466-14.394
		c-1.994-1.015-3.071-1.454-5.451-2.664c-1.347-0.678-2.553-1.306-3.38-1.619c5.566-2.221,11.211-4.242,16.881-6.033
		c0.118,1.988,2.274,7.877,7.157,11.625c5.226,4.038,11.516,4.436,13.739,3.234c-3.427-4.348-6.156-10.723-13.077-13.999
		c-1.85-0.869-3.824-1.417-5.322-1.635c3.55-1.08,7.104-2.067,10.651-2.959c0.092-0.022,0.165-0.063,0.225-0.113
		c0.679,0.523,2.216,1.219,3.751,1.673c5.303,1.561,9.222,0.952,13.642-0.986C400.927,322.351,404.732,319.783,406.411,318.308
		L406.411,318.308z"/>
	<g id="_x34__1_">
		<g>
			<path fill="#232B59" d="M238.603,217.056c-0.142,0-0.28-0.065-0.368-0.189c-7.723-10.817-10.754-20.936-8.11-27.066
				c1.333-3.091,4.078-5.004,7.938-5.534c0.249-0.034,0.476,0.139,0.509,0.386c0.034,0.247-0.139,0.475-0.386,0.509
				c-3.58,0.492-6.013,2.172-7.231,4.997c-2.517,5.837,0.479,15.625,8.016,26.183c0.145,0.203,0.098,0.485-0.105,0.63
				C238.786,217.029,238.694,217.056,238.603,217.056z"/>
		</g>
		<g>
			<path fill="#232B59" d="M250.803,217.056c-0.034,0-0.068-0.003-0.103-0.012c-0.243-0.057-0.394-0.299-0.337-0.542
				c3.088-13.223,1.015-22.71-1.956-27.181c-1.299-1.955-2.836-3.133-4.442-3.407c-0.246-0.042-0.411-0.274-0.37-0.521
				c0.042-0.245,0.275-0.412,0.521-0.369c1.858,0.315,3.602,1.628,5.043,3.797c3.075,4.627,5.237,14.383,2.083,27.886
				C251.194,216.915,251.008,217.056,250.803,217.056z"/>
		</g>
		<path fill="#F3A088" d="M262.156,202.593c1.375,1.151,6.779,27.677,5.964,34.711c-1.145,9.878-7.302,24.028-7.302,24.028
			l-11.012,1.809C249.807,263.141,250.447,192.79,262.156,202.593z"/>
		<g>
			<path fill="#001832" d="M235.339,354.696c-0.87-0.142-0.75,1.978-0.433,2.146c2.124,1.126,7.35,1.274,11.461,1.567
				c4.803,0.341,8.678,0.477,10.154-0.637c0.777-0.586,0.861-1.921-0.856-2.752c-0.789-0.381-11.684-1.055-11.932-0.987
				C243.484,354.098,235.339,354.696,235.339,354.696z"/>
			<path fill="#F7B690" d="M244.899,339.848c0.178,3.17-1.659,8.19-1.1,9.366c0.221,0.465,1.973,3.891,0.687,5.259
				c-1.977,2.101-6.938,2.386-8.208-2.569c1.299-5.271,1.952-9.733,1.952-11.303C238.23,339.033,244.806,338.169,244.899,339.848z"
				/>
			<path fill="#224F73" d="M235.372,355.346c0.344,1.213,17.785,3.181,20.287,1.557c1.33-0.862,0.146-1.846-1.356-2.479
				c-1.751-0.732-6.678-3.889-8.305-4.612c-1.338-0.591-2.313-3.223-2.839-2.75c-0.49,0.441-0.462,3.104-0.233,4.154
				c0.225,1.027,0.068,1.919-0.388,2.059c-2.563,0.78-5.25-3.547-5.943-3.34C235.701,350.197,235.018,354.11,235.372,355.346z"/>
		</g>
		<g>
			<path fill="#F7B690" d="M236.667,338.566c-1.606,4.186-0.517,10.183-0.035,11.378c0.238,0.592,2.369,7.297-3.573,5.453
				c-3.866-1.199-3.714-4.137-3.547-4.583c1.536-4.076-0.066-10.469-0.066-11.907C229.446,337.313,237.259,337.022,236.667,338.566z
				"/>
			<path fill="#072B45" d="M227.962,354.939c-0.754-0.17-0.479,2.465-0.274,2.739c0.205,0.271,4.26,1.178,8.604,1.067
				c3.933-0.101,6.43-0.313,6.748-1.04c0.163-0.373-0.087-2.08-0.851-2.568c-0.674-0.429-7.167-0.83-7.386-0.771
				C234.583,354.425,227.962,354.939,227.962,354.939z"/>
			<path fill="#275C87" d="M235.579,347.969c0.86,0.031,2.109,1.946,2.8,3.959c0.805,0.852,2.271,1.157,3.036,2.292
				c0.533,0.791,1.203,2.181,0.915,2.555c-1.002,1.311-13.778,1.088-14.236-0.09c-0.596-1.534,0.652-2.938,0.832-4.449
				c0.165-1.385-0.004-2.075,0.484-2.808c0.151-0.227,0.531-0.091,0.518,0.345c-0.03,0.956-0.176,2.646,1.205,2.84
				C232.323,349.101,234.163,347.921,235.579,347.969z"/>
		</g>
		<path fill="#224F73" d="M260.368,255.752c0,0-7.991,76.695-10.318,87.943c-0.421,2.034-12.665,1.338-12.946-0.72
			c-1.095-8.015-6.028-24.617-5.091-32.032c0.417-3.304,2.918-9.218,4.589-13.233c2.086-5.014-7.929-33.215-0.12-55.329
			C238.595,236.399,260.368,255.752,260.368,255.752z"/>
		<path fill="#275C87" d="M248.053,248.815c0,0-5.702,83.828-7.437,95.18c-0.314,2.055-16.621,2.639-17.524-2.076
			c-1.523-7.943-1.14-22.848-0.592-30.302c0.244-3.32,2.432-9.357,3.89-13.453c1.821-5.116-9.656-32.755-3.015-55.249
			C225.171,236.833,248.053,248.815,248.053,248.815z"/>
		<path fill="#224F73" d="M257.881,255.083c-0.301,2.409,1.588,5.904,2.938,6.249c0,2.249-2.182,5.95-3.337,8.96
			c-1.253,3.271-6.039-6.398-6.039-6.398L257.881,255.083z"/>
		<path fill="#2E6C9E" d="M240.843,187.589c7.531,0.784,18.576,6.865,21.313,15.004c1.545,4.593-1.788,53.16-1.788,53.16
			l-40.452,1.006c0,0,2.774-12.146,3.063-15.325c0.691-7.606-3.21-31.769-7.999-40.32
			C211.608,195.093,234.271,186.905,240.843,187.589z"/>
		<path fill="#F3A088" d="M245.215,177.138c0,0,2.017,13.344,1.923,13.725c-0.178,0.723-1.227,8.279-2.451,8.986
			c-1.783,1.029-11.917-7.398-12.578-8.986c-0.146-0.35,1.734-15.3,1.734-15.3L245.215,177.138z"/>
		<g>
			<path fill="#232B59" d="M247.887,173.465c1.313-7.71-0.369-12.075-1.107-13.135c-1.034-1.485-13.284-2.341-15.225,0.857
				c-1.942,3.198-0.914,11.021-0.114,12.278c0.799,1.256,9.708,2.398,9.708,2.398L247.887,173.465z"/>
			<path fill="#F7B690" d="M245.489,164.727c1.228,1.549,1.583,3.395,1.618,6.623c2.722-4.567,1.809,5.655-0.213,4.636
				c-0.322,3.302-2.019,6.85-4.889,8.429c-1.583,0.871-2.764,0.822-3.881,0.3c-3.542-1.656-5.218-5.537-5.563-8.371
				c-1.003,0.054-2.13-3.416-2.035-5.334c0.065-1.318,1.075-1.905,1.62-0.115c-0.106-3.518,0.258-5.403,1.007-6.167
				c0.943-0.964,3.792,1.946,7.709,1.959C244.53,166.7,244.715,163.752,245.489,164.727z"/>
			<g>
				<path fill="#232B59" d="M236.557,176.395c-1.474,0-3.162-0.112-3.406-0.173c-0.264-0.066-0.403-0.336-0.485-0.533
					c-0.364-0.873-0.628-3.485-0.394-3.882c0.085-0.141,0.243-0.214,0.629-0.289c1.113-0.217,4.971-0.489,5.875,0.199v0.001
					c0.109,0.083,0.398,0.303,0.426,1.867c0.003,0.226,0.025,2.212-0.417,2.575C238.57,176.337,237.62,176.395,236.557,176.395z
					 M233.336,175.618c0.633,0.131,4.444,0.238,5.043,0.049c0.225-0.465,0.292-3.071,0.006-3.457
					c-0.694-0.497-4.829-0.286-5.583-0.029C232.725,172.732,233.012,175.271,233.336,175.618z M233.35,175.631L233.35,175.631
					L233.35,175.631z M232.736,172.208L232.736,172.208L232.736,172.208z"/>
			</g>
			<g>
				<path fill="#232B59" d="M243.177,176.395c-1.063,0-2.013-0.058-2.229-0.236c-0.443-0.363-0.421-2.35-0.417-2.575
					c0.027-1.563,0.317-1.784,0.425-1.867v-0.001c0.906-0.69,4.764-0.416,5.876-0.199c0.386,0.075,0.544,0.148,0.628,0.289
					c0.241,0.408-0.02,2.982-0.393,3.881c-0.082,0.197-0.222,0.467-0.486,0.534C246.339,176.283,244.65,176.395,243.177,176.395z
					 M241.354,175.667c0.6,0.188,4.411,0.081,5.043-0.049c0.319-0.342,0.603-2.809,0.522-3.44c-0.782-0.255-4.881-0.461-5.572,0.032
					C241.062,172.596,241.129,175.202,241.354,175.667z M246.384,175.631L246.384,175.631L246.384,175.631z M246.998,172.208
					L246.998,172.208L246.998,172.208z"/>
			</g>
		</g>
		<path fill="#F3A088" d="M214.669,199.937c-6.419,10.272-7.925,36.188-6.429,41.209c2.711,9.093,17.47,24.103,17.47,24.103
			l2.711-5.856c0,0-8.165-18.414-8.132-22.088c0.032-3.675,2.114-12.018,2.114-16.21C222.403,216.9,214.669,199.937,214.669,199.937
			z"/>
		<path fill="#2E6C9E" d="M207.053,227.327c0.339-6.224,3.991-29.718,11.011-31.751c5.09-1.474,9.998,34.261,7.4,34.864
			C222.866,231.042,207.053,227.327,207.053,227.327z"/>
		<path fill="#2E6C9E" d="M258.588,196.705c4.863,2.373,10.789,23.155,9.615,28.013c-5.161,1.694-8.628,2.033-8.628,2.033
			L258.588,196.705z"/>
		<g>
			<path fill="#265A85" d="M262.139,224.808c-0.003,0-0.007,0-0.011,0c-0.124-0.006-0.221-0.111-0.215-0.235
				c0.257-5.665,0.003-14.842,0-14.935c-0.004-0.125,0.094-0.229,0.22-0.232c0.126-0.025,0.228,0.095,0.232,0.219
				c0.002,0.092,0.258,9.287-0.002,14.967C262.359,224.713,262.259,224.808,262.139,224.808z"/>
		</g>
		<circle fill="#97C4DE" cx="240.204" cy="217.94" r="3.728"/>
		<g>
			<path fill="#265A85" d="M226.183,229.914c-0.006,0-0.011-0.001-0.018-0.001c-0.124-0.009-0.217-0.118-0.208-0.242
				c0.009-0.13,0.95-13.122-1.084-19.974c-0.036-0.12,0.032-0.246,0.152-0.282c0.122-0.035,0.246,0.034,0.281,0.153
				c2.057,6.932,1.112,20.006,1.102,20.137C226.399,229.823,226.3,229.914,226.183,229.914z"/>
		</g>
		<path fill="#265A85" d="M229.079,210.372c1.468,0,10.354-0.112,10.542,0c0.188,0.113,0.151,3.163,0.151,3.163h-10.392
			L229.079,210.372z"/>
		<g>
			<path fill="#232B59" d="M238.603,217.056c-0.142,0-0.28-0.065-0.368-0.189c-8.747-12.253-11.399-23.395-6.921-29.076
				c0.155-0.196,0.438-0.229,0.635-0.076c0.196,0.155,0.229,0.438,0.075,0.635c-4.155,5.273-1.429,16.26,6.947,27.992
				c0.145,0.203,0.098,0.485-0.105,0.63C238.786,217.029,238.694,217.056,238.603,217.056z"/>
		</g>
		<g>
			<path fill="#232B59" d="M250.803,217.056c-0.034,0-0.068-0.003-0.103-0.012c-0.243-0.057-0.394-0.299-0.337-0.542
				c3.306-14.15,0.69-23.93-2.555-28.005c-0.156-0.195-0.123-0.479,0.072-0.634c0.195-0.156,0.479-0.124,0.635,0.072
				c3.531,4.436,6.103,14.325,2.728,28.773C251.194,216.915,251.008,217.056,250.803,217.056z"/>
		</g>
		<g>
			<path fill="#97C4DE" d="M253.421,224.019c-0.116,0-0.214-0.089-0.225-0.207c-0.129-1.523-1.387-2.938-3.058-3.442
				c-1.91-0.576-3.824,0.126-5.251,1.925c-0.078,0.098-0.219,0.114-0.318,0.037c-0.097-0.078-0.114-0.219-0.037-0.317
				c1.548-1.952,3.638-2.708,5.736-2.077c1.843,0.556,3.232,2.133,3.377,3.836c0.01,0.125-0.082,0.234-0.206,0.245
				C253.435,224.019,253.428,224.019,253.421,224.019z"/>
		</g>
		<g>
			<path fill="#232B59" d="M249.297,232.737c-0.087,0-0.174-0.034-0.24-0.1c-0.133-0.132-0.133-0.347,0-0.479
				c1.888-1.889,4.978-8.379,4.24-12.292c-0.229-1.213-0.822-2.037-1.764-2.45c-1.432-0.626-2.706-0.578-3.788,0.144
				c-2.246,1.5-3.473,5.67-3.366,11.443c0.004,0.186-0.145,0.341-0.332,0.345c-0.164-0.002-0.341-0.146-0.345-0.333
				c-0.112-6.008,1.224-10.389,3.667-12.019c1.269-0.846,2.802-0.916,4.435-0.201c1.16,0.507,1.886,1.499,2.159,2.945
				c0.777,4.117-2.452,10.922-4.426,12.897C249.47,232.704,249.384,232.737,249.297,232.737z"/>
		</g>
		<g>
			<path fill="#232B59" d="M240.525,220.491c-1.406,0-2.551-1.145-2.551-2.551c0-1.406,1.145-2.551,2.551-2.551
				s2.551,1.145,2.551,2.551C243.076,219.347,241.931,220.491,240.525,220.491z M240.525,216.066c-1.033,0-1.873,0.841-1.873,1.874
				s0.84,1.874,1.873,1.874s1.874-0.841,1.874-1.874S241.558,216.066,240.525,216.066z"/>
		</g>
		<path fill="#97C4DE" d="M244.042,228.67c-1.107-0.169-1.032,2.523-0.11,2.485S244.905,228.802,244.042,228.67z"/>
		<path fill="#97C4DE" d="M250.017,231.552c-0.808-0.776-2.296,1.469-1.521,1.969C249.272,234.021,250.647,232.157,250.017,231.552z
			"/>
		<path fill="#2E6C9E" d="M243.805,230.887c-0.028-0.141,0.35-0.17,0.381,0S243.833,231.028,243.805,230.887z"/>
		<path fill="#2E6C9E" d="M248.478,233.236c0.039-0.139,0.389,0.007,0.34,0.173C248.769,233.575,248.439,233.375,248.478,233.236z"
			/>
		<path fill="#97C4DE" d="M251.274,214.814c-0.734-0.132-0.625,0.678-1.148,1.055c-0.373,0.269-1.93-0.038-1.697,0.934
			c0.183,0.762,1.202,0.2,2.213,0.459c1.027,0.264,1.74,1.178,2.084,0.748c0.599-0.748-0.733-1.176-1.016-1.712
			C251.429,215.763,252.033,214.951,251.274,214.814z"/>
	</g>
	<g id="_x33__1_">
		
			<radialGradient id="SVGID_3_" cx="-46.811" cy="-2500.2603" r="40.1882" gradientTransform="matrix(0.9769 0.2138 -0.3332 1.5226 -634.063 4102.3965)" gradientUnits="userSpaceOnUse">
			<stop  offset="0" style="stop-color:#224F73"/>
			<stop  offset="1" style="stop-color:#2E6C9E"/>
		</radialGradient>
		<path fill="url(#SVGID_3_)" d="M176.599,230.857c-3.043,6.262-11.547,12.747-13.731,24.463
			c-2.184,11.717,1.415,34.525,1.568,37.398c0.153,2.875-5.346,12.801-6.188,18.298c-0.842,5.498,2.347,29.178,2.347,29.178
			s5.769,0.41,6.35-1.044c0.418-1.049,9.049-36.619,10.408-44.872c1.353-8.218,7.544-55.755,7.544-55.755L176.599,230.857z"/>
		
			<radialGradient id="SVGID_4_" cx="173.8154" cy="-2416.8311" r="39.401" gradientTransform="matrix(1 0 0 1.4899 0 3887.3564)" gradientUnits="userSpaceOnUse">
			<stop  offset="0" style="stop-color:#224F73"/>
			<stop  offset="1" style="stop-color:#2E6C9E"/>
		</radialGradient>
		<path fill="url(#SVGID_4_)" d="M190.691,231.362c1.633,6.769,10.278,14.921,9.907,26.833c-0.372,11.912-3.862,32.035-4.626,34.813
			c-0.764,2.774,3.577,10.869,3.54,18.271c-0.027,5.563-8.234,28.659-8.234,28.659l-6.491-0.518c0,0,0.198-37.16-0.033-45.487
			c-0.231-8.326-3.81-56.856-3.81-56.856L190.691,231.362z"/>
		<path fill="#F7F6F1" d="M196.127,203.854c-1.229-2.826-6.746-7.846-12.283-10.412c-2.978-1.85-8.745-0.57-11.084,0.917
			c-5.811,2.999-9.056,5.939-11.021,10.72c-1.965,4.782-5.869,26.108-4.401,30.412c0.27,0.791,1.207,2.735,2.506,5.247
			c-0.858,2.204-1.562,3.965-1.711,4.81c-2.027,11.521,0.346,36.079,1.332,36.747c1.766,1.194,39.837,1.582,41.367-1.811
			s1.135-26.732-0.221-32.579c-0.408-1.76-1.025-3.903-1.762-6.24c1.692-4.17,2.917-7.589,2.968-8.417
			C201.966,230.812,199.843,212.397,196.127,203.854z"/>
		<g>
			<path fill="#F7B690" d="M166.945,339.15c-0.348,4.158-0.643,10.56-0.195,11.673c0.222,0.55,2.205,6.79-3.326,5.074
				c-1.587-0.491-2.613-1.006-3.226-1.492c-0.776-0.615-0.324-2.176-0.196-2.494c1.604-3.97,0.548-11.122,0.548-12.497
				C160.552,337.931,167.102,337.277,166.945,339.15z"/>
			<path fill="#072B45" d="M158.68,355.471c-0.701-0.157-0.641,2.193-0.306,2.697c0.374,0.563,4.017,0.95,8.06,0.846
				c3.661-0.092,5.985-0.289,6.281-0.967c0.151-0.348-0.082-1.936-0.792-2.39c-0.627-0.399-6.672-0.774-6.875-0.72
				C164.844,354.991,158.68,355.471,158.68,355.471z"/>
			<path fill="#FE4C60" d="M165.386,349.029c0.801,0.027,2.347,1.765,2.99,3.64c0.749,0.791,2.114,1.077,2.826,2.135
				c0.495,0.734,1.12,2.027,0.852,2.377c-0.934,1.218-12.825,1.013-13.251-0.084c-0.555-1.429,0.607-2.735,0.774-4.142
				C159.715,351.794,164.068,348.983,165.386,349.029z"/>
		</g>
		<g>
			<path fill="#F7B690" d="M191.54,339.073c-1.504,5.396-2.108,10.637-1.66,11.75c0.222,0.55,2.205,6.79-3.326,5.074
				c-3.598-1.115-3.576-3.604-3.451-3.88c1.769-3.873,1.509-10.582,1.685-12.598C184.916,337.94,191.952,337.592,191.54,339.073z"/>
			<path fill="#072B45" d="M181.347,355.471c-0.659,0.41-0.783,2.216-0.447,2.723c0.374,0.563,4.62,0.925,8.664,0.82
				c3.661-0.092,5.522-0.289,5.818-0.967c0.151-0.348-0.082-1.936-0.792-2.39c-0.627-0.399-6.209-0.774-6.413-0.72
				C187.973,354.991,181.347,355.471,181.347,355.471z"/>
			<path fill="#FE4C60" d="M187.582,348.939c0.776,0.023,1.637,0.666,2.293,1.599c0.354,0.505,1.989,2.032,2.166,2.547
				c0.749,0.793,1.115,0.661,1.828,1.719c0.495,0.734,1.12,2.027,0.852,2.377c-0.934,1.218-12.826,1.013-13.251-0.084
				c-0.555-1.429,1.069-2.735,1.237-4.142C182.845,351.794,186.264,348.897,187.582,348.939z"/>
		</g>
		<path fill="#97C4DE" d="M163.478,247.429c0,0-0.172,19.906,1.55,21.027c1.722,1.122,29.875,0.981,31.219,0.115
			c1.673-1.075,1.673-20.449,1.673-22.076C197.919,244.868,164.901,245.441,163.478,247.429z"/>
		<path fill="#F7B690" d="M185.407,257.907c-2.362,4.281-4.867,11.742-4.461,12.636c0.406,0.894,5.852,0.813,6.299,0.271
			c0.398-0.481,1.24-4.882,1.442-5.949c0.196-1.03-0.373-5.14-0.373-5.14L185.407,257.907z"/>
		<path fill="#F7B690" d="M176.942,260.307c1.348,2.646,6.297,8.922,6.289,10.828c-0.004,1.009-5.074,1.54-6.224,1.247
			c-1.077-0.271-2.562-6.043-2.813-8.483C173.943,261.458,176.942,260.307,176.942,260.307z"/>
		<path fill="#232B59" d="M187.936,180.481c3.234-2.225-0.068-13.835-5.234-17.917c-5.166-4.081-9.613-1.767-11.311-0.734
			c-2.686,1.634-13.063,12.24-5.833,19.171C172.786,187.933,187.936,180.481,187.936,180.481z"/>
		<path fill="#2E6C9E" d="M178.034,193.472c-1.791,0.284-4.839,1.465-6.518,3.624c-1.68,2.159,6.724,17.154,7.418,17.154
			c1.465,0,7.479-15.689,6.765-17.539C185.219,195.464,180.049,193.152,178.034,193.472z"/>
		<path fill="#F3A088" d="M174.924,183.667c-0.332,5.204-1.352,10.678-2.232,12.321c-1.238,2.312,5.458,4.514,8.266,3.771
			c2.807-0.743,3.632-2.23,3.715-3.22c0.082-0.99-3.289-4.264-3.88-11.228C180.321,179.76,175.06,181.546,174.924,183.667z"/>
		<path fill="#F7B690" d="M185.859,171.704c0.802,7.142-2.031,14.867-4.341,15.283c-3.134,0.564-8.724-3.515-8.911-10.134
			c-2.197-0.142-2.956-2.621-2.325-3.705c1.128-1.937,2.636,0.171,2.636,0.171s0.733-3.594,6.726-6.551
			C181.632,166.488,185.667,169.989,185.859,171.704z"/>
		<g>
			<path fill="#97C4DE" d="M170.47,224.742c-0.042,0-0.085-0.01-0.125-0.03c-6.106-3.125-5.505-7.338-2.555-13.123
				c0.068-0.135,0.233-0.188,0.368-0.12c0.135,0.069,0.188,0.234,0.12,0.368c-3.344,6.56-2.738,9.801,2.316,12.388
				c0.134,0.069,0.188,0.234,0.119,0.369C170.666,224.687,170.57,224.742,170.47,224.742z"/>
		</g>
		<g>
			<path fill="#97C4DE" d="M188.107,224.396c-0.093,0-0.183-0.047-0.234-0.133c-0.079-0.129-0.037-0.297,0.093-0.375
				c2.468-1.49,3.889-3.36,4.223-5.557c0.366-2.403-0.646-5.157-2.774-7.559c-0.101-0.113-0.09-0.286,0.023-0.386
				c0.112-0.101,0.286-0.091,0.387,0.023c2.237,2.522,3.296,5.44,2.906,8.004c-0.36,2.365-1.868,4.365-4.481,5.943
				C188.205,224.382,188.156,224.396,188.107,224.396z"/>
		</g>
		<g>
			<path fill="#97C4DE" d="M163.085,247.157c-0.096,0-0.189-0.051-0.24-0.141c-1.114-2.007-2.501-4.59-3.096-5.744
				c-0.069-0.135-0.016-0.3,0.118-0.37c0.135-0.069,0.299-0.017,0.37,0.118c0.593,1.151,1.976,3.728,3.088,5.73
				c0.073,0.132,0.026,0.3-0.106,0.373C163.176,247.146,163.13,247.157,163.085,247.157z"/>
		</g>
		<g>
			<path fill="#97C4DE" d="M172.23,243.693c-0.109,0-0.213-0.067-0.255-0.175c-0.284-0.735-0.568-1.457-0.848-2.167
				c-2.244-5.699-4.181-10.623-3.768-15.981c0.012-0.15,0.14-0.271,0.294-0.251c0.151,0.011,0.264,0.143,0.252,0.294
				c-0.404,5.234,1.512,10.102,3.731,15.738c0.281,0.711,0.564,1.434,0.85,2.17c0.055,0.141-0.015,0.3-0.156,0.354
				C172.297,243.688,172.264,243.693,172.23,243.693z"/>
		</g>
		<g>
			<path fill="#97C4DE" d="M197.227,245.822c-0.038,0-0.076-0.007-0.113-0.024c-0.138-0.063-0.199-0.225-0.137-0.363
				c0.17-0.377,0.345-0.818,0.513-1.246c0.229-0.58,0.466-1.179,0.704-1.646c0.069-0.135,0.234-0.188,0.369-0.12
				c0.135,0.069,0.188,0.234,0.12,0.368c-0.226,0.445-0.458,1.032-0.682,1.6c-0.171,0.433-0.348,0.881-0.524,1.27
				C197.431,245.762,197.331,245.822,197.227,245.822z"/>
		</g>
		<g>
			<path fill="#97C4DE" d="M188.186,245.176c-0.034,0-0.069-0.006-0.102-0.02c-0.14-0.056-0.208-0.216-0.152-0.356
				c2.668-6.626,4.45-16.973,3.666-21.288c-0.027-0.148,0.071-0.292,0.221-0.319c0.147-0.025,0.291,0.072,0.318,0.221
				c0.89,4.894-1.218,15.435-3.697,21.59C188.397,245.111,188.294,245.176,188.186,245.176z"/>
		</g>
		<g>
			<path fill="#97C4DE" d="M179.319,244.605c-0.13,0-0.246-0.094-0.27-0.226c-0.011-0.065-1.154-6.578-1.29-13.011
				c-0.08-3.792,0.253-8.271,0.495-11.542c0.159-2.145,0.296-3.997,0.205-4.331c-0.186-0.479-3.041-2.382-8.485-5.651
				c-0.438-0.263-0.768-0.46-0.936-0.565c-0.26-0.162-0.293-0.372-0.289-0.482c0.018-0.526,0.856-0.996,2.222-1.721
				c0.681-0.361,1.709-0.906,1.788-1.141c-0.104-0.597-3.742-4.103-5.49-5.787c-0.373-0.358-0.713-0.688-1-0.966
				c-0.108-0.105-0.11-0.279-0.005-0.388c0.106-0.108,0.279-0.11,0.388-0.005c0.286,0.279,0.626,0.607,0.999,0.965
				c3.578,3.447,5.538,5.444,5.65,6.126c0.083,0.511-0.653,0.928-2.071,1.68c-0.683,0.362-1.813,0.961-1.924,1.238
				c0.005,0.003,0.013,0.009,0.024,0.016c0.167,0.104,0.494,0.3,0.929,0.562c6.11,3.668,8.558,5.343,8.731,5.976
				c0.111,0.407,0.018,1.753-0.187,4.516c-0.242,3.26-0.573,7.725-0.493,11.49c0.135,6.392,1.27,12.862,1.282,12.927
				c0.026,0.149-0.073,0.291-0.222,0.317C179.351,244.603,179.334,244.605,179.319,244.605z"/>
		</g>
		<g>
			<path fill="#97C4DE" d="M180.264,214.784c-0.111,0-0.189-0.028-0.253-0.065c-0.131-0.076-0.176-0.243-0.1-0.375
				c0.076-0.131,0.244-0.175,0.375-0.1c0.004,0.001,0.009,0.001,0.015,0.001c0.283,0,1.69-0.767,3.946-2.554
				c2.46-1.949,3.642-3.284,3.666-3.573c-0.111-0.234-1.48-0.887-2.215-1.238c-1.481-0.708-1.864-0.908-1.742-1.276
				c0.152-0.457,2.664-3.765,6.656-6.837c0.12-0.093,0.292-0.071,0.384,0.049c0.092,0.121,0.069,0.292-0.05,0.384
				c-3.732,2.872-5.995,5.789-6.41,6.466c0.243,0.169,0.899,0.482,1.397,0.719c1.757,0.839,2.527,1.256,2.527,1.734
				c0,1.055-4.825,4.942-6.954,6.169C180.847,214.67,180.488,214.784,180.264,214.784z"/>
		</g>
		<g>
			<path fill="#97C4DE" d="M180.147,219.317c-0.132,0-0.249-0.095-0.27-0.23c-0.002-0.016-0.061-0.401-0.002-1.27
				c0.01-0.151,0.133-0.27,0.292-0.255c0.15,0.01,0.265,0.141,0.254,0.291c-0.054,0.796-0.003,1.146-0.003,1.149
				c0.023,0.149-0.08,0.29-0.229,0.312C180.175,219.317,180.161,219.317,180.147,219.317z"/>
		</g>
		<g>
			<path fill="#97C4DE" d="M179.665,229.22c-0.118,0-0.227-0.076-0.261-0.195c-0.007-0.024-0.172-0.595-0.006-1.423
				c0.029-0.148,0.172-0.24,0.322-0.214c0.148,0.029,0.244,0.174,0.214,0.322c-0.137,0.687-0.007,1.156-0.005,1.161
				c0.041,0.145-0.042,0.296-0.188,0.339C179.717,229.216,179.691,229.22,179.665,229.22z"/>
		</g>
		<g>
			<path fill="#97C4DE" d="M180.122,239.66c-0.132,0-0.248-0.095-0.27-0.23c-0.021-0.121-0.192-1.206,0.013-1.762
				c0.053-0.143,0.211-0.215,0.352-0.162c0.142,0.052,0.214,0.209,0.162,0.351c-0.117,0.318-0.054,1.079,0.013,1.484
				c0.025,0.15-0.076,0.29-0.225,0.315C180.152,239.657,180.137,239.66,180.122,239.66z"/>
		</g>
		<path fill="#F7F6F1" d="M172.542,244.332c0,0,5.746,15.222,5.39,16.409c-0.356,1.188-3.578,3.129-4.395,2.66
			c-0.817-0.469-10.06-15.971-10.06-15.971l1.155-3.321L172.542,244.332z"/>
		<path fill="#F7F6F1" d="M188.186,245.549c0,0-4.04,13.369-4.096,14.035c-0.057,0.668,3.811,2.11,4.638,2.11
			s8.499-15.569,8.499-15.569l-2.064-2.706L188.186,245.549z"/>
		<g>
			<path fill="#97C4DE" d="M180.945,282.978c-0.003,0-0.006,0-0.009,0c-0.151-0.004-0.27-0.132-0.264-0.282
				c0.002-0.065,0.218-6.552-0.245-9.039c-0.027-0.148,0.071-0.291,0.219-0.317c0.149-0.029,0.292,0.068,0.319,0.217
				c0.474,2.548,0.263,8.889,0.254,9.158C181.214,282.86,181.093,282.978,180.945,282.978z"/>
		</g>
	</g>
	<g id="_x31__1_">
		<path fill="#F7F6F1" d="M314.106,204.252c1.363,1.143,4.802,23.333,5.864,33.97c0.945,9.444,0.945,21.005,0.945,21.005
			l-18.141-21.393C302.775,237.835,302.494,194.531,314.106,204.252z"/>
		<polygon fill="#2E6C9E" points="297.829,262.736 295.083,239.882 326.03,241.716 325.728,266.648 		"/>
		<g>
			<path fill="#072B45" d="M294.45,355.088c-0.862-0.141-0.743,1.961-0.429,2.128c2.105,1.115,7.288,1.262,11.366,1.553
				c4.763,0.339,8.604,0.474,10.068-0.63c0.771-0.581,0.854-1.906-0.849-2.729c-0.782-0.377-11.586-1.046-11.833-0.981
				S294.45,355.088,294.45,355.088z"/>
			<path fill="#F7B690" d="M302.99,340.606c0.177,3.144-0.703,7.879-0.148,9.045c0.219,0.46,1.955,3.856,0.68,5.215
				c-1.96,2.084-6.879,2.366-8.14-2.549c1.287-5.228,0.994-9.406,0.994-10.964C296.376,339.799,302.898,338.943,302.99,340.606z"/>
			<path fill="#255882" d="M294.482,355.73c0.341,1.205,17.637,3.155,20.12,1.546c1.317-0.855,0.146-1.833-1.346-2.461
				c-1.737-0.726-5.966-3.959-7.58-4.677c-1.327-0.586-2.293-3.197-2.814-2.727c-0.486,0.438-1.115,3.183-0.888,4.223
				c0.223,1.02,0.067,1.904-0.386,2.043c-2.541,0.771-5.206-3.518-5.893-3.313C294.809,350.629,294.133,354.508,294.482,355.73z"/>
		</g>
		<g>
			<path fill="#F7B690" d="M286.516,339.092c-1.592,4.151-0.512,10.097-0.034,11.283c0.237,0.588,2.349,7.236-3.544,5.407
				c-3.833-1.188-3.682-4.104-3.517-4.543c1.523-4.045-0.066-10.381-0.066-11.809C279.354,337.851,287.103,337.563,286.516,339.092z
				"/>
			<path fill="#072B45" d="M277.884,355.328c-0.748-0.167-0.475,2.446-0.271,2.717c0.203,0.27,4.225,1.17,8.532,1.059
				c3.899-0.101,6.376-0.31,6.691-1.031c0.161-0.371-0.087-2.063-0.845-2.545c-0.669-0.425-7.107-0.826-7.324-0.768
				C284.449,354.818,277.884,355.328,277.884,355.328z"/>
			<path fill="#275C87" d="M285.437,348.417c0.854,0.031,2.091,1.929,2.776,3.926c0.798,0.843,2.252,1.148,3.011,2.274
				c0.528,0.782,1.192,2.159,0.908,2.532c-0.995,1.297-13.664,1.079-14.118-0.09c-0.592-1.521,0.646-2.913,0.824-4.412
				c0.164-1.372-0.003-2.059,0.481-2.785c0.149-0.224,0.526-0.088,0.513,0.344c-0.029,0.947-0.174,2.624,1.195,2.816
				C282.208,349.538,284.033,348.368,285.437,348.417z"/>
		</g>
		<path fill="#255882" d="M311.845,250.494c0,0-2.158,19.297,0.043,43.858c-0.224,1.372-0.448,2.751-0.675,4.133
			c-3.495,21.405-6.811,40.66-7.903,45.941c-0.418,2.02-6.829,1.08-7.109-0.96c-1.086-7.948-5.978-24.413-5.048-31.767
			c0.413-3.275,2.893-9.141,4.55-13.121c2.07-4.972-7.861-32.938-0.118-54.869C297.679,237.778,311.845,250.494,311.845,250.494z"/>
		<path fill="#275C87" d="M297.807,250.089c0,0-9.043,82.781-10.765,94.04c-0.312,2.036-7.485,1.722-7.87-0.302
			c-1.501-7.881-7.248-24.067-6.705-31.458c0.242-3.292,2.412-9.281,3.858-13.343c0.749-2.104-0.771-8.047-2.335-15.875
			c-2.21-11.052-0.876-25.112,2.98-38.168C278.751,238.951,297.807,250.089,297.807,250.089z"/>
		<path fill="#F7F6F1" d="M312.778,293.98l-41.591-1.434c0,0,4.089-75.559-3.867-89.761c-1.947-3.483,4.88-7.692,12.203-10.464
			c5.236-1.984,10.728-3.229,13.448-2.946c2.683,0.277,5.832,1.235,8.886,2.72c5.44,2.641,10.579,6.966,12.249,12.156
			C316.711,212.357,312.778,293.98,312.778,293.98z"/>
		<path fill="#F3A088" d="M297.306,179.011c0,0,1.999,13.233,1.906,13.61c-0.176,0.716-3.738-2.361-4.952-1.66
			c-1.769,1.02-9.296,3.234-9.951,1.66c-0.145-0.347,1.719-15.172,1.719-15.172L297.306,179.011z"/>
		<g>
			<path fill="#232B59" d="M299.37,175.522c3.172-2.901,1.135-4.822,3.931-6.692c-0.688-0.315-1.896-0.361-2.598-0.08
				c0.721-1.088,0.955-2.602,2.029-3.174c-0.795-0.134-2.059,0.042-2.911,0.616c0.029-1.029,1.999-2.117,1.646-3.43
				c-0.451,0.568-1.96,1.235-2.971,1.255c-0.05-0.672,0.657-2.157,2.127-3.058c-1.509-0.124-2.599-0.027-3.763,0.941
				c-0.291-1.043,0.176-1.927,0.862-2.764c-0.92-0.178-2.567,0.079-3.42,1.72c-0.632-0.414-0.92-2.175-0.951-3.366
				c-0.724,0.545-1.514,2.293-1.719,3.109c-0.03-0.867-0.463-2.902-0.81-3.698c-0.853,2.176-2.848,1.648-2.998,4.351
				c-0.247-1.218-2.528-1.974-3.312-2.391c0.827,1.803,0.713,3.587,0.489,3.832c-0.187,0.204-1.661-0.646-1.659-2.433
				c-1.041,1.029-2.103,3.068-0.81,6.285c-0.402-0.024-1.633-1.118-2.088-2.44c-0.397,0.578-0.936,3.768,0.231,6.802
				c-0.271-0.01-0.79-0.334-1.167-0.716c0.925,4.429,3.207,6.127,4.101,7.134c0.682,0.769,2.147,0.14,3.092,0.36
				c2.192,0.511,4.431,0.873,6.664,1.159L299.37,175.522z"/>
			<path fill="#F7B690" d="M300.073,170.109c0.803,1.238,0.745,5.375,0.701,6.788c-0.052,1.611-1.513,8.459-3.32,9.454
				c-1.57,0.864-6.112,1.128-7.217,0.604c-2.686-1.275-5.138-5.923-5.48-8.733c-1.507,0.081-3.159-7.532-0.922-6.358
				c0.67,0.351,0.982,2.206,1.01,2.867c0.027,0.638,0.661,1.477,0.73,1.271c0.583-1.726,0.873-5.428,1.399-5.743
				c0.949-0.569,2.424,0.224,2.629,1.436c0.447-0.595,0.774-1.482,0.046-2.294c1.757-0.392,3.749-0.279,5.313,2.466
				c0.367-0.769,0.208-2.491-0.529-3.417c1.497,0.21,2.729,1.427,3.1,2.778c0.342-0.917,0.201-2.134-0.499-3.354
				C297.741,168.163,299.665,169.479,300.073,170.109z"/>
		</g>
		<path fill="#F7F6F1" d="M267.426,199.986c-6.366,10.187-12.018,37.143-10.732,42.177c1.079,4.229,14.185,9.339,30.154,8.156
			c2.277-0.168,0.685-12.252,0.685-12.252s-13.988-1.104-13.956-4.747c0.031-3.643,1.174-6.303,1.174-10.46
			C274.75,218.702,267.426,199.986,267.426,199.986z"/>
		<path fill="#F3A088" d="M322.243,267.31c-1.081,0.379-1.729-1.059-2.059-0.965c-0.415,0.121-0.525,1.139-1.008,1.225
			c-0.665,0.119-3.686-0.562-3.933-0.85c-0.416-0.483-0.549-2.927,0.121-3.209c0.29-0.123,3.056-0.806,3.623-0.626
			c0.369,0.117,0.487,2.067,0.842,2.079c0.796,0.027-0.069-1.938,1.313-1.792C322.599,263.324,323.072,267.022,322.243,267.31z"/>
		<path fill="#F7B690" d="M296.861,238.223c-0.271-0.712-1.341-0.546-2.152-0.282c0.487-0.332,0.778-0.801,0.576-1.508
			c-0.078-0.277-1.309,0.212-2.419,0.329c-0.918,0.096-1.868-0.35-2.863,0.212c-1.636,0.926-3.155,3.186-3.155,3.186l0.62,4.375
			c2.956,2.593,7.427,1.431,8.584,0.549C297.284,244.144,297.281,239.327,296.861,238.223z"/>
		<g>
			<path fill="#D6956F" d="M290.544,238.936c-0.04,0-0.079-0.021-0.102-0.059c-0.03-0.057-0.01-0.127,0.045-0.158
				c0.239-0.134,0.937-0.229,1.746-0.34c0.826-0.113,1.764-0.241,2.151-0.417c0.058-0.027,0.127,0,0.153,0.058
				c0.026,0.058,0,0.126-0.058,0.153c-0.419,0.189-1.332,0.314-2.216,0.435c-0.72,0.099-1.464,0.201-1.664,0.313
				C290.583,238.931,290.563,238.936,290.544,238.936z"/>
		</g>
		<g>
			<path fill="#97C4DE" d="M287.532,238.342c-0.114,0-0.221-0.072-0.26-0.188c-0.262-0.739-6.589-1.865-9.628-2.407
				c-3.619-0.645-4.142-0.766-4.297-0.996c-0.218-0.327-0.094-1.625,0.479-6.253c0.239-1.931,0.487-3.927,0.649-5.664
				c0.015-0.151,0.149-0.264,0.3-0.247c0.149,0.014,0.261,0.147,0.247,0.297c-0.165,1.745-0.412,3.746-0.652,5.68
				c-0.31,2.497-0.659,5.316-0.568,5.853c0.388,0.158,2.19,0.479,3.937,0.79c6.575,1.171,9.757,1.885,10.052,2.773
				c0.05,0.143-0.028,0.298-0.172,0.346C287.591,238.337,287.562,238.342,287.532,238.342z M273.815,234.47h0.006H273.815z"/>
		</g>
		<g>
			<path fill="#97C4DE" d="M284.362,250.804c-3.8,0-10.327-0.58-11.417-0.732c-0.15-0.02-0.256-0.159-0.233-0.309
				c0.02-0.15,0.156-0.254,0.309-0.233c2.009,0.28,12.634,1.08,13.705,0.545c0.905-0.451,1.586-3.044,1.771-4.006
				c0.029-0.148,0.172-0.247,0.321-0.216c0.149,0.029,0.246,0.172,0.218,0.321c-0.074,0.381-0.758,3.74-2.065,4.392
				C286.626,250.737,285.649,250.804,284.362,250.804z"/>
		</g>
		<g>
			<path fill="#97C4DE" d="M314.998,240.155c-0.008,0-0.015,0-0.022,0c-0.15-0.012-0.264-0.144-0.251-0.295
				c0.014-0.16,1.282-16.104,0.483-23.852c-0.016-0.151,0.095-0.286,0.245-0.301c0.154-0.016,0.284,0.095,0.3,0.245
				c0.803,7.8-0.47,23.792-0.482,23.953C315.26,240.047,315.139,240.155,314.998,240.155z"/>
		</g>
		<path fill="#B3D5E8" d="M300.063,211.792c-3.432,1.449-4.853,2.059-8.304,0c-3.091-1.846-11.574-13.896-12.235-19.47
			c2.774-1.051,5.621-1.895,8.088-2.414c2.19-0.461,4.271,0.611,5.55,0.744c1.607,0.166,3.192-0.7,5.014-0.078
			c1.219,0.416,2.458,0.926,3.683,1.522C302.537,196.092,303.486,203.365,300.063,211.792z"/>
		<path fill="#2E6C9E" d="M291.403,193.197c0,0,2.143,4.548,2.683,5.551c0.539,1.002-2.344,11.518-2.328,13.044
			c1.171,1.325,5.721,4.457,5.721,4.457s2.258-3.457,2.584-4.457c0.262-3.481-4.419-12.657-4.1-14.161
			c0.319-1.503,1.708-5.129,1.708-5.129l-2.603-1.851h-1.618L291.403,193.197z"/>
		<path fill="#9CCBE6" d="M284.448,186.758c-1.002,0-2.784,4.556-2.621,5.205c0.242,0.964,6.36,4.704,7.979,4.704
			c0.464,0,3.739-5.436,4.588-5.513c0.848-0.077,3.243,4.844,4.124,4.548c0.576-0.192,1.935-3.147,1.817-4.304
			c-0.118-1.156-1.031-3.788-1.471-3.869c-0.439-0.08-3.083,2.699-4.471,2.892C292.754,190.649,285.067,186.758,284.448,186.758z"/>
		<g>
			<path fill="#97C4DE" d="M297.115,292.003c-0.03,0-0.061-0.004-0.091-0.015c-0.143-0.05-0.218-0.207-0.168-0.35
				c0.894-2.542,1.304-16.355,1.154-38.895c-0.117-17.867-0.554-34.722-0.719-35.437c-0.457-0.75-9.519-4.1-12.93-5.362
				c-1.732-0.641-2.505-0.928-2.657-1.011c-0.104-0.058-0.174-0.154-0.196-0.27c-0.063-0.344,0.31-0.802,1.09-1.723
				c0.558-0.659,1.718-2.029,1.481-2.348c-0.258-0.345-2.444-0.085-3.751,0.07c-2.227,0.264-3.026,0.318-3.253-0.103
				c-0.103-0.189-0.211-0.648-0.424-1.584c-0.523-2.287-1.496-6.542-3.299-9.077c-0.088-0.123-0.06-0.293,0.063-0.381
				c0.123-0.087,0.294-0.059,0.382,0.063c1.867,2.625,2.856,6.95,3.387,9.273c0.155,0.676,0.301,1.314,0.373,1.446
				c0.207,0.114,1.65-0.056,2.705-0.181c2.37-0.281,3.84-0.413,4.256,0.149c0.496,0.667-0.52,1.867-1.504,3.027
				c-0.348,0.411-0.811,0.957-0.936,1.208c0.343,0.14,1.342,0.51,2.473,0.928c9.568,3.539,13.039,5.035,13.263,5.715
				c0.193,0.591,0.624,17.956,0.742,35.399c0.108,16.071-0.009,35.931-1.184,39.273
				C297.334,291.932,297.229,292.003,297.115,292.003z"/>
		</g>
		<g>
			<path fill="#97C4DE" d="M298.314,216.523c-0.104,0-0.204-0.061-0.249-0.162c-0.062-0.138-0.001-0.3,0.137-0.362
				c3.496-1.567,7.3-7.672,7.334-8.371c-0.068-0.191-0.965-1.027-1.559-1.581c-1.165-1.086-1.46-1.395-1.476-1.656
				c-0.005-0.083,0.044-0.198,0.105-0.254c0.213-0.189,0.714-0.131,2.595,0.186c0.995,0.169,2.484,0.422,2.815,0.334
				c0.291-0.605-0.028-5.208-0.93-7.904c-0.05-0.144,0.028-0.299,0.172-0.347c0.143-0.047,0.299,0.029,0.347,0.173
				c0.852,2.545,1.438,7.974,0.758,8.513c-0.288,0.229-1.027,0.148-3.253-0.228c-0.624-0.105-1.417-0.239-1.87-0.28
				c0.263,0.272,0.735,0.713,1.11,1.063c1.1,1.024,1.627,1.543,1.718,1.873c0.242,0.882-4.192,7.432-7.644,8.979
				C298.39,216.516,298.352,216.523,298.314,216.523z"/>
		</g>
	</g>
</g>
</svg>
