<?xml version="1.0" encoding="utf-8"?>
<!-- Generator: Adobe Illustrator 16.0.0, SVG Export Plug-In . SVG Version: 6.00 Build 0)  -->
<!DOCTYPE svg PUBLIC "-//W3C//DTD SVG 1.1//EN" "http://www.w3.org/Graphics/SVG/1.1/DTD/svg11.dtd">
<svg version="1.1" id="Layer_1" xmlns="http://www.w3.org/2000/svg" xmlns:xlink="http://www.w3.org/1999/xlink" x="0px" y="0px"
	 width="476px" height="476px" viewBox="0 0 476 476" enable-background="new 0 0 476 476" xml:space="preserve">
<path fill="#FFFFFF" d="M421.336,202.453l-1.639-67.12c-0.758-14.975,10.385-27.896,25.309-29.353l22.999,145.139
	c0.277,18.218-5.314,36.042-15.958,50.833l-56.297,68.131c-5.184,6.269-7.739,14.299-7.135,22.409l3.716,21.181l-80.596-38.396
	l0.301-0.641c-6.218-30.564,5.175-62.046,29.512-81.556l4.465-3.586c6.998-5.612,12.639-12.734,16.497-20.833l21.521-45.178
	C390.781,209.302,405.709,200.888,421.336,202.453z"/>
<path fill="#E6E6E6" d="M392.331,413.674l6.615,3.145l-23.589,49.547l-108.724-51.782l23.601-49.545l21.501,10.239L392.331,413.674z
	"/>
<path fill="#E6E6E6" d="M342.816,59.901v98.061c0,23.389-15.646,52.925-34.938,66.073L238,271.691l-69.879-47.656
	c-19.291-13.148-34.937-42.833-34.937-66.073V59.753L238.001,8.417L342.816,59.901z M287.956,155.464V126.49h-35.968V90.522h-27.975
	v35.968h-36.966v28.974h36.966v35.968h27.975v-35.968H287.956z"/>
<path fill="#FFFFFF" d="M287.956,126.49v28.974h-35.968v35.968h-27.975v-35.968h-36.966V126.49h36.966V90.522h27.975v35.968H287.956
	z"/>
<path fill="#E6E6E6" d="M83.671,413.674l80.595-38.396l21.5-10.239l23.6,49.545l-108.722,51.782l-23.588-49.547L83.671,413.674z"/>
<path fill="#FFFFFF" d="M54.666,202.453c15.627-1.565,30.555,6.849,37.307,21.032l21.52,45.178
	c3.86,8.099,9.499,15.221,16.497,20.833l4.464,3.586c24.338,19.51,35.73,50.99,29.513,81.557l0.3,0.639l-80.595,38.396l3.715-21.181
	c0.605-8.11-1.951-16.142-7.134-22.409l-56.297-68.131C13.316,287.162,7.72,269.338,7.997,251.12l22.999-145.139
	c14.37,1.401,25.336,13.476,25.348,27.913c0,0.48-0.02,0.96-0.039,1.44L54.666,202.453z"/>
<g>
	<path fill="#004879" d="M163.576,230.639l69.898,47.656c2.724,1.854,6.303,1.854,9.026,0l69.922-47.656
		c21.547-14.686,38.479-46.61,38.479-72.677V59.901c-0.021-3.056-1.77-5.834-4.517-7.173L241.549,1.243
		c-2.225-1.089-4.828-1.089-7.053,0L129.629,52.572c-2.751,1.338-4.507,4.121-4.527,7.181v98.209
		C125.103,184.028,142.028,215.953,163.576,230.639z M141.088,64.737l96.913-47.418l96.913,47.563v93.081
		c0,20.618-14.444,47.852-31.495,59.47l-65.395,44.584l-65.434-44.588c-17.047-11.614-31.503-38.848-31.503-59.466L141.088,64.737
		L141.088,64.737z"/>
	<path fill="#004879" d="M187.047,163.457h28.974v27.975c0,4.414,3.579,7.993,7.993,7.993h27.974c4.414,0,7.992-3.579,7.992-7.993
		v-27.975h27.977c4.414,0,7.993-3.579,7.993-7.993V126.49c0-4.414-3.579-7.993-7.993-7.993H259.98V90.522
		c0-4.414-3.578-7.993-7.992-7.993h-27.975c-4.414,0-7.993,3.579-7.993,7.993v27.975h-28.974c-4.414,0-7.993,3.579-7.993,7.993
		v28.974C179.054,159.878,182.633,163.457,187.047,163.457z M195.04,134.483h28.974c4.414,0,7.993-3.579,7.993-7.993V98.515h11.99
		v27.975c0,4.414,3.578,7.993,7.991,7.993h27.976v12.988h-27.976c-4.413,0-7.991,3.579-7.991,7.993v27.975h-11.99v-27.975
		c0-4.414-3.579-7.993-7.993-7.993H195.04V134.483z"/>
	<path fill="#004879" d="M341.01,283.264l-4.461,3.582c-22.745,18.148-35.421,46.092-34.095,75.159l-8.784-4.185
		c-3.984-1.9-8.754-0.206-10.65,3.779l-23.601,49.545c-1.896,3.983-0.206,8.758,3.778,10.653L371.92,473.58
		c3.988,1.896,8.757,0.203,10.654-3.781l23.588-49.546c1.896-3.983,0.207-8.757-3.782-10.653l-2.888-1.375l-2.936-16.69
		c-0.358-5.937,1.554-11.783,5.352-16.36l56.297-68.126c0.113-0.141,0.227-0.28,0.328-0.426
		c11.603-16.204,17.718-35.694,17.461-55.626c-0.008-0.374-0.043-0.753-0.103-1.128l-22.999-145.139
		c-0.658-4.18-4.461-7.119-8.672-6.705c-19.139,1.842-33.458,18.397-32.518,37.607l1.437,58.873
		c-15.739,1.588-29.509,11.271-36.331,25.543l-21.516,45.178C351.945,272.234,347.063,278.396,341.01,283.264z M371.58,455.71
		l-94.287-44.909l16.725-35.117l94.277,44.914L371.58,455.71z M351.013,295.732c7.931-6.377,14.323-14.453,18.714-23.631
		l21.521-45.183c5.312-11.131,17.031-17.734,29.306-16.513c0.647,0.066,1.292,0.152,1.937,0.257l-31.456,66.055
		c-1.9,3.984-0.207,8.755,3.776,10.65c3.985,1.899,8.759,0.207,10.655-3.778l35.366-74.265c1.9-3.985,0.207-8.754-3.777-10.65
		c-2.532-1.206-5.172-2.174-7.884-2.892l-1.483-60.646c0-0.07,0-0.141-0.004-0.211c-0.408-7.868,3.829-15.248,10.83-18.858
		l21.508,135.725c0.095,16.222-4.908,32.058-14.307,45.278l-56.122,67.912c-6.514,7.85-9.722,17.923-8.945,28.097
		c0.021,0.267,0.052,0.526,0.099,0.793l1.038,5.916l-62.455-29.75c-4.387-26.767,6.029-53.815,27.229-70.729L351.013,295.732z"/>
	<path fill="#004879" d="M17.792,307.047l56.301,68.135c3.797,4.572,5.709,10.42,5.351,16.353l-2.931,16.694l-2.888,1.375
		c-3.984,1.896-5.678,6.666-3.782,10.653l23.588,49.546c1.9,3.98,6.666,5.674,10.65,3.777l108.723-51.785
		c3.985-1.896,5.675-6.666,3.778-10.65l-23.6-49.545c-1.897-3.988-6.666-5.68-10.651-3.781l-8.785,4.184
		c1.327-29.063-11.345-57.007-34.086-75.154l-4.473-3.591c-6.053-4.862-10.931-11.024-14.28-18.03L99.184,220.05
		c-6.818-14.272-20.587-23.955-36.327-25.547l1.44-58.904c0.023-0.57,0.043-1.136,0.043-1.706
		c0.054-18.577-14.066-34.129-32.565-35.866c-4.207-0.41-8.008,2.529-8.668,6.705L0.109,249.871
		c-0.063,0.371-0.094,0.75-0.102,1.128c-0.262,19.928,5.858,39.418,17.457,55.622C17.57,306.766,17.679,306.906,17.792,307.047z
		 M181.989,375.688l16.723,35.117l-94.29,44.909l-16.716-35.112l79.995-38.106L181.989,375.688z M37.494,116.058
		c6.686,3.43,10.881,10.323,10.857,17.835c0,0.371-0.016,0.737-0.031,1.108v0.137l-1.483,60.645
		c-2.712,0.718-5.351,1.686-7.884,2.892c-3.984,1.896-5.674,6.666-3.778,10.654l35.367,74.261c1.901,3.985,6.67,5.68,10.654,3.782
		c3.985-1.899,5.679-6.67,3.778-10.653l-31.46-66.056c0.648-0.105,1.3-0.199,1.952-0.257c12.266-1.21,23.979,5.394,29.29,16.517
		l21.52,45.179c4.391,9.174,10.783,17.25,18.706,23.623l4.473,3.598c21.196,16.914,31.608,43.957,27.221,70.719l-62.456,29.75
		l1.039-5.916c0.046-0.262,0.082-0.527,0.101-0.793c0.777-10.17-2.431-20.243-8.945-28.092L30.29,297.074
		c-9.397-13.219-14.405-29.059-14.307-45.279L37.494,116.058z"/>
</g>
</svg>
