<?xml version="1.0" encoding="utf-8"?>
<!-- Generator: Adobe Illustrator 16.0.0, SVG Export Plug-In . SVG Version: 6.00 Build 0)  -->
<!DOCTYPE svg PUBLIC "-//W3C//DTD SVG 1.1//EN" "http://www.w3.org/Graphics/SVG/1.1/DTD/svg11.dtd">
<svg version="1.1" id="Layer_1" xmlns="http://www.w3.org/2000/svg" xmlns:xlink="http://www.w3.org/1999/xlink" x="0px" y="0px"
	 width="350px" height="350px" viewBox="0 0 350 350" enable-background="new 0 0 350 350" xml:space="preserve">
<path fill="#E6E6E6" d="M69.516,166.975h44.716l21.576-53.6c0.585-1.608,2.169-2.63,3.876-2.5c1.688,0.068,3.15,1.188,3.656,2.8
	l32.801,105.684l31.976-95.919c0.499-1.498,1.833-2.562,3.403-2.716c1.574-0.172,3.1,0.616,3.869,2l20.575,36.268l0.288,0.508h50.32
	l0.264-0.596c9.388-21.469,4.737-46.492-11.736-63.156c-22.192-22.193-58.174-22.193-80.367-0.001v0.001l-15.896,15.896
	c-1.595,1.481-4.062,1.481-5.656,0l-15.896-15.896c-22.192-22.193-58.174-22.193-80.367-0.001c0,0,0,0-0.001,0.001
	c-18.732,18.916-21.932,48.256-7.716,70.764L69.516,166.975z"/>
<path fill="#004879" d="M322.428,158.515h-25.764c12.484-34.119-5.054-71.899-39.173-84.383
	c-24.052-8.801-51.024-2.843-69.132,15.271L176,101.759l-12.36-12.36c-25.692-25.71-67.362-25.724-93.072-0.032
	c-20.226,20.212-25.086,51.17-12.028,76.608H29.572c-2.761,0-5,2.238-5,5c0,2.761,2.239,5,5,5h35.344
	c1.733,2.293,3.614,4.471,5.632,6.52l101.916,101.904c1.953,1.953,5.118,1.953,7.071,0c0,0,0,0,0.001,0l101.916-101.904
	c4.14-4.171,7.7-8.88,10.584-14h30.399c2.762,0,5-2.239,5-5c0-2.762-2.238-5-5-5L322.428,158.515z M77.6,96.471
	c21.802-21.802,57.15-21.802,78.952,0l15.896,15.896c1.984,1.875,5.087,1.875,7.071,0l15.896-15.896
	c21.771-21.805,57.098-21.831,78.901-0.059c16.337,16.312,20.939,41,11.579,62.103h-49.072l-20.576-36.268
	c-1.365-2.4-4.418-3.24-6.818-1.875c-1.07,0.609-1.879,1.591-2.27,2.759l-30.992,92.972l-31.88-102.715
	c-0.809-2.638-3.603-4.122-6.241-3.313c-1.443,0.442-2.608,1.513-3.171,2.913l-21.32,52.988H70.06
	C55.99,143.899,59.123,115.016,77.6,96.471z M274.4,175.423L176,273.808l-97.836-97.832h38.768c2.04-0.002,3.874-1.241,4.636-3.133
	l17.336-43.068l32.32,104.136c0.643,2.074,2.552,3.495,4.724,3.516H176c2.154-0.002,4.064-1.383,4.74-3.428l32.352-97.056
	l16.473,29.056c0.887,1.566,2.548,2.534,4.348,2.532h46.26C278.437,170.98,276.507,173.285,274.4,175.423z"/>
</svg>
