<?xml version="1.0" encoding="utf-8"?>
<!-- Generator: Adobe Illustrator 16.0.0, SVG Export Plug-In . SVG Version: 6.00 Build 0)  -->
<!DOCTYPE svg PUBLIC "-//W3C//DTD SVG 1.1//EN" "http://www.w3.org/Graphics/SVG/1.1/DTD/svg11.dtd">
<svg version="1.1" id="Layer_1" xmlns="http://www.w3.org/2000/svg" xmlns:xlink="http://www.w3.org/1999/xlink" x="0px" y="0px"
	 width="512px" height="296px" viewBox="0 0 512 296" enable-background="new 0 0 512 296" xml:space="preserve">
<g>
	<ellipse fill="#C2D6FF" cx="256.829" cy="270.949" rx="245.721" ry="6.992"/>
	<path fill="#4B9296" d="M337.919,72.042c0,0-6.266,35.364-13.782,36.564c-7.519,1.2-15.718,7.149-15.718,7.149l6.212,4.799
		c0,0,18.378,2.3,21.793,0.921C339.839,120.098,337.919,72.042,337.919,72.042z"/>
	<path fill="#EA7373" d="M129.56,101.103c-7.736-13.125-13.397-17.163-13.397-17.163s-3.734,20.755,3.856,26.61
		c7.59,5.856,10.3,18.908,10.3,18.908s-4.582,3.337-3.834,6.476c0.041,0.172,2.298,3.091,4.653,2.228
		c1.779-0.652,3.797-2.519,6.331-6.631C137.469,131.531,137.296,114.227,129.56,101.103z"/>
	<path fill="#E8F7F0" d="M372.05,73.19c-5.732-10.391-19.185-13.817-31.01-7.726l-1.972,14.294l2.088,69.24
		c11.058,0.925,25.729,4.26,36.784,8.057C378.13,148.07,377.386,82.862,372.05,73.19z"/>
	<rect x="363.619" y="182.076" fill="#542360" width="4.063" height="67.73"/>
	<polygon fill="#542360" points="334.755,266.864 364.778,250.09 364.778,266.864 366.928,266.864 366.928,250.292 398.055,266.864 
		401.362,266.864 367.425,248.796 366.726,249.304 364.778,249.304 364.778,249.444 363.857,248.806 331.537,266.864 	"/>
	<path fill="#542360" d="M369.279,250.823h-6.854v-3.929c0-1.865,1.512-3.375,3.376-3.375h0.102c1.864,0,3.376,1.511,3.376,3.375
		V250.823z"/>
	<path fill="#432C47" d="M338.524,255.644c0,0.47-0.472,12.765-0.472,12.765h-24.79c0,0,17.583-8.268,18.466-10.146
		c0.883-1.88-0.304-4.856-0.304-4.856l7.1-0.853V255.644z"/>
	<path fill="#7FD3D3" d="M333.453,87.021c0,10.896,3.72,60.509,4.089,65.417c1.205,0.047,2.409,0.143,3.614,0.244l-0.271-75.104
		l0.224-12.148C339.298,67.231,333.453,77.312,333.453,87.021z"/>
	<path fill="#432C47" d="M368.242,163.272l-27.086-14.274L290.417,169.7c-3.941,1.397-5.583,5.825-3.423,9.24l44.358,77.712
		l9.686-1.209l-42.131-72.617L368.242,163.272z"/>
	<path fill="#1B2B80" d="M324.482,171.595c0,0-1.635,4.166-0.346,6.718c1.286,2.554,19.068,11.156,19.068,11.156l6.001-7.662
		L324.482,171.595z"/>
	<path fill="#757AD8" d="M418.139,129.537c-2.687-8.868-6.718-17.737-19.617-15.05s-17.738-4.032-24.456-1.613
		c-6.719,2.42-6.181,33.324-13.975,41.118c-7.793,7.794-44.478,12.497-34.13,22.843c0,0,16.931,9.675,19.886,9.675
		c2.957,0,38.7-4.837,42.73-4.837C392.608,181.672,420.826,138.405,418.139,129.537z M397.983,155.066
		c-8.33,8.332-13.975,11.288-23.381,7.256c-9.405-4.031,3.493-35.204,3.493-35.204c7.794-4.032,2.419-0.538,10.061,1.612
		s10.902-3.225,14.665,0.538C406.584,133.03,406.315,146.736,397.983,155.066z"/>
	<path fill="#1B2B80" d="M415.043,121.662c0,0,0.678,10.833-8.191,27.763c-8.868,16.93-15.855,28.486-26.068,28.486
		c-10.211,0-36.817,5.643-38.16,9.943c-1.345,4.301,8.062-1.343,15.317-1.343c7.257,0,22.306-1.076,30.637-4.837
		C396.908,177.91,429.951,132.062,415.043,121.662z"/>
	<path fill="#18287D" d="M341.156,148.998c0.02,0.25,2.676,5.146,2.676,5.146l-51.912,23.389c0,0,32.984,78.832,29.395,82.342
		c-3.589,3.511-18.287,9.811-18.287,9.811h24.725l0.358-11.213h1.792l-15.767-74.983l57.092-12.614l6.69-12.964
		c0,0,0.009-0.38,0.022-1.034C365.68,152.759,353.419,149.465,341.156,148.998z"/>
	<rect x="224.375" y="137.867" fill="#542360" width="79.37" height="3.404"/>
	<polygon fill="#1E3340" points="214.163,99.706 225.988,137.867 278.997,137.867 265.079,98.136 	"/>
	<path fill="#FC7575" d="M352.026,40.582c0,0,5.107,16.394,4.437,24.456c0,0-4.001,3.752-8.109,6.055
		c-3.006,1.685-6.727-0.3-7.197-3.604c-0.024-0.187-0.002-0.376-0.007-0.572l-0.408-15.047L352.026,40.582z"/>
	<polygon fill="#FFFFFF" points="340.741,66.771 343.639,71.061 342.928,78.698 340.005,77.928 	"/>
	<polygon fill="#E3E4FF" points="356.523,61.867 343.639,71.061 342.928,78.698 355.509,72.989 	"/>
	<path fill="#FD5E5A" d="M352.026,40.582L340.741,51.87l0.281,10.386c5.229-0.224,10.114-7.597,10.682-16.355
		c0.098-1.505,0.343-2.883,0.669-4.167C352.157,41,352.026,40.582,352.026,40.582z"/>
	<path fill="#FC7575" d="M331.353,25.264c-0.17,0.17-0.353,0.474-0.529,0.892c-0.81,1.916-1.483,6.238-0.16,11.202
		c1.613,6.047,4.435,18.812,9.406,18.812c4.971,0,11.623-6.316,12.161-13.841c0.537-7.525,3.963-11.287,1.007-17.065
		S331.353,25.264,331.353,25.264z"/>
	<path fill="#FD5E5A" d="M353.237,25.264c-2.956-5.778-21.885,0-21.885,0c-0.17,0.17-0.353,0.474-0.529,0.892
		c-0.81,1.916-1.483,6.238-0.16,11.202c0.215,0.807,0.451,1.732,0.712,2.731c2.254-1.55,3.896-4.428,5.345-7.875
		c0.247-0.291,0.361-2.57,4.693-4.223c0.898,1.973,1.942,1.842,4.304,6.272c0.16,8.974,4.334,10.287,6.141,10.432
		c0.187-0.771,0.315-1.563,0.372-2.366C352.768,34.804,356.193,31.042,353.237,25.264z"/>
	<path fill="#0F1D5B" d="M347.863,33.729c0,0-1.747-3.494-3.494-5.24c-1.746-1.747-1.21-3.226-1.21-3.226s-6.273,1.075-8.108,5.375
		c-1.834,4.299-4.005,10.615-10.914,7.792c-6.91-2.821-5.701-11.825-4.089-11.825c1.613,0,3.091-1.343,3.091-1.343
		s5.777-8.197,8.869-8.197c3.09,0,0.402-2.821,5.643-3.628c5.241-0.806,9.407,3.897,9.407,3.897s2.283-2.553,6.314,0
		s2.168,12.497,0.748,15.991c-1.42,3.493-1.516,9.203-1.516,9.203S347.863,43.538,347.863,33.729z"/>
	<path fill="#FC7575" d="M350.649,32.068c-0.58-1.805-2.954-2.016-3.896-0.371c-0.78,1.36-1.241,3.04,0.034,4.317
		c2.554,2.553,4.838-0.269,4.032-3.359C350.765,32.447,350.708,32.251,350.649,32.068z"/>
	<path fill="#B4D2D9" d="M377.455,75.101c-4.992-7.263-13.796-13.682-20.932-12.845l-10.532,31.538
		c0.085,13.936-5.384,81.236-5.105,86.899c9.385,0.56,30.342-1.91,39.604-7.313C380.635,162.85,384.277,85.031,377.455,75.101z"/>
	<g>
		<g>
			<polygon fill="#432C47" points="168.372,266.864 186.192,144.088 181.936,143.471 164.026,266.864 			"/>
		</g>
		<g>
			<polygon fill="#432C47" points="353.394,266.864 335.483,143.471 331.229,144.088 349.048,266.864 			"/>
		</g>
	</g>
	<rect x="171.164" y="141.271" fill="#0F1D5B" width="171.33" height="5.017"/>
	<path fill="#FD5E5A" d="M346.25,34.2c0.061-0.741,0.874-2.89,2.049-2.15c1.177,0.739,2.123,3.393,0.189,3.929
		C346.552,36.518,346.192,34.911,346.25,34.2z"/>
	<g>
		<path fill="#18287D" d="M337.65,46.942h-2.821v-6.897c0-0.149,0.12-0.269,0.269-0.269s0.269,0.12,0.269,0.269v6.359h2.284
			c0.148,0,0.269,0.12,0.269,0.269C337.919,46.822,337.799,46.942,337.65,46.942z"/>
	</g>
	<ellipse fill="#18287D" cx="338.464" cy="39.171" rx="1.158" ry="1.41"/>
	<ellipse fill="#18287D" cx="332.724" cy="40" rx="0.985" ry="1.298"/>
	<g>
		<path fill="#FFFFFF" d="M337.907,50.135c-0.605,0-0.994-0.11-1.006-0.114c-0.141-0.043-0.222-0.192-0.181-0.333
			c0.044-0.143,0.198-0.219,0.335-0.184c0.112,0.041,2.716,0.752,4.901-2.099c0.09-0.12,0.256-0.136,0.377-0.051
			c0.117,0.09,0.14,0.261,0.05,0.378C340.823,49.77,339.007,50.135,337.907,50.135z"/>
	</g>
	<path fill="#18287D" d="M336.374,35.701c0,0,1.322-1.344,2.935-1.344c1.611,0,2.861,1.881,2.861,1.881s-1.209-1.523-2.596-1.254
		c-1.386,0.269-3.2,1.612-3.2,1.612V35.701z"/>
	<path fill="#749CFE" d="M111.899,178.48c-1.24,0.007-22.484,5.896-21.31-6.886c1.174-12.783-0.235-25.53-7.185-28.124
		c-15.009-5.604-34.096,0.071-34.096,0.071l20.265,36.701l13.578,20.974l19.608-1.644l39.006,4.584
		C141.766,204.157,138.158,178.319,111.899,178.48z"/>
	<polygon fill="#18287D" points="85.799,198.409 79.92,198.445 71.894,277.468 72.979,277.461 	"/>
	<polygon fill="#18287D" points="123.432,198.178 129.311,198.143 138.305,277.061 137.218,277.067 	"/>
	<path fill="#6265A8" d="M49.31,143.669c0.03,4.868,19.064,49.87,21.712,55.496c6.646,14.124,34.013,3.664,41.287,5.241
		c7.274,1.579,22.092,7.708,28.833,3.88c6.74-3.828-1.09-14.328-17.122-14.229c-16.032,0.098-28.163,8.065-37.746-2.154
		c-9.582-10.219-8.298-30.561-13.883-42.696C66.805,137.072,49.31,143.669,49.31,143.669z"/>
	<path fill="#EA7373" d="M137.552,173.141l30.442,9.08c2.722,0.812,4.507,3.393,4.301,6.225c-0.471,6.467-1.732,18.039-4.986,26.303
		c-4.709,11.957-14.144,36.436-14.318,43.032c-0.174,6.596,1.926,17.364,1.926,17.364l-10.401-0.275c0,0,0.937-6.626,1.063-11.446
		c0.127-4.82,0.795-10.895,0.895-14.7c0.092-3.458,5.725-39.086,5.133-54.189c-0.059-1.519-20.469-9.601-20.469-9.601
		L137.552,173.141z"/>
	<path fill="#F98A8A" d="M115.889,166.745l33.632,24.434c3.749,3.162,4.947,12.211,3.088,16.749
		c-2.882,7.042-7.396,17.277-11.561,23.391c-6.817,10.01-18.305,25.918-18.305,25.918s-3.58,11.199-1.23,13.676
		c2.349,2.477,5.335,4.456,5.335,4.456s-10.183-0.218-11.912-2.041c-1.729-1.822-0.587-9.273-0.52-11.811
		c0.067-2.536,1.2-4.342,1.2-4.342s1.021-4.067,2.721-9.32c2.464-7.616,3.66-19.545,6.842-26.691
		c5.377-12.074,8.113-11.686,8.113-11.686l-32.685-21.62L115.889,166.745z"/>
	<path fill="#480736" d="M110.376,82.132c0,0,6.709,0.222,10.295,6.236c13.534,22.696-2.473,63.999,3.792,70.672
		c7.157,7.622,43.861,18.362,46.787,25.547c0,0-17.046-2.805-26.028,5.716c-8.982,8.521-11.929,19.173-11.929,19.173
		s-35.306-20.117-44.307-23.702c-11.601-4.622-1.906-54.573,0.854-72.618c2.76-18.045-1.373-27.389,5.406-30.019
		C102.026,80.509,110.376,82.132,110.376,82.132z"/>
	<path fill="#0F1D5B" d="M154.917,275.145c0,0-3.387,4.423-5.644,4.363c-2.257-0.06-4.757-4.639-4.757-4.639l0.701-6.019
		c0,0,1.612,6.08,4.175,6.147c2.563,0.068,4.518-5.918,4.518-5.918L154.917,275.145z"/>
	<path fill="#0F1D5B" d="M116.253,270.646l5.261,0.266l5.335,4.456c0,0-9.382-0.057-11.578-0.972
		c-2.197-0.914-2.259-5.583-1.624-7.738c0.635-2.156-0.958-4.356-1.576-5.007c-0.617-0.65,3.545-4.477,3.545-4.477L116.253,270.646z
		"/>
	<g>
		<path fill="#C5C6FE" d="M110.963,78.158c0,0,4.797,3.71,11.125,0.977c6.328-2.734,14.538-8.748,9.653-19.123
			c-4.885-10.375-13.932-16.41-13.932-16.41L110.963,78.158z"/>
		<path fill="#F98A8A" d="M114.167,70.399c0,0-1.597,8.637,0.087,14.083c1.683,5.445-9.338,8.432-11.658,2.736
			c-2.318-5.696,2.041-19.045,2.041-19.045L114.167,70.399z"/>
		<path fill="#EA7373" d="M104.637,68.173l9.53,2.225c0,0-0.409,2.219-0.595,5.115c-0.25,0.081-0.506,0.151-0.769,0.212
			c-3.288,0.754-6.886-0.842-9.35-3.331C104.07,69.909,104.637,68.173,104.637,68.173z"/>
		<path fill="#F98A8A" d="M117.809,43.603c0,0,4.087,4.289,3.359,9.622c-0.729,5.334,0.146,8.375,0.158,10.278
			s-2.839,7.757-8.542,8.934s-12.332-3.985-12.361-8.68c-0.029-4.694,0.746-12.884,4.34-16.521
			C108.356,43.598,117.809,43.603,117.809,43.603z"/>
		<path fill="#E3E4FF" d="M117.809,43.603c0,0-12.505,9.118-15.39,14.575c-2.884,5.458,4.096,13.313,3.481,16.362
			c-0.616,3.05-10.743,9.869-14.636,6.021c-3.894-3.845-0.949-9.891-0.949-9.891s-7.359,0.045-6.889-6.048
			c0.47-6.094,5.518-14.345,12.323-18.22C110.351,38.088,117.809,43.603,117.809,43.603z"/>
		<path fill="#C5C6FE" d="M83.491,60.831c5.325-16.814,25.673-22.976,34.318-17.228c-8.882-4.563-27.832,2.147-33.004,17.636
			c-0.631,2.146-1.192,4.545-0.15,6.309c1.036,1.792,3.483,2.563,5.657,2.694l0.657,0.04c-0.03,0.304-3.468,6.055,0.295,10.28
			c-2.635-2.313-2.739-6.249-1.566-9.487c-2.228-0.137-4.627-0.794-6.067-2.882C82.225,66.111,82.801,63.267,83.491,60.831z"/>
		<path fill="#F98A8A" d="M104.562,56.689c0,0-0.145-2.956-3.086-2.081c-2.942,0.875-1.665,5.733,0.251,6.291
			C103.643,61.456,104.562,56.689,104.562,56.689z"/>
		<g>
			<path fill="#18287D" d="M111.571,65.557c-2.246-0.514-3.188-1.489-2.889-1.315c-0.181-0.174-0.444,0.099-0.264,0.273
				c0.302,0.121,1.279,1.623,6.318,1.802c0.251,0.009,0.265-0.372,0.013-0.381C114.749,65.937,112.818,65.829,111.571,65.557z"/>
		</g>
		<g>
			<path fill="#18287D" d="M111.938,67.284c0.098,0.002,0.183-0.072,0.195-0.171c0.009-0.104-0.066-0.198-0.17-0.209
				c-0.416-0.043-1.573-0.233-1.927-0.606c-0.294-0.323-1.085,0.667,1.888,0.985C111.929,67.283,111.932,67.284,111.938,67.284z"/>
		</g>
		<g>
			<path fill="#18287D" d="M114.394,61.789c-0.113-0.619-0.546-1.71-1.185-1.572c-0.644,0.221-1.246,0.419-1.794,0.802
				c0.655-0.074,1.256-0.355,1.868-0.43C113.563,60.389,113.863,61.064,114.394,61.789z"/>
		</g>
		
			<ellipse transform="matrix(-0.9996 -0.0265 0.0265 -0.9996 234.4737 121.0976)" fill="#18287D" cx="118.04" cy="58.994" rx="0.884" ry="0.793"/>
		
			<ellipse transform="matrix(0.9782 0.2077 -0.2077 0.9782 14.4411 -21.5124)" fill="#18287D" cx="109.647" cy="58.002" rx="0.884" ry="0.793"/>
		<path fill="#C5C6FE" d="M119.796,54.902c1.284,0.247,1.114,1.102,1.114,1.102s-0.552-0.195-1.258-0.589l-3.223-0.102
			C116.737,55.212,118.596,54.671,119.796,54.902z"/>
		<path fill="#C5C6FE" d="M109.694,53.352c-1.299-0.148-1.394,0.719-1.394,0.719s0.586-0.021,1.378-0.187l3.105,0.868
			C112.52,54.565,110.908,53.492,109.694,53.352z"/>
	</g>
	<g>
		<path fill="#5B6D7E" d="M134.935,148.961h-1.713c0-8.364-3.836-15.168-8.552-15.168s-8.551,6.805-8.551,15.168h-1.714
			c0-9.467,4.509-16.882,10.265-16.882C130.426,132.079,134.935,139.495,134.935,148.961z"/>
	</g>
	<polygon fill="#75B8BF" points="107.667,145.898 139.289,145.981 142.227,173.286 101.961,173.286 	"/>
	<polygon fill="#5B6D7E" points="111.79,145.898 112.958,173.286 101.961,173.286 107.667,145.898 	"/>
	<polygon fill="#5B6D7E" points="116.119,148.961 118.69,169.903 140.964,170.475 122.094,167.62 	"/>
	<polygon fill="#1E3340" points="314.824,117.621 283.945,95.562 316.007,92.65 340.253,118.228 	"/>
	<path fill="#F98A8A" d="M331.081,108.606c0,0,3.289,0.735,4.506,2.038c1.552,1.661,5.236,4.363,6.784,4.363
		c1.547,0,8.14,0.644,8.14,0.644l1.107,7.254c0,0-24.599-5.633-25.756-6.874c-1.159-1.241,5.768,0.921,5.768,0.369
		c0-0.553-8.343-1.174-7.912-2.567c0.43-1.393,7.697,1.876,8.343,1.185c0.645-0.69-8.773-1.842-8.773-3.315
		c0-1.474,9.376,2.13,9.376,2.13s0.171-0.749-2.366-1.946c-2.537-1.197-4.997-2.162-4.435-2.763
		c0.561-0.602,7.048,3.213,7.903,2.297L331.081,108.606z"/>
	<path fill="#CAE9EF" d="M363.619,68.667c0,0-1.474,6.055-0.761,15.474c0.714,9.419,1.932,23.862-0.07,28.572
		c-2.002,4.709-16.663,0-16.663,0v11.146c0,0,21.258,8.635,27.417,5.808c6.157-2.825,8.663-27.175,8.048-39.091
		C380.675,72.851,367.547,60.107,363.619,68.667z"/>
	<path fill="#FC7575" d="M310.303,110.383c0,0-0.649,0.656-1.859,2.649c-1.173,1.931,0.711,3.844,1.075,4.248
		c0.694,0.769,2.004,1.805,2.845,2.321c0.84,0.518,1.396,0.776,2.268,0.954c1.279,0.261,5.17-4.56,4.846-5.005
		c-0.219-0.298-0.51-0.529-0.838-0.427c-0.348,0.107-4.159,2.777-4.159,2.777s3.704-3.807,3.575-4.912
		c-0.13-1.105-0.8-0.953-1.113-0.665c-0.313,0.287-4.788,3.886-4.788,3.886s3.413-4.526,3.329-5.248
		c-0.084-0.72-1.026-1.205-2.544,0.621c-0.851,1.024-2.896,2.707-2.896,2.707s2.082-3.403,1.955-4.483
		C311.871,108.725,310.303,110.383,310.303,110.383z"/>
	<path fill="#F98A8A" d="M93.766,83.94c0,0-8.25,2.233-18.806,15.917c-7.891,10.23-15.895,25.151-16.076,32.035
		c-0.181,6.884,33.929,10.889,45.429,6.308c0,0,5.089,4.701,10.093,4.833c5.004,0.132,3.994-1.322,5.362-5.094
		c1.369-3.772-3.125-6.304-6.863-7.34c-1.123-0.311-0.949-0.447-5.971,0.437c-5.022,0.883-27.081,2.269-30.6-1.441
		c-3.52-3.71,9.729-18.479,12.514-21.121C91.633,105.831,99.612,94.571,93.766,83.94z"/>
	<path fill="#F98A8A" d="M128.542,130.288c0,0-3.357,0.403-4.459,1.831c-0.778,1.008-1.534,3.483-0.705,5.042
		c0.828,1.559,2.956,1.02,3.663,1.727c0.707,0.707,1.103,0.932,2.398,1.191c1.295,0.26,1.749,0.919,2.506,0.919
		c0.758,0,1.483-1.731,1.793-3.837c0.311-2.107-0.569-3.817-0.569-3.817S131.531,130.288,128.542,130.288z"/>
	<path fill="#4B9296" d="M356.375,60.53l-10.384,33.263c0,0,7.566-2.982,9.82-7.542c2.253-4.559,0-6.009,0-6.009
		s7.434-13.677,7.434-15.957S356.375,60.53,356.375,60.53z"/>
	<path fill="#4B9296" d="M340.944,93.749c0,0-5.693-11.105-4.233-12.564c1.459-1.46,1.79-1.357,1.79-1.357
		s-1.749-7.874-1.195-10.776c0.554-2.901,3.751-5.567,3.751-5.567l0.1,3.293L340.944,93.749z"/>
	<path fill="#EA7373" d="M104.001,57.695c0,0-2.15-3.478-2.94-1.691c-0.791,1.788,0.126,3.787,1.47,3.376
		C103.875,58.972,104.001,57.695,104.001,57.695z"/>
</g>
</svg>
