<?xml version="1.0" encoding="utf-8"?>
<!-- Generator: Adobe Illustrator 16.0.0, SVG Export Plug-In . SVG Version: 6.00 Build 0)  -->
<!DOCTYPE svg PUBLIC "-//W3C//DTD SVG 1.1//EN" "http://www.w3.org/Graphics/SVG/1.1/DTD/svg11.dtd">
<svg version="1.1" id="Layer_1" xmlns="http://www.w3.org/2000/svg" xmlns:xlink="http://www.w3.org/1999/xlink" x="0px" y="0px"
	 width="758.078px" height="130.097px" viewBox="0 0 758.078 130.097" enable-background="new 0 0 758.078 130.097"
	 xml:space="preserve">
<g>
	<g>
		<path fill="#7EC92E" d="M67.369,27.232c-1.278-2.171-3.601-1.904-5.479-0.732c-0.732,0.456-1.64,0.116-1.958-0.596v-8.622h-0.117
			l-0.01,0.003c-16.346,0.483-30.598,9.308-38.646,22.364l6.271,3.62c0.208-1.15,0.676-2.14,1.378-2.871
			c0.861-0.898,2.035-1.378,3.394-1.391c1.394-0.014,2.761,0.57,3.767,1.594c1.004,1.022,1.56,2.401,1.524,3.785
			c-0.044,1.727-0.948,2.832-1.909,3.591l6.031,3.482c3.943-6.011,10.574-10.097,18.185-10.553l0.014,0.009h0.117v-8.515
			c0.31-0.696,1.183-1.041,1.912-0.625c1.322,0.754,2.623,1.412,4.1,0.609C67.74,31.409,68.405,28.992,67.369,27.232z"/>
		<path fill="#50A2F6" d="M32.2,40.442c-2.52,0.021-3.449,2.167-3.374,4.38c0.029,0.862-0.719,1.478-1.495,1.397l-7.467-4.311
			l-0.058,0.101l-0.001,0.01C12.05,56.418,12.567,73.172,19.85,86.67l6.271-3.62c-0.893-0.755-1.515-1.655-1.798-2.629
			c-0.347-1.194-0.176-2.451,0.494-3.635c0.685-1.215,1.874-2.105,3.264-2.466c1.386-0.358,2.86-0.149,4.041,0.573
			c1.473,0.9,1.978,2.236,2.154,3.448l6.032-3.483c-3.234-6.42-3.458-14.206-0.046-21.024l0.013-0.009l0.059-0.101l-7.374-4.257
			c-0.448-0.616-0.31-1.544,0.415-1.969c1.314-0.767,2.534-1.565,2.577-3.245C36.003,42.21,34.243,40.426,32.2,40.442z"/>
		<path fill="#7EC92E" d="M26.057,77.505c-1.241,2.192,0.152,4.07,2.106,5.111c0.762,0.405,0.92,1.362,0.463,1.993l-7.467,4.312
			l0.058,0.1l0.008,0.007c8.592,13.914,23.36,21.845,38.691,22.287v-7.24c-1.1,0.395-2.191,0.483-3.176,0.242
			c-1.208-0.297-2.211-1.074-2.9-2.245c-0.71-1.2-0.888-2.676-0.505-4.059c0.383-1.382,1.301-2.553,2.517-3.214
			c1.518-0.824,2.926-0.595,4.064-0.142v-6.965c-7.177-0.408-14.032-4.108-18.231-10.473v-0.016l-0.058-0.102l-7.375,4.258
			c-0.757,0.08-1.493-0.504-1.497-1.344c-0.008-1.521-0.089-2.977-1.522-3.854C29.489,75.095,27.063,75.727,26.057,77.505z"/>
		<path fill="#50A2F6" d="M55.082,101.356c1.278,2.172,3.601,1.904,5.479,0.733c0.732-0.457,1.64-0.117,1.958,0.595v8.623h0.116
			l0.009-0.005c16.347-0.483,30.598-9.308,38.646-22.364l-6.27-3.62c-0.208,1.15-0.677,2.14-1.378,2.871
			c-0.861,0.898-2.034,1.379-3.394,1.391c-1.394,0.014-2.761-0.569-3.767-1.593c-1.005-1.022-1.561-2.402-1.525-3.787
			c0.044-1.726,0.948-2.831,1.909-3.59l-6.032-3.481c-3.942,6.011-10.574,10.097-18.186,10.553l-0.013-0.01H62.52v8.517
			c-0.31,0.694-1.184,1.039-1.913,0.623c-1.321-0.754-2.622-1.411-4.099-0.608C54.711,97.179,54.046,99.596,55.082,101.356z"/>
		<path fill="#7EC92E" d="M90.25,88.146c2.52-0.021,3.449-2.168,3.375-4.38c-0.029-0.862,0.719-1.479,1.495-1.397l7.467,4.312
			l0.058-0.102l0.001-0.01c7.754-14.399,7.238-31.153-0.044-44.651l-6.271,3.62c0.894,0.755,1.515,1.656,1.798,2.629
			c0.347,1.194,0.177,2.452-0.493,3.634c-0.685,1.215-1.874,2.106-3.263,2.466c-1.388,0.359-2.86,0.149-4.042-0.573
			c-1.473-0.901-1.978-2.237-2.154-3.449l-6.032,3.482c3.234,6.42,3.458,14.207,0.046,21.025l-0.014,0.008l-0.058,0.102l7.374,4.257
			c0.448,0.616,0.31,1.545-0.415,1.969c-1.314,0.768-2.534,1.565-2.577,3.246C86.448,86.378,88.208,88.163,90.25,88.146z"/>
		<path fill="#50A2F6" d="M96.394,51.083c1.242-2.193-0.152-4.071-2.106-5.112c-0.762-0.406-0.92-1.362-0.462-1.993l7.466-4.311
			l-0.058-0.101l-0.008-0.007c-8.592-13.915-23.36-21.845-38.691-22.287v7.241c1.1-0.396,2.191-0.484,3.176-0.242
			c1.208,0.296,2.211,1.072,2.9,2.245c0.709,1.2,0.888,2.675,0.504,4.058c-0.382,1.381-1.3,2.553-2.516,3.214
			c-1.517,0.824-2.926,0.594-4.064,0.142v6.964c7.177,0.41,14.032,4.109,18.231,10.473v0.016l0.059,0.101l7.374-4.258
			c0.757-0.079,1.493,0.504,1.497,1.344c0.008,1.521,0.089,2.977,1.523,3.854C92.961,53.493,95.387,52.861,96.394,51.083z"/>
	</g>
	<g>
		<path fill="#7EC92E" d="M226.178,105.58c0,1.74-0.514,2.61-1.54,2.61c-0.669,0-1.685-0.066-3.045-0.201
			c-1.361-0.134-2.399-0.2-3.112-0.2c-0.759,0-1.897,0.045-3.414,0.134c-1.518,0.09-2.655,0.134-3.413,0.134
			c-0.937,0-1.406-1.048-1.406-3.146c0-2.052,0.078-5.12,0.234-9.203c0.156-4.082,0.234-7.149,0.234-9.202
			c0-11.288-0.045-17.579-0.134-18.874c-0.357-4.595-1.294-7.764-2.811-9.504c-1.74-1.874-4.842-2.811-9.303-2.811
			c-2.811,0-5.979,1.339-9.504,4.016c-3.659,2.811-5.555,5.578-5.689,8.299c-0.179,3.48-0.268,9.839-0.268,19.074
			c0,2.188,0.089,5.467,0.268,9.839c0.178,4.373,0.268,7.653,0.268,9.839c0,1.204-0.401,1.807-1.205,1.807s-1.974-0.066-3.514-0.201
			c-1.54-0.134-2.71-0.2-3.514-0.2c-0.714,0-1.763,0.045-3.146,0.134c-1.384,0.09-2.433,0.134-3.146,0.134
			c-0.893,0-1.338-0.646-1.338-1.941c0-2.142,0.067-5.364,0.201-9.671c0.134-4.305,0.201-7.529,0.201-9.671v-16.13
			c0-5.042-0.602-8.634-1.807-10.775c-1.696-3.034-4.931-4.551-9.705-4.551c-2.811,0-6.157,1.183-10.039,3.547
			c-4.283,2.588-6.425,5.198-6.425,7.831v19.543c0,2.231,0.022,5.555,0.067,9.972c0.044,4.418,0.067,7.72,0.067,9.905
			c0,1.295-0.513,1.941-1.539,1.941h-12.449c-0.893,0-1.338-0.603-1.338-1.807c0-3.614,0.022-9.046,0.067-16.298
			c0.044-7.25,0.067-12.683,0.067-16.297c0-8.165-0.87-16.308-2.61-24.429c-0.134-0.58-0.201-1.048-0.201-1.405
			c0-0.58,0.201-0.914,0.602-1.004c1.65-0.178,4.06-0.512,7.229-1.004c1.472-0.445,3.681-0.937,6.626-1.472l0.535-0.067
			c0.536,0,1.038,1.573,1.506,4.718c0.469,3.146,0.881,4.719,1.238,4.719l3.347-2.945c2.632-2.276,5.264-4.083,7.897-5.421
			c3.792-1.963,7.585-2.945,11.378-2.945c10.262,0,16.799,4.194,19.61,12.583c2.766-3.569,6.201-6.514,10.307-8.834
			c4.372-2.499,8.701-3.748,12.984-3.748c8.254,0,13.965,2.409,17.134,7.228c2.275,3.57,3.413,9.214,3.413,16.933
			c0,1.472-0.045,3.749-0.134,6.827c-0.09,3.079-0.134,5.354-0.134,6.827c0,2.811,0.067,7.038,0.201,12.683
			C226.111,98.542,226.178,102.769,226.178,105.58z"/>
		<path fill="#7EC92E" d="M298.393,106.717c0,0.982-0.446,1.473-1.338,1.473c-1.473,0-3.671-0.022-6.592-0.066
			c-2.923-0.046-5.12-0.067-6.593-0.067c-0.803,0-1.205-0.646-1.205-1.941c0-2.186,0.067-5.51,0.201-9.972
			c0.134-4.461,0.201-7.808,0.201-10.039c0-1.784-0.023-4.451-0.067-7.998c-0.045-3.547-0.067-6.213-0.067-7.998
			c0-5.087-0.736-8.678-2.208-10.776c-1.785-2.498-5.086-3.748-9.905-3.748c-2.232,0-5.333,1.25-9.303,3.748
			c-4.194,2.633-6.292,4.976-6.292,7.028v40.157c0,1.115-0.424,1.673-1.271,1.673c-1.428,0-3.57-0.022-6.425-0.066
			c-2.856-0.046-4.998-0.067-6.425-0.067c-0.937,0-1.406-0.513-1.406-1.539c0-3.524,0.056-8.812,0.167-15.862
			c0.111-7.05,0.167-12.358,0.167-15.929c0-9.504-1.004-18.272-3.012-26.303c-0.134-0.401-0.201-0.691-0.201-0.87
			c0-0.445,0.29-0.758,0.87-0.937c0.312-0.044,2.867-0.457,7.664-1.238c4.796-0.78,7.306-1.171,7.529-1.171
			c0.268,0,0.445,0.357,0.536,1.071c0.223,2.767,0.736,5.555,1.539,8.366c2.32-1.829,5.376-4.105,9.169-6.827
			c4.685-2.854,9.213-4.283,13.586-4.283c8.388,0,14.122,2.433,17.201,7.295c2.275,3.57,3.413,9.348,3.413,17.335
			c0,1.383-0.033,3.503-0.1,6.357c-0.067,2.856-0.101,4.998-0.101,6.426c0,2.989,0.044,7.451,0.134,13.385
			C298.348,99.266,298.393,103.729,298.393,106.717z"/>
		<path fill="#7EC92E" d="M328.511,28.01c0,5.488-3.057,8.232-9.169,8.232c-6.203,0-9.303-2.744-9.303-8.232
			c0-2.454,0.959-4.484,2.878-6.09c1.784-1.517,3.926-2.276,6.425-2.276c2.498,0,4.651,0.781,6.458,2.343
			C327.608,23.548,328.511,25.556,328.511,28.01z M328.043,46.147c0,3.436-0.212,8.623-0.636,15.561
			c-0.424,6.939-0.636,12.148-0.636,15.628c0,3.258,0.067,8.132,0.201,14.623c0.134,6.492,0.201,11.345,0.201,14.558
			c0,0.937-0.402,1.405-1.205,1.405h-13.051c-0.937,0-1.405-0.914-1.405-2.744c0-3.079,0.077-7.707,0.234-13.888
			c0.156-6.18,0.234-10.831,0.234-13.954c0-3.48-0.257-8.701-0.77-15.662c-0.514-6.96-0.77-12.181-0.77-15.661
			c0-0.758,0.469-1.138,1.406-1.138c0.803,0,2.041,0.112,3.714,0.335c1.673,0.224,2.934,0.334,3.782,0.334
			c0.847,0,2.108-0.111,3.781-0.334c1.673-0.223,2.934-0.335,3.781-0.335C327.663,44.875,328.043,45.3,328.043,46.147z"/>
	</g>
	<g>
		<path fill="#50A2F6" d="M405.139,46.608c0,0.982-0.514,3.168-1.54,6.559c-1.026,3.391-1.74,5.086-2.142,5.086
			c-2.008-0.892-4.027-1.784-6.057-2.677c-2.031-0.892-4.25-1.338-6.659-1.338c-5.488,0-10.063,2.031-13.721,6.09
			c-3.659,4.061-5.488,8.858-5.488,14.39c0,5.444,1.829,10.151,5.488,14.122c3.748,4.105,8.321,6.157,13.721,6.157
			c2.988,0,5.934-0.736,8.834-2.209s4.172-2.208,3.815-2.208c0.579,0,1.227,1.874,1.94,5.621c0.669,3.392,1.004,5.734,1.004,7.028
			c0,1.383-2.61,2.744-7.83,4.082c-4.374,1.115-7.608,1.674-9.705,1.674c-9.192,0-16.956-3.436-23.291-10.308
			c-6.202-6.692-9.303-14.679-9.303-23.96c0-9.459,3.034-17.491,9.102-24.095c6.247-6.782,14.032-10.173,23.358-10.173
			c6.246,0,11.957,1.584,17.134,4.752C404.691,45.738,405.139,46.207,405.139,46.608z"/>
		<path fill="#50A2F6" d="M478.559,46.742c0,0.179-0.066,0.581-0.201,1.205c-1.739,10.218-2.609,19.031-2.609,26.437
			c0,0.446,0.557,10.464,1.673,30.051l0.066,0.938c0.044,1.294-0.547,1.94-1.773,1.94c-1.228,0-3.078,0.145-5.555,0.436
			c-2.477,0.289-4.317,0.435-5.521,0.435c-0.849,0-1.496-1.562-1.941-4.685c-0.446-3.123-0.87-4.686-1.271-4.686
			c-0.268,0-1.473,0.87-3.614,2.61c-2.633,2.142-5.086,3.771-7.362,4.886c-3.524,1.784-7.05,2.678-10.574,2.678
			c-8.657,0-15.952-3.458-21.886-10.374c-5.622-6.604-8.433-14.3-8.433-23.091c0-9.905,2.833-18.093,8.5-24.563
			c5.934-6.737,13.742-10.106,23.425-10.106c6.826,0,12.783,2.366,17.87,7.094c0.758,0.893,1.94,2.187,3.547,3.882
			c0.134,0.134,0.268,0.201,0.401,0.201c0.268,0,0.646-1.406,1.138-4.217c0.49-2.811,1.115-4.216,1.874-4.216
			c1.205,0,3.457,0.334,6.76,1.004C476.729,45.403,478.559,46.118,478.559,46.742z M461.492,74.718
			c0-5.488-1.63-10.195-4.886-14.122c-3.437-4.239-7.831-6.358-13.186-6.358c-5.354,0-9.816,2.098-13.386,6.291
			c-3.436,4.016-5.153,8.746-5.153,14.189c0,5.399,1.718,10.084,5.153,14.055c3.569,4.149,8.032,6.225,13.386,6.225
			c5.221,0,9.593-2.119,13.118-6.358C459.841,84.668,461.492,80.029,461.492,74.718z"/>
		<path fill="#50A2F6" d="M527.751,44.466c0,4.909-0.335,9.37-1.004,13.386c-0.134,1.027-0.58,1.539-1.339,1.539
			c-0.937,0-2.354-0.1-4.25-0.301c-1.896-0.201-3.336-0.301-4.316-0.301c-5.622,0-9.214,1.584-10.775,4.752
			c-0.938,1.919-1.405,5.913-1.405,11.98v7.362c0,2.499,0.1,6.291,0.301,11.378s0.301,8.88,0.301,11.378
			c0,1.205-0.513,1.807-1.539,1.807c-1.384,0-3.48-0.022-6.291-0.066c-2.812-0.045-4.909-0.067-6.291-0.067
			c-1.027,0-1.54-0.558-1.54-1.673c0-3.614,0.056-9.058,0.168-16.331c0.11-7.271,0.167-12.738,0.167-16.397
			c0-11.02-1.027-19.877-3.079-26.57c-0.09-0.357-0.134-0.625-0.134-0.803c0-0.536,0.29-0.914,0.87-1.138
			c1.65-0.178,3.971-0.446,6.961-0.803c4.818-0.892,7.05-1.339,6.692-1.339c0.714,0,1.182,1.317,1.406,3.949
			c0.223,2.633,0.624,3.949,1.204,3.949c0.089,0,0.201-0.044,0.335-0.134c1.829-1.16,3.658-2.32,5.488-3.48
			c2.008-1.205,4.06-2.097,6.157-2.677c1.74-0.535,3.971-0.803,6.692-0.803C526.011,43.061,527.751,43.529,527.751,44.466z"/>
		<path fill="#50A2F6" d="M591.801,71.372c0,3.303-1.428,5.512-4.283,6.626c-1.919,0.714-15.729,2.031-41.429,3.949
			c0.58,3.927,2.744,7.272,6.492,10.039c3.569,2.633,7.406,3.948,11.512,3.948c7.05,0,13.52-2.275,19.409-6.826
			c0.713-0.579,1.428-1.16,2.142-1.74c0.356,0,0.591,0.045,0.703,0.134c0.11,0.09,0.947,1.64,2.51,4.651
			c1.562,3.012,2.343,4.63,2.343,4.853c0,0.268-0.358,0.781-1.071,1.539c-6.559,6.961-14.97,10.441-25.231,10.441
			c-10.353,0-18.606-3.09-24.764-9.27s-9.236-14.424-9.236-24.73c0-9.191,2.945-17.201,8.835-24.027
			c6.201-7.095,13.809-10.642,22.822-10.642c8.388,0,15.394,3.079,21.016,9.236C589.058,55.532,591.801,62.805,591.801,71.372z
			 M575.872,67.289c0-3.703-1.462-6.982-4.384-9.838c-2.923-2.855-6.214-4.283-9.871-4.283c-4.106,0-7.754,1.651-10.943,4.953
			c-3.19,3.302-4.785,7.005-4.785,11.11c0,0.937,0.803,1.405,2.409,1.405c6.604,0,14.501-0.669,23.692-2.008
			C574.577,68.271,575.872,67.825,575.872,67.289z"/>
		<path fill="#50A2F6" d="M657.859,71.372c0,3.303-1.428,5.512-4.283,6.626c-1.919,0.714-15.728,2.031-41.429,3.949
			c0.579,3.927,2.744,7.272,6.492,10.039c3.569,2.633,7.406,3.948,11.512,3.948c7.05,0,13.52-2.275,19.409-6.826
			c0.713-0.579,1.428-1.16,2.142-1.74c0.356,0,0.591,0.045,0.703,0.134c0.11,0.09,0.947,1.64,2.51,4.651
			c1.562,3.012,2.343,4.63,2.343,4.853c0,0.268-0.358,0.781-1.071,1.539c-6.559,6.961-14.97,10.441-25.232,10.441
			c-10.352,0-18.605-3.09-24.763-9.27c-6.158-6.18-9.236-14.424-9.236-24.73c0-9.191,2.944-17.201,8.834-24.027
			c6.202-7.095,13.81-10.642,22.823-10.642c8.388,0,15.394,3.079,21.016,9.236C655.116,55.532,657.859,62.805,657.859,71.372z
			 M641.931,67.289c0-3.703-1.462-6.982-4.384-9.838c-2.923-2.855-6.214-4.283-9.872-4.283c-4.105,0-7.753,1.651-10.942,4.953
			c-3.19,3.302-4.785,7.005-4.785,11.11c0,0.937,0.803,1.405,2.409,1.405c6.603,0,14.5-0.669,23.692-2.008
			C640.636,68.271,641.931,67.825,641.931,67.289z"/>
		<path fill="#50A2F6" d="M705.513,44.466c0,4.909-0.334,9.37-1.004,13.386c-0.134,1.027-0.58,1.539-1.338,1.539
			c-0.938,0-2.354-0.1-4.25-0.301c-1.897-0.201-3.336-0.301-4.317-0.301c-5.622,0-9.214,1.584-10.775,4.752
			c-0.937,1.919-1.405,5.913-1.405,11.98v7.362c0,2.499,0.101,6.291,0.301,11.378c0.201,5.087,0.302,8.88,0.302,11.378
			c0,1.205-0.514,1.807-1.54,1.807c-1.383,0-3.479-0.022-6.291-0.066c-2.811-0.045-4.908-0.067-6.291-0.067
			c-1.027,0-1.539-0.558-1.539-1.673c0-3.614,0.055-9.058,0.167-16.331c0.11-7.271,0.167-12.738,0.167-16.397
			c0-11.02-1.026-19.877-3.078-26.57c-0.09-0.357-0.134-0.625-0.134-0.803c0-0.536,0.289-0.914,0.87-1.138
			c1.649-0.178,3.971-0.446,6.96-0.803c4.819-0.892,7.05-1.339,6.693-1.339c0.713,0,1.182,1.317,1.405,3.949
			c0.223,2.633,0.624,3.949,1.205,3.949c0.089,0,0.2-0.044,0.334-0.134c1.829-1.16,3.658-2.32,5.488-3.48
			c2.008-1.205,4.06-2.097,6.157-2.677c1.74-0.535,3.971-0.803,6.693-0.803C703.772,43.061,705.513,43.529,705.513,44.466z"/>
		<path fill="#50A2F6" d="M744.197,86.699c0,6.648-2.655,11.979-7.965,15.995c-4.818,3.659-10.687,5.488-17.602,5.488
			c-2.678,0-4.195-0.066-4.552-0.2c-0.759-0.358-1.138-1.45-1.138-3.28c0-0.98-0.123-2.453-0.368-4.417
			c-0.246-1.963-0.368-3.413-0.368-4.351c0-0.579,0.401-0.959,1.205-1.138c0.579-0.134,1.405-0.134,2.477,0
			c1.382,0.134,2.052,0.201,2.008,0.201c8.433,0,12.649-2.587,12.649-7.764c0-2.453-1.853-4.707-5.556-6.76
			c-6.023-3.302-9.481-5.331-10.374-6.091c-3.704-3.167-5.555-7.317-5.555-12.449c0-6.693,2.521-11.913,7.563-15.661
			c4.552-3.347,10.308-5.02,17.268-5.02c0.625,0,1.082,0.291,1.372,0.87c0.29,0.581,0.848,2.388,1.674,5.421
			c0.825,3.035,1.238,4.864,1.238,5.488c0,0.491-0.425,0.803-1.271,0.937c-2.856,0.401-5.734,0.781-8.634,1.138
			c-3.437,0.937-5.154,2.811-5.154,5.622c0,2.008,1.808,4.039,5.422,6.091c5.354,2.989,8.744,5.153,10.173,6.492
			C742.367,76.792,744.197,81.255,744.197,86.699z"/>
	</g>
</g>
</svg>
