<?xml version="1.0" encoding="utf-8"?>
<!-- Generator: Adobe Illustrator 16.0.0, SVG Export Plug-In . SVG Version: 6.00 Build 0)  -->
<!DOCTYPE svg PUBLIC "-//W3C//DTD SVG 1.1//EN" "http://www.w3.org/Graphics/SVG/1.1/DTD/svg11.dtd">
<svg version="1.1" id="Layer_1" xmlns="http://www.w3.org/2000/svg" xmlns:xlink="http://www.w3.org/1999/xlink" x="0px" y="0px"
	 width="350px" height="350px" viewBox="0 0 350 350" enable-background="new 0 0 350 350" xml:space="preserve">
<path fill="#E6E6E6" d="M187.372,118.347V98.439h-22.744v19.908c0,2.209-1.791,4-4,4H140.72v22.74h19.908c2.209,0,4,1.791,4,4
	v19.912h22.744v-19.908c0-2.209,1.791-4,4-4h19.907v-22.744h-19.907C189.163,122.347,187.372,120.556,187.372,118.347z"/>
<path fill="#E6E6E6" d="M121.5,46.783c0.009,7.848,6.368,14.207,14.216,14.216h80.568c7.851-0.001,14.215-6.367,14.214-14.218
	c-0.002-7.85-6.365-14.212-14.214-14.214h-80.568C127.868,32.574,121.507,38.935,121.5,46.783z"/>
<path fill="#FFFFFF" d="M114.032,51.571l-0.172-0.8H89.744c-3.725,0.004-6.742,3.024-6.744,6.748v253.164
	c0.004,3.724,3.021,6.742,6.744,6.748h172.508c3.725-0.004,6.743-3.022,6.748-6.748V57.531c-0.002-3.726-3.022-6.746-6.748-6.748
	h-24.116l-0.172,0.8c-2.288,10.148-11.277,17.374-21.68,17.428h-80.568C125.31,68.955,116.319,61.724,114.032,51.571z
	 M117.5,268.999h117c2.209,0,4,1.791,4,4s-1.791,4-4,4h-117c-2.209,0-4-1.791-4-4S115.291,268.999,117.5,268.999z M234.5,246.335
	h-117c-2.209,0-4-1.791-4-4s1.791-4,4-4h117c2.209,0,4,1.791,4,4S236.709,246.335,234.5,246.335z M234.5,215.667h-117
	c-2.209,0-4-1.791-4-4s1.791-4,4-4h117c2.209,0,4,1.791,4,4S236.709,215.667,234.5,215.667z M215.3,114.351c2.21,0,4,1.791,4,4
	v30.74c0,2.209-1.79,4-4,4h-19.928v19.908c0,2.209-1.791,4-4,4h-30.744c-2.209,0-4-1.791-4-4v-19.908H136.72c-2.209,0-4-1.791-4-4
	v-30.744c0-2.209,1.791-4,4-4h19.908V94.439c0-2.209,1.791-4,4-4h30.744c2.209,0,4,1.791,4,4v19.908L215.3,114.351z"/>
<path fill="#004879" d="M136.72,154.091h18.908v18.908c0,2.762,2.239,5,5,5h30.744c2.761,0,5-2.238,5-5v-18.908h18.907
	c2.762,0,5-2.238,5-5v-30.744c0-2.762-2.238-5-5-5h-18.907V94.439c0-2.761-2.239-5-5-5h-30.744c-2.761,0-5,2.239-5,5v18.908H136.72
	c-2.762,0-5,2.238-5,5v30.74c-0.002,2.762,2.234,5.002,4.996,5.004C136.717,154.091,136.719,154.091,136.72,154.091z
	 M141.72,123.351h18.908c2.762,0,5-2.239,5-5V99.439h20.744v18.908c0,2.761,2.238,5,5,5h18.907v20.74h-18.907c-2.762,0-5,2.239-5,5
	v18.912h-20.744v-18.908c0-2.761-2.238-5-5-5H141.72V123.351z"/>
<path fill="#004879" d="M262.252,41.799h-23.308c-2.355-10.629-11.773-18.2-22.66-18.216h-80.568
	c-10.887,0.016-20.305,7.586-22.66,18.216H89.744C81.058,41.81,74.018,48.845,74,57.531v253.151
	c0.009,8.692,7.052,15.737,15.744,15.748h172.508c8.693-0.009,15.739-7.054,15.748-15.748V57.531
	C277.982,48.844,270.939,41.808,262.252,41.799z M135.716,33.567h80.568c7.299,0,13.216,5.917,13.216,13.216
	c0,7.299-5.917,13.216-13.216,13.216h-80.568c-7.299,0-13.216-5.917-13.216-13.216C122.5,39.484,128.417,33.567,135.716,33.567z
	 M268,310.683c-0.002,3.174-2.574,5.746-5.748,5.748H89.744c-3.172-0.004-5.742-2.576-5.744-5.748V57.531
	c0.011-3.166,2.578-5.728,5.744-5.732h23.312c2.354,10.628,11.77,18.199,22.656,18.216h80.572
	c10.887-0.016,20.305-7.586,22.66-18.216h23.312c3.166,0.004,5.733,2.566,5.744,5.732V310.683z"/>
<path fill="#004879" d="M234.5,206.667h-117c-2.761,0-5,2.238-5,5s2.239,5,5,5h117c2.762,0,5-2.238,5-5
	S237.262,206.667,234.5,206.667z"/>
<path fill="#004879" d="M234.5,237.335h-117c-2.761,0-5,2.238-5,5s2.239,5,5,5h117c2.762,0,5-2.238,5-5
	S237.262,237.335,234.5,237.335z"/>
<path fill="#004879" d="M234.5,267.999h-117c-2.761,0-5,2.238-5,5s2.239,5,5,5h117c2.762,0,5-2.238,5-5
	S237.262,267.999,234.5,267.999z"/>
</svg>
