<?xml version="1.0" encoding="utf-8"?>
<!-- Generator: Adobe Illustrator 16.0.0, SVG Export Plug-In . SVG Version: 6.00 Build 0)  -->
<!DOCTYPE svg PUBLIC "-//W3C//DTD SVG 1.1//EN" "http://www.w3.org/Graphics/SVG/1.1/DTD/svg11.dtd">
<svg version="1.1" id="Layer_1" xmlns="http://www.w3.org/2000/svg" xmlns:xlink="http://www.w3.org/1999/xlink" x="0px" y="0px"
	 width="494px" height="494px" viewBox="0 0 494 494" enable-background="new 0 0 494 494" xml:space="preserve">
<path fill="#FFFFFF" d="M486.211,76.789v70.809H397.43V76.789c-0.043-24.473,19.767-44.348,44.242-44.391h0.219
	c24.449,0,44.281,19.801,44.32,44.25V76.789z"/>
<path fill="#E6E6E6" d="M122.469,32.398h319.203c-24.477,0.043-44.285,19.918-44.242,44.391v325.262
	c-0.039,32.922-26.737,59.586-59.66,59.59h-0.18c-1.379,0-2.738-0.051-4.102-0.151c-31.277-2.185-55.523-28.215-55.488-59.57V363.35
	H78.078v-0.527L80.191,74.15C80.191,50.898,99.219,32.398,122.469,32.398z M296.422,173.551v-57.063l-62.91-30.898l-62.902,30.809
	v57.152c0,14.617,9.469,32.527,21.563,40.777l41.34,28.191l41.34-28.191C286.941,206.078,296.422,188.168,296.422,173.551z"/>
<path fill="#FFFFFF" d="M333.488,461.488l-0.008,0.151H67.449c-32.922-0.004-59.617-26.668-59.66-59.59v-38.702H278v38.569
	C277.965,433.273,302.211,459.305,333.488,461.488z"/>
<path fill="#FFFFFF" d="M296.422,116.488v57.063c0,14.617-9.48,32.527-21.57,40.777l-41.339,28.191l-41.34-28.191
	c-12.094-8.25-21.563-26.16-21.563-40.777v-57.152l62.902-30.809L296.422,116.488z"/>
<g>
	<path fill="#004879" d="M441.82,24.02H122.469c-27.723,0-50.277,22.344-50.277,49.715L70.137,355.02H7.789
		c-4.418,0-7.789,3.91-7.789,8.328v38.711c0,36.224,29,65.871,64,67.5v0.461h269v-0.52c2,0.086,3.219,0.52,4.59,0.52h0.18
		c37.263,0,67.23-30.698,67.23-67.969V156.02h81.211c4.418,0,7.789-4,7.789-8.422V76.637C494,47.832,470.691,24.02,441.82,24.02z
		 M67.449,454.02C39,454.02,16,430.492,16,402.051V371.02h254v30.892c-0.027,20.602,9.313,39.108,24.063,52.108H67.449z M389,76.789
		v325.25c0,28.453-22.777,51.979-51.289,51.979h-0.121c-1.19,0-2.34-0.229-3.551-0.319c-26.973-1.859-48.074-24.703-48.039-51.781
		v-38.57c0.023-4.479-3.52-8.172-8-8.328H86.137l2.055-281.227c0-18.609,15.375-33.773,34.277-33.773h281.637
		C394.551,49.891,389.145,63.051,389,76.789z M478,140.02h-73V76.777c0.137-20.211,16.461-36.57,36.672-36.758h0.219
		C461.883,40.02,478,56.668,478,76.648V140.02z"/>
	<path fill="#004879" d="M187.855,220.938l41.246,28.191c2.691,1.855,6.246,1.855,8.938,0l41.121-28.191
		c14.285-9.75,24.84-30.117,24.84-47.387v-57.063c0.086-3.016-1.574-5.809-4.262-7.18L236.934,78.41
		c-2.207-1.094-4.793-1.094-6.996,0l-62.676,30.809c-2.691,1.367-4.352,4.164-4.262,7.18v57.152
		C163,190.82,173.574,211.191,187.855,220.938z M179,121.387L233.488,94.5L288,121.473v52.078c0,12.039-7.898,27.367-17.867,34.168
		l-36.734,25.117l-36.578-25.117c-9.961-6.801-17.82-22.125-17.82-34.168L179,121.387L179,121.387z"/>
	<path fill="#004879" d="M219.965,185.621c1.492,1.52,3.531,2.387,5.664,2.398h0.02c2.125-0.008,4.16-0.859,5.66-2.367
		l31.828-31.832c3.129-3.125,3.129-8.191,0.008-11.32c-3.125-3.125-8.19-3.129-11.319-0.004l-26.145,26.133l-10.445-10.547
		c-3.113-3.141-8.18-3.164-11.32-0.051c-3.14,3.113-3.16,8.18-0.051,11.32L219.965,185.621z"/>
	<path fill="#004879" d="M141,288.02h192c4.418,0,8-3.582,8-8s-3.582-8-8-8H141c-4.418,0-8,3.582-8,8S136.582,288.02,141,288.02z"/>
	<path fill="#004879" d="M141,325.02h192c4.418,0,8-3.582,8-8s-3.582-8-8-8H141c-4.418,0-8,3.582-8,8S136.582,325.02,141,325.02z"/>
</g>
</svg>
